<?xml version="1.0" standalone="no"?>
<!DOCTYPE svg PUBLIC "-//W3C//DTD SVG 1.1//EN" "http://www.w3.org/Graphics/SVG/1.1/DTD/svg11.dtd" >
<svg xmlns="http://www.w3.org/2000/svg" xmlns:xlink="http://www.w3.org/1999/xlink" version="1.1">
<metadata>
Created by FontForge 20170731 at Sat Sep 22 14:34:02 2018
 By Aleksey,,,
Copyright (c) 2018 by Fontastica. All rights reserved.
</metadata>
<defs>
<font id="MriyaGrotesk-HeavyItalic" horiz-adv-x="659" >
  <font-face 
    font-family="Mriya Grotesk Heavy"
    font-weight="900"
    font-style="italic"
    font-stretch="normal"
    units-per-em="1000"
    panose-1="0 0 10 0 0 0 0 0 0 0"
    ascent="800"
    descent="-200"
    x-height="501"
    cap-height="700"
    bbox="-620 -228 996.031 807"
    underline-thickness="50"
    underline-position="-200"
    unicode-range="U+0020-2248"
  />
<missing-glyph horiz-adv-x="840" 
 />
    <glyph glyph-name=".notdef" horiz-adv-x="840" 
 />
    <glyph glyph-name=".null" horiz-adv-x="0" 
 />
    <glyph glyph-name="nonmarkingreturn" horiz-adv-x="333" 
 />
    <glyph glyph-name="uni0020" unicode=" " horiz-adv-x="330" 
 />
    <glyph glyph-name="uni0022" unicode="&#x22;" horiz-adv-x="394" 
d="M348 555h-3q-1 -1 -3 -1h-52l8 54q17 -30 53 -33zM303 672q-1 8 -7 18q-5 8 -12 14q-17 11 -42 11q-33 0 -55 -19q-24 -20 -29 -52q-4 -27 12 -48q16 -20 45 -21l-2 -15q-1 -4 -2 -5h-3q-1 -1 -3 -1h-59l-12 -72h58q27 0 48 10q22 10 37 33l-7 -43h58q39 0 66 21t33 60
l13 81q5 32 -12 52q-18 19 -50 19q-23 0 -43 -11q-21 -12 -32 -32z" />
    <glyph glyph-name="uni0023" unicode="#" horiz-adv-x="657" 
d="M238 407l-19 -114h-129l-15 -97h129l-31 -196h106l31 196h99l-31 -196h106l31 196h129l15 97h-129l19 114h129l15 97h-129l31 196h-106l-31 -196h-99l31 196h-106l-31 -196h-129l-15 -97h129zM424 293h-99l19 114h99z" />
    <glyph glyph-name="uni0024" unicode="$" horiz-adv-x="652" 
d="M435 294l18 -6q2 -1 7.5 -4t8.5 -4q12 -7 27 -20q12 -12 17 -27q5 -19 2 -36q-8 -46 -38 -69q-29 -24 -74 -35zM349 427q-22 7 -45 20q-22 11 -29 36q-5 13 -2 34q3 20 13 34q11 16 25 27q16 12 32 19q18 8 34 11zM663 425l10 58q15 100 -30 155q-46 55 -143 71l16 98
h-107l-16 -98q-41 -5 -77 -19q-40 -16 -70 -39q-32 -24 -54 -57q-21 -31 -29 -74q-7 -45 4 -82q9 -27 27 -47q15 -17 39 -32q26 -15 48 -22q17 -6 51 -16l-36 -229q-46 10 -72 39t-26 77q0 19 1 30q2 22 4 32l6 36h-110l-9 -53q-18 -112 32 -180q46 -68 158 -82l-16 -98h107
l16 98q43 6 82 22q41 17 72 42q34 27 55 60q21 32 29 79q8 52 -4 85q-9 30 -27 49q-17 19 -41 33q-23 14 -49 23q-10 4 -53 16l33 206q24 -6 48 -20t28 -42q6 -22 3 -49q0 -4 -1.5 -14t-2.5 -15q0 -5 -1.5 -15t-2.5 -16l-3 -10h111z" />
    <glyph glyph-name="uni0025" unicode="%" horiz-adv-x="825" 
d="M686 158q-12 -76 -91 -76q-39 0 -55 19q-17 20 -11 57l4 26q6 37 29 57q22 18 61 18q79 0 67 -75zM250 542q12 76 91 76q78 0 66 -76l-4 -25q-12 -76 -90 -76q-79 0 -67 76zM638 354q-84 0 -140 -45q-57 -46 -70 -130l-2 -17q-13 -84 29 -129q42 -46 125 -46q86 0 141 45
q57 46 70 130l2 17q13 82 -29 129q-42 46 -126 46zM298 346q84 0 140 45t69 129l3 18q14 83 -28 129t-126 46q-86 0 -141 -45q-57 -46 -70 -130l-3 -18q-12 -83 30 -128q42 -46 126 -46zM183 -18l275 292q11 11 32.5 34t31.5 35q35 38 64 66q59 60 119 119l119 119l8 8
l-79 64l-235 -254q-6 -5 -16.5 -16t-15.5 -17l-33 -33l-33 -33q-6 -5 -16.5 -16t-15.5 -17l-283 -288z" />
    <glyph glyph-name="uni0026" unicode="&#x26;" horiz-adv-x="757" 
d="M439 155q-29 -30 -65 -49q-34 -19 -79 -19q-49 0 -78 29q-28 28 -21 76q8 44 40 73q30 27 71 43zM306 532q3 18 14 34q10 13 26 24q15 11 34 15q20 5 36 5q12 0 18 -1q2 0 8 -1.5t9 -2.5q19 -6 30 -16q12 -9 19 -25q7 -13 4 -32q-3 -23 -19 -39q-17 -17 -37 -30
q-18 -12 -44 -22q-9 -4 -43 -17q-18 14 -25 22q-13 13 -19 24q-16 23 -11 62zM580 0h151l-153 169l186 262h-122l-130 -186l-79 102q30 11 61 30q30 19 53 42q24 22 41 52q16 27 22 63q6 40 -6 73q-11 34 -35 56q-54 48 -130 48q-41 0 -81 -12q-39 -12 -75 -35
q-35 -24 -57 -57q-24 -34 -31 -77q-6 -40 4 -78q8 -42 32 -66q-59 -26 -96 -78q-38 -51 -49 -116q-6 -48 5 -84q20 -62 72 -92q53 -30 114 -30q67 0 123 27q53 25 103 71z" />
    <glyph glyph-name="uni0027" unicode="'" horiz-adv-x="258" 
d="M215 575l-2 -15q-1 -4 -2 -5h-3q-1 -1 -3 -1h-59l-12 -72h58q39 0 66 21t33 60l13 81q5 32 -12 52q-18 19 -50 19q-33 0 -55 -19q-24 -20 -29 -52q-4 -27 12 -48q16 -20 45 -21z" />
    <glyph glyph-name="uni0028" unicode="(" horiz-adv-x="439" 
d="M236 543l-82 -515q-5 -32 -5 -55q0 -27 3 -49q6 -42 24 -70q19 -29 45 -47q27 -18 61 -27q37 -8 72 -8h29l15 97h-10q-26 0 -48 3q-26 5 -40 13q-19 11 -29 27q-12 20 -13 47q-3 31 3 73l81 508q6 38 18 68q10 30 30 51t48 33q30 11 67 11h25l16 96h-29q-62 0 -110 -18
q-50 -20 -84 -52q-35 -35 -56 -81q-22 -46 -31 -105z" />
    <glyph glyph-name="uni0029" unicode=")" horiz-adv-x="439" 
d="M293 28l82 515q9 57 3 104q-6 42 -23 71q-19 29 -45 47q-28 19 -61 26q-37 8 -73 8h-29l-16 -97l10 1q45 0 73 -9q30 -11 43 -30t16 -50q2 -22 1 -34q-1 -7 -5 -40l-81 -508q-4 -34 -15 -64q-12 -32 -32 -56q-20 -22 -47 -33q-31 -11 -69 -11l-26 1l-15 -97h29
q63 0 111 18q50 20 83 52q33 33 56 81q21 47 30 105z" />
    <glyph glyph-name="uni002B" unicode="+" horiz-adv-x="648" 
d="M163 392l-13 -84h179l-28 -175h88l28 175h179l13 84h-179l28 175h-88l-28 -175h-179z" />
    <glyph glyph-name="uni002C" unicode="," horiz-adv-x="258" 
d="M122 -11l-2 -15l-2 -6h-6h-59l-11 -72h58q37 0 65 20q27 21 33 60l13 82q6 31 -12 52q-16 19 -50 19q-32 0 -55 -19q-24 -20 -29 -52q-4 -28 13 -48q13 -19 44 -21z" />
    <glyph glyph-name="uni002D" unicode="-" horiz-adv-x="506" 
d="M116 214h342l16 101h-342z" />
    <glyph glyph-name="uni002F" unicode="/" horiz-adv-x="523" 
d="M466 700l-441 -884h109l442 884h-110z" />
    <glyph glyph-name="uni0030" unicode="0" horiz-adv-x="662" 
d="M218 275l23 150q8 42 21 76q13 33 36 59t55 39q33 14 75 14q58 0 93 -27q34 -28 38 -86q3 -38 -4 -75l-23 -150q-8 -45 -20 -75q-14 -35 -36 -59q-22 -25 -55 -39t-76 -14q-58 0 -92 28q-36 27 -39 85q-2 17 0 36q0 21 4 38zM131 422l-23 -144q-11 -66 -2 -116
q6 -48 25 -80q20 -34 49 -54q28 -20 68 -31q36 -10 81 -10q71 0 124 22q54 21 93 60q38 38 62 92q23 51 34 117l23 144q11 63 3 117q-6 48 -25 80t-49 54q-28 20 -68 31q-37 9 -82 9q-70 0 -122 -21q-55 -23 -93 -61q-39 -39 -63 -92q-24 -51 -35 -117z" />
    <glyph glyph-name="uni0031" unicode="1" horiz-adv-x="460" 
d="M352 542l-86 -542h110l113 700h-131l-289 -328h135z" />
    <glyph glyph-name="uni0032" unicode="2" horiz-adv-x="624" 
d="M128 466l-8 -50h110l1 9q1 3 2 7t1 7t2 13q12 78 57 120q46 41 124 41q67 0 101 -34q34 -35 24 -99q-6 -34 -24 -58q-17 -24 -43 -41q-25 -17 -57 -27q-33 -11 -61 -18q-4 -1 -10 -3t-10 -3q-15 -4 -20 -5q-51 -15 -93 -33q-42 -17 -75 -44q-32 -27 -54 -65
q-22 -36 -31 -93l-14 -90h530l16 100h-420q8 32 21 53q14 22 33 35t43 22q27 8 52 15q9 3 27 7q61 16 103 31q50 18 91 47q43 30 70 70q28 39 37 100q9 54 -4 99q-11 38 -32 62q-20 22 -52 41q-29 16 -63 24q-32 7 -69 7q-55 0 -108 -17q-51 -18 -92 -50t-68 -78
q-28 -45 -37 -102z" />
    <glyph glyph-name="uni0033" unicode="3" horiz-adv-x="619" 
d="M432 441l236 173l14 86h-512l-16 -102h335l-221 -163l-14 -91h9h20q14 0 21 1h40q32 0 60 -4t56 -22q9 -7 18 -17q8 -11 12 -22q10 -22 4 -61q-4 -30 -20 -55q-16 -26 -37 -41q-23 -17 -50 -26q-29 -9 -58 -9q-85 0 -116 40q-30 40 -18 119l8 49h-110l-6 -35
q0 -6 -1.5 -17t-2.5 -16t-2 -16t-1 -16q-3 -33 6 -65q10 -38 34 -67q23 -29 53 -45q33 -18 67 -25t73 -7q53 0 100 17q50 17 89 47t67 73t35 94q7 45 -2 87q-18 65 -62 97q-45 32 -108 39z" />
    <glyph glyph-name="uni0034" unicode="4" horiz-adv-x="628" 
d="M41 132h367l-21 -132h110l21 132h119l16 101h-119l74 467h-134l-421 -489zM424 233h-225l275 316z" />
    <glyph glyph-name="uni0035" unicode="5" horiz-adv-x="619" 
d="M222 700l-96 -340l91 -71l7 11q29 46 69 68t94 22q69 0 96 -41q26 -40 16 -107q-10 -71 -55 -113q-44 -41 -119 -41q-23 0 -40 4q-23 5 -39 13q-17 9 -31 24q-13 14 -19 37q-5 20 -3 41q1 3 1 11t1 11q1 4 2 11.5t1 10.5l5 31h-108l-5 -30q-2 -10 -4 -32q-2 -20 -3 -29
q-3 -27 7 -60q10 -39 33 -66q21 -27 50 -44q29 -18 64 -26q37 -8 72 -8q59 0 109 19q51 18 91 52q39 32 67 80q26 48 35 104q8 48 2 86q-14 77 -57 113q-45 36 -117 46h-11q-8 0 -12 1q-1 1 -4 1q-2 0 -3 1q-42 0 -74 -4t-70 -22l41 136h328l16 100h-428z" />
    <glyph glyph-name="uni0036" unicode="6" horiz-adv-x="637" 
d="M515 238q-10 -68 -58 -110q-46 -40 -118 -40q-69 0 -104 41q-34 40 -23 109q4 34 21 63q15 28 38 48t53 32q30 11 63 11q72 0 105 -43q34 -41 23 -111zM414 489q-47 0 -89 -13q-43 -13 -82 -41l5 32q12 75 60 111q47 35 120 35q64 0 99 -29q31 -30 21 -96l-4 -28h110
l4 28q9 54 -3 96q-10 34 -32 60q-23 24 -50 40q-26 14 -62 22q-31 7 -67 7q-57 0 -111 -17q-51 -17 -92 -51q-41 -33 -68 -80t-36 -105l-35 -222q-9 -54 4 -101q11 -39 31 -66q19 -26 50 -47q27 -18 64 -28q35 -9 72 -9q57 0 107 19q52 19 91 52q39 32 68 79q27 47 36 101
q4 23 4 51q-2 28 -7 48q-10 40 -28 67q-18 26 -47 47q-27 18 -62 29q-35 9 -71 9z" />
    <glyph glyph-name="uni0037" unicode="7" horiz-adv-x="586" 
d="M129 700l-16 -102h412l-398 -598h125l409 617q1 3 3 7l2 6l11 70h-548z" />
    <glyph glyph-name="uni0038" unicode="8" horiz-adv-x="622" 
d="M360 311q20 0 30 -1q5 -1 15 -2.5t14 -1.5q24 -4 45 -17q19 -13 31 -37q10 -18 5 -53q-4 -31 -22 -54q-17 -20 -42 -34q-26 -13 -54 -18q-32 -5 -57 -5q-19 0 -38 3q-20 2 -38 9q-19 6 -34 18q-15 10 -24 29q-5 11 -6 24q-2 13 1 28q4 31 23 54q16 20 42 34q22 13 53 19
q32 5 56 5zM408 613q10 0 36 -2q17 -1 35 -8q18 -6 30 -16q13 -10 23 -28q9 -18 4 -47q-4 -27 -21 -47q-18 -21 -38 -32q-23 -12 -49 -17q-30 -5 -52 -5q-26 0 -50 6q-22 4 -41 16t-30 33q-10 19 -6 46q8 43 38 65t69 31q5 0 14 2t13 2q8 1 25 1zM424 713q-48 0 -95 -12
q-49 -12 -87 -37q-40 -25 -68 -62q-29 -38 -36 -88q-7 -48 11 -86q19 -40 54 -63q-49 -24 -84 -68q-35 -46 -44 -100q-9 -55 9 -94q14 -31 39 -54q24 -23 55 -36q34 -15 65 -20q35 -6 66 -6q52 0 100 13q49 13 91 39q42 25 72 66t37 92q9 52 -10 99q-18 44 -63 69
q42 22 73 62q30 39 37 87q9 54 -7 91q-14 31 -37 51q-22 19 -53 34q-30 12 -62 18q-37 5 -63 5z" />
    <glyph glyph-name="uni0039" unicode="9" horiz-adv-x="637" 
d="M233 462q10 69 58 111q46 40 117 40t106 -41q34 -42 22 -110q-10 -70 -57 -112t-119 -42q-47 0 -81 23q-33 22 -44 70q-6 31 -2 61zM334 212q45 0 90 14t81 40l-5 -33q-12 -75 -59 -110t-121 -35q-65 0 -98 30q-32 28 -22 94l4 28h-110l-4 -28q-9 -51 5 -95
q10 -34 32 -59q20 -24 49 -41q26 -15 61 -23q31 -7 67 -7q58 0 111 18q52 16 93 50q39 32 67 80q27 47 36 105l35 222q9 56 -3 102q-11 39 -31 67q-22 28 -51 46q-30 18 -65 27q-34 9 -72 9q-57 0 -106 -18q-51 -20 -91 -52q-43 -36 -68 -80q-27 -47 -36 -101q-8 -54 4 -98
q7 -34 28 -65q19 -29 48 -48q25 -18 61 -29q33 -10 70 -10z" />
    <glyph glyph-name="uni003B" unicode=";" horiz-adv-x="258" 
d="M122 -11l-2 -15l-2 -6h-6h-59l-11 -72h58q37 0 65 20q27 21 33 60l13 82q6 31 -12 52q-16 19 -50 19q-32 0 -55 -19q-24 -20 -29 -52q-4 -28 13 -48q13 -19 44 -21z" />
    <glyph glyph-name="uni003C" unicode="&#x3c;" horiz-adv-x="661" 
d="M304 350l332 126l19 119l-492 -195l-15 -100l430 -195l19 119z" />
    <glyph glyph-name="uni003D" unicode="=" horiz-adv-x="648" 
d="M159 369h446l13 82h-446zM140 249h446l14 83h-446z" />
    <glyph glyph-name="uni003E" unicode="&#x3e;" horiz-adv-x="661" 
d="M468 350l-332 -126l-19 -119l492 195l15 100l-430 195l-19 -119z" />
    <glyph glyph-name="uni003F" unicode="?" 
d="M320 14q61 0 70 58q6 31 -8 45q-13 13 -43 13q-32 0 -48 -13q-19 -14 -23 -45q-9 -58 52 -58zM146 494l-11 -69h110l2 10q1 5 3 17q0 3 1 9t1 9q3 38 18 65q15 28 39 44q24 17 54 26q32 8 64 8q37 0 73 -11q34 -12 54 -48q10 -17 5 -49q-4 -29 -19 -54q-16 -24 -42 -37
q-15 -9 -33 -16q-12 -5 -36 -13q-30 -11 -51 -21q-20 -10 -36 -26q-15 -15 -24 -36q-11 -23 -15 -53l-14 -93h110l1 10l3 15q1 2 1 7t1 8q1 2 1 7t1 8q0 5 2 15q0 3 1 5q0 3 1 6q0 7 3 15q1 3 1 7q0 1 2 7q1 1 3 4.5t3 5.5q3 5 10 6q3 2 13 6l6 3q2 1 8 3q44 16 76 33
q34 16 62 41q26 23 46 57q17 30 25 77q8 57 -8 94q-7 18 -20 36t-28 30q-39 30 -80 40q-46 11 -90 11q-56 0 -104 -13q-49 -13 -89 -41q-39 -26 -67 -68q-28 -39 -37 -97z" />
    <glyph glyph-name="uni0040" unicode="@" horiz-adv-x="1041" 
d="M409 249q7 37 19 68t33 57q19 23 50 41q29 15 67 15q52 0 81 -28t34 -78q2 -22 2 -32q-2 -22 -4 -33q-6 -35 -18 -68q-13 -32 -33 -58q-20 -24 -50 -40q-28 -15 -68 -15q-31 0 -56 13q-27 14 -40 40q-15 23 -18 54q-3 35 1 64zM309 152q5 -35 22 -65q22 -49 70 -75
q46 -25 99 -25q46 0 91 17q41 16 79 47q4 -13 18 -30q12 -15 24 -25q-48 -29 -94 -44q-48 -16 -103 -16q-49 0 -91 13q-44 13 -78 39q-37 29 -59 63q-23 37 -34 85q-13 60 -3 127q12 77 44 140q30 58 82 104q51 43 114 65t142 22q46 0 91 -14q39 -12 76 -40q33 -26 57 -63
q22 -37 33 -84q7 -27 7 -60q0 -28 -5 -65q-7 -51 -29 -99q-20 -46 -53 -90q-1 0 -5 1.5t-6 2.5t-6 2t-6 2q-8 2 -13 5l-10 5l66 411h-96l-7 -42q-62 56 -141 56q-61 0 -112 -27q-51 -28 -89 -73q-39 -47 -58 -101q-21 -58 -20 -114q-1 -27 3 -55zM989 268q15 89 -2 171
q-15 66 -48 114q-34 50 -79 80q-44 30 -104 47q-59 15 -121 15q-95 0 -179 -32q-82 -31 -147 -89t-107 -135q-43 -78 -58 -171q-14 -95 4 -170q15 -65 48 -115q31 -48 79 -80q45 -30 104 -47q57 -15 121 -15q95 0 179 32q83 33 147 90q63 55 107 135q43 79 56 170z" />
    <glyph glyph-name="uni0041" unicode="A" horiz-adv-x="667" 
d="M138 0l89 175h269l34 -175h119l-145 700h-118l-368 -700h120zM476 275h-197l142 277z" />
    <glyph glyph-name="uni0042" unicode="B" horiz-adv-x="661" 
d="M416 302q55 0 86 -22q32 -23 23 -78q-5 -27 -16 -45q-13 -18 -31 -32q-17 -13 -40 -19q-22 -6 -48 -6h-182l32 202h176zM467 600q31 0 61 -11q28 -10 42 -43q3 -6 5 -19q0 -7 -2 -23q-7 -52 -46 -77q-37 -25 -89 -25h-182l31 198h180zM372 0q49 0 91 13q47 15 80 38
q36 27 60 62q23 37 31 85q7 46 -8 90q-17 41 -56 65q45 25 75 63q31 38 38 89q8 50 -6 85q-12 31 -31 51t-45 34q-23 12 -55 19q-29 6 -59 6h-294l-111 -700h290z" />
    <glyph glyph-name="uni0043" unicode="C" horiz-adv-x="675" 
d="M129 412l-19 -124q-5 -37 -5 -63q-1 -25 4 -58q7 -48 30 -83q20 -33 53 -55q29 -21 73 -32q39 -10 85 -10q60 0 113 18q52 16 93 50q40 32 67 81q27 46 36 106l7 44h-110l-1 -9q-8 -52 -19 -83q-12 -37 -33 -59q-23 -25 -54 -35q-33 -12 -83 -12q-36 0 -71 12t-55 44
q-18 27 -22 63q-2 24 -2 38q0 22 4 42l20 127q13 90 65 145q51 54 144 54q80 0 114 -40q32 -41 20 -118l-6 -41h110l6 41q19 124 -40 192q-63 66 -188 66q-71 0 -127 -22q-56 -21 -101 -62q-43 -40 -70 -95q-28 -57 -38 -122z" />
    <glyph glyph-name="uni0044" unicode="D" horiz-adv-x="673" 
d="M287 600h115q98 0 142 -41q42 -41 27 -139l-23 -140q-7 -47 -25 -85q-19 -36 -46 -56q-29 -21 -66 -30t-88 -9h-115zM193 700l-111 -700h228q145 0 233 70q89 71 111 215l21 130q22 142 -43 215q-66 70 -211 70h-228z" />
    <glyph glyph-name="uni0045" unicode="E" horiz-adv-x="603" 
d="M193 700l-111 -700h473l16 100h-363l32 201h332l16 100h-332l31 199h359l16 100h-469z" />
    <glyph glyph-name="uni0046" unicode="F" horiz-adv-x="579" 
d="M193 700l-111 -700h110l48 301h332l16 100h-332l31 199h351l16 100h-461z" />
    <glyph glyph-name="uni0047" unicode="G" horiz-adv-x="681" 
d="M129 412l-19 -124q-5 -37 -5 -63q-1 -25 4 -58q7 -48 30 -83q20 -33 53 -55q30 -21 71 -32q39 -10 85 -10q60 0 113 18q50 16 92 50q40 32 67 81q26 47 35 106l17 108h-332l-16 -101h222l-1 -7q-14 -82 -56 -117q-43 -37 -125 -37q-60 0 -100 29t-47 90q-4 37 3 80
l20 127q13 90 65 145q51 54 144 54q58 0 94 -24q37 -24 38 -84q0 -33 -6 -77l-2 -9h110l2 9q4 31 6 62q1 21 -1 56q-6 47 -26 81q-19 31 -50 51q-30 19 -68 27q-42 8 -82 8q-71 0 -127 -22t-100 -63q-43 -40 -70 -95q-28 -57 -38 -121z" />
    <glyph glyph-name="uni0048" unicode="H" horiz-adv-x="679" 
d="M193 700l-111 -700h110l48 301h295l-48 -301h110l111 700h-110l-47 -299h-295l47 299h-110z" />
    <glyph glyph-name="uni0049" unicode="I" horiz-adv-x="274" 
d="M193 700l-111 -700h110l111 700h-110z" />
    <glyph glyph-name="uni004A" unicode="J" horiz-adv-x="579" 
d="M612 700h-110l-76 -479q-4 -29 -14 -55q-9 -26 -25 -42q-17 -18 -39 -27t-56 -9q-70 0 -92 40q-22 36 -11 105l9 60h-110l-11 -72q-18 -110 34 -171q49 -63 164 -63q59 0 102 17q47 17 78 47q32 30 53 74q21 47 28 96z" />
    <glyph glyph-name="uni004B" unicode="K" horiz-adv-x="699" 
d="M254 388l49 312h-110l-111 -700h110l39 248l114 89l193 -337h136l-238 409l372 291h-159z" />
    <glyph glyph-name="uni004C" unicode="L" horiz-adv-x="581" 
d="M193 700l-111 -700h477l16 100h-367l95 600h-110z" />
    <glyph glyph-name="uni004D" unicode="M" horiz-adv-x="894" 
d="M270 490l118 -490h118l274 490l-78 -490h110l111 700h-145l-307 -551l-133 551h-145l-111 -700h110z" />
    <glyph glyph-name="uni004E" unicode="N" horiz-adv-x="689" 
d="M274 519l197 -519h136l111 700h-111l-82 -519l-197 519h-135l-111 -700h110z" />
    <glyph glyph-name="uni004F" unicode="O" horiz-adv-x="697" 
d="M241 425q13 83 65 136q51 52 139 52q89 0 125 -51q34 -48 20 -137l-23 -150q-13 -85 -64 -136t-141 -51q-87 0 -123 52q-35 51 -21 135zM108 278q-10 -64 0 -118q7 -44 31 -79q23 -33 54 -54t71 -31q39 -9 82 -9q69 0 126 21q56 21 98 60q41 36 70 92q26 51 37 118
l23 144q10 63 1 120q-11 49 -32 80q-23 32 -54 53q-32 20 -71 29t-83 9q-69 0 -125 -21t-99 -59q-42 -37 -69 -92q-26 -52 -37 -119z" />
    <glyph glyph-name="uni0050" unicode="P" horiz-adv-x="627" 
d="M444 600q58 0 93 -26q33 -26 23 -87t-51 -87q-43 -26 -101 -26h-157l36 226h157zM192 0l43 274h163q48 0 95 15q45 13 83 42q36 29 61 68q26 39 33 88q9 50 -4 91q-10 31 -31 57q-21 23 -47 38q-27 14 -58 21q-31 6 -64 6h-273l-111 -700h110z" />
    <glyph glyph-name="uni0051" unicode="Q" horiz-adv-x="709" 
d="M241 425q13 83 65 136q51 52 139 52q89 0 125 -51q34 -48 20 -137l-23 -150q-6 -30 -10 -45q-7 -22 -18 -42l-100 92l-82 -83l97 -90q-21 -10 -45 -14q-30 -5 -47 -5q-87 0 -123 52q-35 51 -21 135zM615 118q26 39 41 77q13 37 21 83l23 144q10 63 1 120q-11 49 -32 80
q-23 32 -54 53q-32 20 -71 29t-83 9q-69 0 -125 -21t-99 -59q-42 -37 -69 -92q-26 -52 -37 -119l-23 -144q-10 -64 0 -118q7 -44 31 -79q23 -33 54 -54t71 -31q39 -9 82 -9q48 0 94 15q43 12 87 37l64 -58l87 78z" />
    <glyph glyph-name="uni0052" unicode="R" horiz-adv-x="653" 
d="M463 600q60 0 93 -24t24 -85q-4 -31 -18 -51q-12 -19 -34 -34q-20 -14 -45 -18q-25 -6 -54 -6h-176l34 218h176zM493 290q79 18 131 69t66 132q8 54 -5 90q-10 33 -32 56q-19 21 -47 37q-29 14 -58 20q-32 6 -63 6h-292l-111 -700h110l45 281h139l113 -281h125z" />
    <glyph glyph-name="uni0053" unicode="S" horiz-adv-x="652" 
d="M663 425l9 57q1 5 2.5 14.5t1.5 13.5q1 9 1 27q-1 51 -27 89t-70 60q-33 14 -66 21q-34 6 -70 6q-44 0 -91 -12q-48 -14 -87 -37q-41 -26 -67 -62q-29 -38 -36 -85q-9 -50 5 -86q10 -28 29 -47q16 -17 42 -32q22 -13 49 -21q23 -8 52 -15q11 -3 35 -9t35 -9q22 -5 40 -12
q20 -8 36 -18q17 -14 25 -29q8 -20 4 -42q-5 -30 -21 -51t-41 -33q-23 -13 -51 -19q-29 -6 -55 -6q-173 0 -146 168l8 50h-110l-9 -53q-10 -63 2 -115q11 -44 34 -72q25 -30 57 -46q33 -19 71 -26q36 -7 78 -7q51 0 99 13q50 14 89 40q40 26 69 66q29 39 36 91q4 21 4 44
q-2 23 -7 37q-9 26 -24 46q-14 17 -36 32q-16 11 -43 22q-32 10 -49 15l-33 9q-6 1 -17 3.5t-16 4.5q-5 1 -16 3.5t-16 4.5q-12 2 -29 8q-26 9 -43 19q-21 11 -27 36q-3 15 0 36q5 26 20 43q17 19 38 30q23 12 48 18q28 5 47 5q20 0 43 -3q33 -8 55 -20q23 -13 37 -44
q5 -18 5 -31q-1 -5 -1 -16l-3 -18l-10 -56h111z" />
    <glyph glyph-name="uni0054" unicode="T" horiz-adv-x="624" 
d="M133 700l-16 -100h235l-95 -600h110l95 600h235l16 100h-580z" />
    <glyph glyph-name="uni0055" unicode="U" horiz-adv-x="690" 
d="M189 700l-73 -463q-11 -64 1 -108q10 -38 34 -67q22 -28 53 -44q30 -16 66 -24q34 -7 73 -7q123 0 206 65q82 65 101 185l73 463h-110l-73 -463q-14 -79 -58 -113q-45 -36 -123 -36t-111 36q-35 34 -22 113l73 463h-110z" />
    <glyph glyph-name="uni0056" unicode="V" horiz-adv-x="667" 
d="M358 152l-109 548h-118l145 -700h116l366 700h-117z" />
    <glyph glyph-name="uni0057" unicode="W" horiz-adv-x="911" 
d="M538 521l56 -521h136l253 700h-114l-183 -508l-54 508h-131l-217 -508l-21 508h-113l31 -700h136z" />
    <glyph glyph-name="uni0058" unicode="X" horiz-adv-x="707" 
d="M334 353l-302 -353h134l230 273l145 -273h134l-190 353l297 347h-134l-227 -268l-140 268h-134z" />
    <glyph glyph-name="uni0059" unicode="Y" horiz-adv-x="701" 
d="M139 700l200 -424l-44 -276h111l44 276l334 424h-130l-242 -310l-143 310h-130z" />
    <glyph glyph-name="uni005A" unicode="Z" horiz-adv-x="624" 
d="M171 700l-16 -100h365l-460 -523l-12 -77h534l16 100h-388l461 523l12 77h-512z" />
    <glyph glyph-name="uni005B" unicode="[" horiz-adv-x="402" 
d="M235 -130l132 831h106l15 97h-122q-38 0 -67 -24q-30 -26 -36 -63l-135 -850q-6 -37 16 -63q22 -24 60 -24h122l15 96h-106z" />
    <glyph glyph-name="uni005C" unicode="\" horiz-adv-x="525" 
d="M280 700h-109l161 -884h110z" />
    <glyph glyph-name="uni005D" unicode="]" horiz-adv-x="402" 
d="M257 701l-132 -831h-106l-15 -96h122q40 0 69 24t35 63l135 850q6 37 -15 63q-23 24 -62 24h-122l-15 -97h106z" />
    <glyph glyph-name="uni005E" unicode="^" horiz-adv-x="713" 
d="M450 592l113 -202h136l-175 310h-113l-273 -310h136z" />
    <glyph glyph-name="uni005F" unicode="_" horiz-adv-x="660" 
d="M70 -88h492l16 100h-492z" />
    <glyph glyph-name="uni0061" unicode="a" horiz-adv-x="623" 
d="M473 216q-9 -34 -28 -59t-44 -41t-57 -24q-34 -8 -65 -8q-13 0 -29 3q-13 1 -30 8q-14 5 -26 17q-10 11 -7 28q3 21 18 31q15 11 33 18q18 6 36 9q6 0 18 1.5t19 2.5zM442 0h105l49 310q8 50 -3 88q-9 33 -28 55t-46 36q-24 13 -56 19q-30 6 -61 6q-107 0 -175 -40
q-70 -40 -114 -136l-5 -8l90 -41l4 10q21 38 36 59q16 22 36 36q20 13 47 17q28 5 64 5q54 0 84 -24q29 -26 22 -79l-1 -1l-179 -15q-37 -3 -74 -12q-41 -12 -70 -28q-34 -19 -55 -46q-24 -29 -30 -69q-8 -43 8 -70q12 -23 31 -39q20 -17 43 -27q22 -10 49 -15q23 -4 49 -4
q48 0 99 14q49 13 88 45z" />
    <glyph glyph-name="uni0062" unicode="b" 
d="M540 251q-12 -72 -59 -119q-46 -46 -121 -46q-48 0 -86 26t-45 74q-3 15 -3 32q-1 15 2 33q6 37 22 66q15 29 39 52q22 20 56 35q32 12 67 12q52 0 85 -24q32 -24 43 -75q6 -30 0 -66zM193 47q30 -33 74 -47q39 -13 86 -13q59 0 109 21q49 19 89 56q39 36 64 84
q25 47 34 103q5 30 5 53q-1 25 -6 49q-9 42 -28 71q-21 32 -47 50q-29 20 -63 30q-33 10 -74 10q-50 0 -93 -12q-42 -13 -83 -45l39 243h-106l-111 -700h104z" />
    <glyph glyph-name="uni0063" unicode="c" horiz-adv-x="617" 
d="M505 275l109 20v9q3 48 -11 87q-27 64 -82 94q-56 29 -121 29q-55 0 -109 -20q-49 -18 -94 -55q-40 -33 -70 -83q-28 -48 -37 -105q-9 -58 4 -104q9 -40 31 -69q24 -32 52 -50q29 -20 67 -31q34 -10 74 -10q51 0 95 16q45 15 82 43q37 26 64 66q27 39 42 86l3 9l-103 20
l-3 -11q-17 -63 -58 -96q-41 -34 -106 -34q-48 0 -86 27q-37 25 -48 74q-8 32 -2 64q4 33 22 65q16 29 42 52q22 20 56 35q30 13 67 13q63 0 96 -33q30 -34 24 -97v-11z" />
    <glyph glyph-name="uni0064" unicode="d" 
d="M510 252q-6 -36 -21 -66q-16 -31 -40 -52q-23 -22 -55 -34q-30 -13 -68 -13q-51 0 -85 25q-34 24 -43 74q-6 30 0 66q6 35 21 67q14 28 38 52q22 20 54 34q30 12 67 12q36 0 65 -12q55 -29 66 -87q2 -11 4 -31q0 -17 -3 -35zM543 458q-33 36 -72 46q-42 11 -85 11
q-57 0 -108 -20q-49 -21 -89 -56q-38 -35 -64 -84q-26 -50 -35 -103q-9 -51 2 -102q9 -41 28 -70q21 -32 47 -50q24 -19 62 -32q33 -10 73 -10q47 0 94 14q46 14 83 45l-7 -47h105l111 700h-107z" />
    <glyph glyph-name="uni0065" unicode="e" horiz-adv-x="611" 
d="M213 309q22 50 66 79q43 28 98 28t88 -24q34 -26 35 -83h-287zM600 241q4 21 5 34q1 5 2 16t2 16q2 32 -6 65q-7 36 -29 64q-21 27 -50 44q-30 17 -63 26q-37 8 -69 8q-55 0 -107 -20q-48 -18 -91 -55q-40 -34 -68 -82q-27 -48 -36 -103q-5 -29 -3 -55q1 -25 6 -51
q11 -42 32 -70q22 -31 51 -50q27 -20 65 -31q34 -10 75 -10q93 0 157 43q63 41 112 119l6 9l-96 39l-4 -9q-27 -49 -64 -76q-37 -26 -95 -26q-60 0 -97 33q-37 31 -39 94h400z" />
    <glyph glyph-name="uni0066" unicode="f" horiz-adv-x="482" 
d="M370 501q6 35 12 54q4 19 18 30q13 10 33 13t56 3h29q5 -1 14 -1h15h12l16 100h-14h-8q-5 0 -8 1h-17q-66 0 -109 -7q-47 -8 -78 -30q-32 -23 -51 -61q-20 -39 -30 -102h-157l-15 -96h157l-64 -405h111l64 405h168l15 96h-169z" />
    <glyph glyph-name="uni0067" unicode="g" 
d="M198 254q10 71 58 117q46 45 122 45q33 0 60 -10q29 -11 49 -35q9 -12 14 -24q6 -13 9 -27q6 -30 0 -66q-6 -37 -21 -65q-17 -30 -39 -51q-24 -23 -55 -33q-31 -12 -68 -12q-74 0 -107 45t-22 116zM478 52q-10 -72 -54 -111t-117 -39q-119 0 -153 106l-2 9l-106 -50l3 -9
q32 -83 95 -119t149 -36q57 0 106 18q47 17 88 50q39 35 64 78q25 44 34 100l71 452h-105l-7 -46q-32 35 -72 47t-87 12q-55 0 -106 -20q-48 -19 -89 -55q-39 -34 -65 -82q-26 -50 -35 -103q-4 -27 -3 -52q0 -24 5 -49q9 -39 29 -68q20 -31 48 -50q27 -19 62 -30
q32 -11 72 -11q51 0 93 13q43 13 82 45z" />
    <glyph glyph-name="uni0068" unicode="h" horiz-adv-x="635" 
d="M260 457l39 243h-106l-111 -700h106l40 251q11 71 54 116q44 45 117 45q62 0 86 -27q23 -27 14 -88l-47 -297h107l48 300q3 22 3 45q0 19 -5 41q-9 32 -26 57q-16 23 -41 39q-22 14 -53 22q-27 7 -61 7q-46 0 -87 -12q-41 -14 -77 -42z" />
    <glyph glyph-name="uni0069" unicode="i" horiz-adv-x="268" 
d="M220 543q34 0 59 22q27 22 31 53q4 32 -15 54q-18 21 -51 21q-32 0 -58 -21q-28 -23 -32 -54q-6 -31 14 -54q20 -21 52 -21zM81 0h106l79 501h-106z" />
    <glyph glyph-name="uni006A" unicode="j" horiz-adv-x="272" 
d="M224 543q34 0 60 21q26 20 30 54q5 32 -14 54q-18 21 -52 21q-32 0 -58 -21q-28 -23 -32 -54q-6 -31 14 -54q20 -21 52 -21zM272 501h-110l-1 -9q-7 -47 -20.5 -134t-19.5 -126q-13 -87 -41 -261q-1 -16 -8 -32q-7 -15 -22 -25q-8 -2 -11 -2h-13h-31q-5 1 -16 1h-15h-10
l-16 -100h42h27q29 0 40 1q17 2 32 6t29 14q14 9 30 24q29 29 40 63q10 31 16 75q11 67 40 248q13 82 37 248z" />
    <glyph glyph-name="uni006B" unicode="k" horiz-adv-x="632" 
d="M233 286l66 414h-106l-111 -700h106l24 153l95 70l144 -223h132l-186 289l288 212h-163z" />
    <glyph glyph-name="uni006C" unicode="l" horiz-adv-x="270" 
d="M299 700h-106l-111 -700h106z" />
    <glyph glyph-name="uni006D" unicode="m" horiz-adv-x="874" 
d="M261 474l4 27h-104l-79 -501h106l47 299q7 50 41 82q31 31 84 31q41 0 63 -19q23 -20 16 -63l-52 -330h106l47 299q7 50 41 82q31 31 84 31q41 0 63 -19q23 -20 16 -63l-52 -330h106l53 335q6 38 -2 74q-16 54 -61 79q-44 23 -98 23q-49 0 -90 -16q-43 -16 -76 -51
q-21 37 -57 52t-77 15q-33 0 -67 -8q-33 -9 -62 -29z" />
    <glyph glyph-name="uni006E" unicode="n" horiz-adv-x="635" 
d="M258 455l7 46h-104l-79 -501h106l40 251q11 71 54 116q44 45 117 45q62 0 86 -27q23 -27 14 -88l-47 -297h107l48 300q3 22 3 45q0 19 -5 41q-9 32 -26 57q-16 23 -41 39q-22 14 -53 22q-27 7 -61 7q-95 0 -166 -56z" />
    <glyph glyph-name="uni006F" unicode="o" horiz-adv-x="614" 
d="M379 416q77 0 110 -46q32 -45 21 -119q-6 -36 -21 -66q-15 -31 -39 -52q-23 -22 -55 -34q-30 -13 -68 -13q-76 0 -109 47q-34 47 -22 118q6 37 22 66q15 29 39 52q22 21 55 35q31 12 67 12zM311 -13q62 0 112 20q51 19 92 54q40 34 67 84q26 50 35 106q9 54 -2 105
q-20 83 -80 121q-59 37 -141 37q-57 0 -109 -20q-49 -18 -92 -55q-39 -33 -67 -83q-27 -48 -36 -105t2 -105q11 -41 31 -70q20 -28 50 -49q29 -20 64 -30q33 -10 74 -10z" />
    <glyph glyph-name="uni0070" unicode="p" 
d="M228 251q6 37 22 66q15 29 39 52q22 20 56 35q32 12 67 12q52 0 85 -24q32 -24 43 -75q6 -30 0 -66q-12 -72 -59 -119q-46 -46 -121 -46q-48 0 -86 26t-45 74q-3 15 -3 32q-1 15 2 33zM195 45q30 -32 73 -46q40 -12 85 -12q59 0 109 21q49 19 89 56q39 36 64 84
q25 47 34 103q5 30 5 53q-1 25 -6 49q-9 42 -28 71q-21 32 -47 50q-29 20 -63 30q-33 10 -74 10q-52 0 -94 -13q-41 -13 -84 -46l7 46h-104l-108 -685h106z" />
    <glyph glyph-name="uni0071" unicode="q" 
d="M198 251q6 35 21 67q14 28 38 52q22 20 54 34q30 12 67 12q36 0 65 -12q55 -28 66 -87q2 -11 4 -31q0 -17 -3 -35q-6 -36 -21 -66q-16 -31 -40 -52q-23 -22 -55 -34q-30 -13 -68 -13q-51 0 -85 25q-33 23 -44 74q-5 33 1 66zM544 455q-32 35 -72 47t-87 12
q-56 0 -107 -20q-49 -21 -89 -56q-38 -35 -64 -84q-26 -50 -35 -103q-9 -51 2 -102q7 -38 28 -70t47 -50q24 -19 62 -32q33 -10 73 -10q51 0 93 13q43 13 82 45l-36 -229h107l108 685h-105z" />
    <glyph glyph-name="uni0072" unicode="r" horiz-adv-x="409" 
d="M429 400l16 101h-53q-32 0 -64 -3q-30 -3 -63 -17l3 20h-106l-79 -501h105l29 184q2 13 6 37t7 37q8 38 12 73q5 24 17 36q14 14 33 23q9 4 20 7q14 4 22 5q22 3 43 3q14 0 21 -1l21 -3z" />
    <glyph glyph-name="uni0073" unicode="s" horiz-adv-x="594" 
d="M515 306l100 47l-4 9q-12 30 -19 43q-13 24 -20 34q-21 27 -45 42q-25 16 -51 23q-27 7 -56 9q-19 1 -60 1q-36 0 -73 -9q-36 -9 -68 -27q-33 -20 -54 -47q-22 -28 -28 -68q-4 -17 -2 -37q1 -16 8 -31q9 -22 27 -35q16 -15 39 -24q23 -11 46 -15q22 -6 44 -9q5 0 15 -1.5
t16 -2.5q23 -4 31 -5q6 -1 15.5 -2.5t13.5 -1.5q16 -3 25 -7q23 -6 33.5 -16t8.5 -24q-2 -16 -12 -26q-10 -11 -24 -19q-13 -7 -29 -12t-30 -6q-21 -3 -37 -3q-67 0 -104 32q-36 30 -50 98l-2 9l-104 -39l1 -8q19 -94 84 -142q64 -49 159 -49q39 0 83 9q42 10 78 30
q35 19 62 52q24 30 32 75q8 37 -6 66q-11 22 -28 35q-20 15 -39 23q-25 10 -45 14q-30 6 -45 8q-3 1 -8 1t-8 1t-8 2t-8 1q-21 2 -42 6q-24 3 -42 10q-46 13 -41 45q3 18 14 29q9 8 27 16q20 6 30 7t31 1q36 0 65 -3q23 -4 40 -12q15 -7 28 -20q13 -17 19 -30q8 -19 14 -38z
" />
    <glyph glyph-name="uni0074" unicode="t" horiz-adv-x="487" 
d="M520 501h-157l27 165h-110l-27 -165h-148l-15 -96h148l-28 -180q-1 -3 -1 -9q-1 -1 -1 -5t-1 -5q-1 -2 -2 -5.5t-1 -4.5q0 -2 -0.5 -5.5t-1.5 -5.5q-9 -55 -4 -95q4 -33 24 -51q20 -19 45 -27q24 -8 56 -10q40 -2 56 -2h62l16 99h-60q-31 0 -61 3q-20 3 -25 9q-5 7 -4 28
q0 17 4 28q1 2 1 6.5t1 7.5q0 3 2 13l33 211h157z" />
    <glyph glyph-name="uni0075" unicode="u" horiz-adv-x="635" 
d="M455 46l-7 -46h105l79 501h-107l-39 -250q-6 -37 -19 -65q-13 -29 -35 -51t-51 -34q-30 -12 -66 -12q-120 0 -100 116l46 296h-106l-47 -300q-8 -51 2 -85q7 -32 25 -56q16 -23 41 -39q21 -13 54 -23q27 -7 60 -7q47 0 87 13q42 14 78 42z" />
    <glyph glyph-name="uni0076" unicode="v" horiz-adv-x="592" 
d="M318 138l-92 363h-115l133 -501h104l291 501h-115z" />
    <glyph glyph-name="uni0077" unicode="w" horiz-adv-x="844" 
d="M477 346l59 -346h118l217 501h-111l-144 -339l-58 339h-114l-165 -339l-38 339h-110l58 -501h119z" />
    <glyph glyph-name="uni0078" unicode="x" horiz-adv-x="681" 
d="M370 185l126 -185h139l-175 256l247 245h-138l-176 -176l-123 176h-138l172 -245l-258 -256h139z" />
    <glyph glyph-name="uni0079" unicode="y" horiz-adv-x="618" 
d="M332 147l-105 354h-116l145 -476l-132 -209h117l424 685h-116z" />
    <glyph glyph-name="uni007A" unicode="z" horiz-adv-x="571" 
d="M142 501l-15 -96h298l-359 -329l-12 -76h473l15 97h-315l360 329l11 75h-456z" />
    <glyph glyph-name="uni007B" unicode="{" horiz-adv-x="418" 
d="M383 701h106l15 97h-123q-38 0 -67 -24q-29 -26 -35 -63l-58 -363h-76l-19 -124h76l-58 -363q-6 -37 16 -63q22 -24 59 -24h123l15 96h-106l55 344q3 14 1 38q-3 21 -17 34q18 15 26 32t13 39z" />
    <glyph glyph-name="uni007D" unicode="}" horiz-adv-x="418" 
d="M257 701l-54 -344q-3 -17 0 -37q1 -20 15 -34q-18 -13 -26 -33q-9 -19 -12 -39l-55 -344h-106l-15 -96h122q39 0 69 24q29 26 35 63l58 363h76l19 124h-76l58 363q6 36 -17 62q-21 25 -60 25h-122l-15 -97h106z" />
    <glyph glyph-name="uni007E" unicode="~" horiz-adv-x="688" 
d="M458 347l-3 3q-1 1 -3 5q-12 26 -22 42q-11 18 -35 31q-17 6 -36 6q-21 0 -36 -7q-20 -9 -34 -18q-6 -4 -10 -7q-4 -2 -5 -3l-4 -4l-111 -78l60 -74l117 86q1 0 3 2h1q1 1 2 1q0 -2 4 -9q3 -4 7 -14q11 -29 35 -49q16 -16 50 -16q25 0 47 13q19 11 22 13q14 8 21 13
l109 78l-58 74l-114 -83q-1 -1 -2 -1l-1 -1q-2 0 -2 -1q-2 0 -2 -2z" />
    <glyph glyph-name="uni00A2" unicode="&#xa2;" horiz-adv-x="662" 
d="M239 412q4 30 17 64q10 30 29 57q20 29 43 46q25 19 59 28l-81 -513q-47 14 -67 50q-22 37 -23 81q-2 36 4 63zM674 419l2 9q9 54 6 102q-4 80 -49 125q-45 43 -123 54l16 98h-107l-16 -98q-57 -9 -105 -35q-46 -27 -81 -66q-35 -40 -57 -90q-21 -47 -31 -106l-19 -124
q-4 -27 -6 -53q-1 -23 2 -51q10 -81 57 -131t127 -62l-16 -98h107l16 98q104 17 168 82q65 66 81 169l8 45h-110l-2 -10q-6 -33 -12 -63q-12 -49 -39 -79q-29 -31 -78 -42l81 514q46 -10 63 -43q15 -32 14 -75q0 -19 -1 -29q0 -6 -2 -16t-2 -16l-2 -9h110z" />
    <glyph glyph-name="uni00A3" unicode="&#xa3;" horiz-adv-x="661" 
d="M129 397l-16 -101h67l-31 -196h-71l-16 -100h527l16 100h-346l31 196h135l16 101h-135l14 91q10 58 43 92q31 33 93 33q60 0 84 -33q23 -36 12 -92l-12 -81h110l13 83q17 102 -33 164q-51 59 -158 59q-108 0 -175 -58q-70 -59 -86 -165l-15 -93h-67z" />
    <glyph glyph-name="uni00A5" unicode="&#xa5;" horiz-adv-x="674" 
d="M396 372l-149 328h-108l162 -351h-111l-12 -79h156l-4 -21h-156l-12 -80h156l-27 -169h92l27 169h156l12 80h-156l4 21h156l12 79h-111l274 351h-108z" />
    <glyph glyph-name="uni00A6" unicode="&#xa6;" horiz-adv-x="270" 
d="M241 337l73 461h-106l-73 -461h106zM119 235l-73 -461h106l73 461h-106z" />
    <glyph glyph-name="uni00A9" unicode="&#xa9;" horiz-adv-x="755" 
d="M128 356q0 56 18 106q16 48 50 85q34 36 80 55q48 20 103 20q59 0 107 -20q46 -21 79 -57q33 -38 49 -84q16 -48 16 -105t-17 -106q-18 -49 -50 -84q-34 -37 -79 -56q-48 -20 -105 -20q-61 0 -107 21q-47 20 -79 56q-31 35 -48 84t-17 105zM28 356q0 -78 26 -144
q25 -65 73 -113t111 -73q66 -26 141 -26q81 0 145 27q63 26 110 75q44 44 71 112q24 64 24 142q0 81 -25 146q-26 66 -72 112q-49 49 -110 73q-66 26 -143 26q-79 0 -144 -27t-111 -75q-44 -46 -71 -113q-25 -63 -25 -142zM210 288q0 -82 45 -130t129 -48q75 0 121 44
q44 44 44 120v47h-110v-48q-1 -27 -13 -45q-11 -17 -43 -17q-29 0 -46 18q-17 19 -17 47v144q0 32 15 51q15 20 48 20q17 0 29 -4t20 -19q5 -11 6 -26q1 -5 1 -17v-19v-28h110v48q0 76 -45 121q-46 45 -122 45q-41 0 -74 -14q-32 -14 -54 -39q-23 -26 -33 -58
q-11 -36 -11 -73v-120z" />
    <glyph glyph-name="guillemotleft" unicode="&#xab;" horiz-adv-x="813" 
d="M243 251l256 128l16 99h-43l-351 -183l-14 -89l293 -183h43l16 100zM538 251l257 128l16 99h-43l-351 -183l-14 -89l293 -183h43l16 100z" />
    <glyph glyph-name="uni00AC" unicode="&#xac;" horiz-adv-x="661" 
d="M149 300h356l-9 -52h103l24 152h-459z" />
    <glyph glyph-name="uni00AE" unicode="&#xae;" horiz-adv-x="648" 
d="M234 380q-56 38 -56 118q0 81 56 117v-235zM344 454q1 0 1 -1v-77h62q-35 -20 -83 -20t-83 20h69v78h34zM338 553q15 0 15 -14q0 -15 -15 -15h-28v29h28zM248 623q31 16 76 16q66 0 107 -36q39 -36 39 -105q0 -34 -11 -62q-12 -28 -38 -51v70q0 23 -14 37q22 21 22 54
q0 36 -29 59q-16 11 -30 15q-14 3 -33 3h-89zM548 498q0 47 -17 89q-18 38 -48 67q-30 27 -71 44q-40 15 -88 15t-89 -15q-43 -18 -71 -44q-30 -29 -47 -68q-17 -42 -17 -88q0 -48 18 -88q16 -39 48 -68q31 -29 71 -44q39 -16 87 -16q50 0 89 16q41 17 71 45q31 30 47 68
q17 42 17 87z" />
    <glyph glyph-name="uni00B0" unicode="&#xb0;" horiz-adv-x="420" 
d="M307 614q21 0 35 -11q10 -13 6 -34q-7 -46 -55 -46q-21 0 -33 13q-11 11 -8 33q4 22 19 34q16 11 36 11zM277 423q30 0 61 11q28 10 54 31t41 46q17 27 21 58q6 30 -2 60q-13 44 -49 66q-35 20 -80 20q-30 0 -61 -11q-30 -10 -54 -30q-22 -18 -40 -47t-22 -58
q-5 -34 4 -57q6 -21 19 -37q15 -19 30 -28q16 -11 37 -18q20 -6 41 -6z" />
    <glyph glyph-name="guillemotright" unicode="&#xbb;" horiz-adv-x="813" 
d="M350 251l-256 -128l-16 -100h43l351 183l14 89l-293 183h-43l-16 -99zM646 251l-256 -128l-16 -100h42l352 183l14 89l-294 183h-42l-16 -99z" />
    <glyph glyph-name="uni00BF" unicode="&#xbf;" 
d="M419 502q-61 0 -71 -58q-5 -30 9 -44q17 -14 43 -14q61 0 70 58q10 58 -51 58zM593 22l10 69h-110l-1 -9l-3 -18q0 -3 -0.5 -8.5t-1.5 -8.5q-12 -78 -56 -111q-45 -33 -119 -33q-37 0 -73 11q-35 12 -54 48q-10 17 -5 49q4 30 17 50q10 17 29 32q15 13 39 22q30 12 47 17
q30 10 51 21q20 10 36 26q14 16 23 36q9 26 13 52l15 93h-110l-2 -10q0 -2 -1 -7t-1 -8q-1 -5 -1 -15q-2 -10 -2 -15l-3 -15q-1 -3 -1 -10q-1 -4 -3 -14q-1 -3 -2.5 -8t-1.5 -6q-1 -4 -5 -10q-2 -4 -12 -8q-1 -1 -5 -3q-3 -1 -7 -3q-37 -15 -79 -33q-40 -19 -67 -42
q-30 -26 -49 -57q-21 -37 -28 -82q-7 -52 8 -94q14 -32 38 -55q22 -22 53 -36q30 -14 62 -20q33 -6 65 -6q56 0 104 13t90 41q37 26 67 68q27 40 36 97z" />
    <glyph glyph-name="uni00D7" unicode="&#xd7;" horiz-adv-x="665" 
d="M200 498l128 -148l-175 -147l52 -60l174 149l127 -149l70 60l-129 147l176 148l-52 59l-173 -148l-128 148z" />
    <glyph glyph-name="uni00F7" unicode="&#xf7;" horiz-adv-x="648" 
d="M436 207q4 31 -15 54q-19 22 -52 22q-35 0 -60 -21q-27 -22 -31 -55q-4 -31 14 -54q19 -22 53 -22q33 0 59 22q28 21 32 54zM481 493q5 33 -14 55t-53 22t-59 -22q-28 -23 -32 -55q-5 -32 16 -54q18 -22 51 -22q34 0 60 22q27 22 31 54zM163 392l-13 -84h446l13 84h-446z
" />
    <glyph glyph-name="uni0335" unicode="&#x335;" horiz-adv-x="0" 
d="M-284 628l-15 -95h323l16 95h-324z" />
    <glyph glyph-name="uni0336" unicode="&#x336;" horiz-adv-x="0" 
d="M30 566h-634l-16 -97h634z" />
    <glyph glyph-name="uni0337" unicode="&#x337;" horiz-adv-x="0" 
d="M-70 562l-301 -599l95 -30l300 599z" />
    <glyph glyph-name="uni0338" unicode="&#x338;" horiz-adv-x="0" 
d="M-39 772l-414 -824l97 -30l413 823z" />
    <glyph glyph-name="uni2013" unicode="&#x2013;" horiz-adv-x="652" 
d="M116 214h488l16 101h-488z" />
    <glyph glyph-name="uni2014" unicode="&#x2014;" horiz-adv-x="944" 
d="M116 214h780l16 101h-780z" />
    <glyph glyph-name="uni2018" unicode="&#x2018;" horiz-adv-x="258" 
d="M233 622l2 16q0 1 2 3v1q1 1 6 1h59l11 72h-57q-37 0 -65 -20q-28 -21 -34 -60l-13 -82q-6 -31 13 -50q17 -21 48 -21t56 20t29 51q5 29 -12 49q-17 19 -45 20z" />
    <glyph glyph-name="uni2019" unicode="&#x2019;" horiz-adv-x="258" 
d="M215 575l-2 -15q-1 -4 -2 -5h-3q-1 -1 -3 -1h-59l-12 -72h58q39 0 66 21t33 60l13 81q5 32 -12 52q-18 19 -50 19q-33 0 -55 -19q-24 -20 -29 -52q-4 -27 12 -48q16 -20 45 -21z" />
    <glyph glyph-name="uni201A" unicode="&#x201a;" horiz-adv-x="258" 
d="M122 -11l-2 -15l-2 -6h-6h-59l-11 -72h58q37 0 65 20q27 21 33 60l13 82q6 31 -12 52q-16 19 -50 19q-32 0 -55 -19q-24 -20 -29 -52q-4 -28 13 -48q13 -19 44 -21z" />
    <glyph glyph-name="uni201C" unicode="&#x201c;" horiz-adv-x="394" 
d="M285 590q-14 30 -52 32l2 16q0 1 2 3v1q1 1 6 1h52q-2 -6 -2 -8zM371 638q0 1 2 3v1q1 1 6 1h59l11 72h-57q-26 0 -48 -9q-24 -11 -37 -33l6 42h-57q-37 0 -65 -20q-28 -21 -34 -60l-13 -82q-6 -31 13 -50q17 -21 48 -21q24 0 44 13q21 12 32 32q3 -18 21 -32
q16 -13 39 -13q31 0 56 20t29 51q5 29 -12 49q-17 19 -45 20z" />
    <glyph glyph-name="uni201D" unicode="&#x201d;" horiz-adv-x="394" 
d="M348 555h-3q-1 -1 -3 -1h-52l8 54q17 -30 53 -33zM303 672q-1 8 -7 18q-5 8 -12 14q-17 11 -42 11q-33 0 -55 -19q-24 -20 -29 -52q-4 -27 12 -48q16 -20 45 -21l-2 -15q-1 -4 -2 -5h-3q-1 -1 -3 -1h-59l-12 -72h58q27 0 48 10q22 10 37 33l-7 -43h58q39 0 66 21t33 60
l13 81q5 32 -12 52q-18 19 -50 19q-23 0 -43 -11q-21 -12 -32 -32z" />
    <glyph glyph-name="uni201E" unicode="&#x201e;" horiz-adv-x="394" 
d="M255 -31q-1 -1 -6 -1h-52l8 53q15 -30 53 -32zM211 85q-5 23 -22 34q-16 10 -40 10q-32 0 -55 -19q-24 -20 -29 -52q-4 -28 13 -48q13 -19 44 -21l-2 -15l-2 -6h-6h-59l-11 -72h58q26 0 47 9q20 8 37 32l-6 -41h58q37 0 65 20q27 21 33 60l13 82q6 31 -12 52
q-16 19 -50 19q-23 0 -42 -12q-21 -12 -32 -32z" />
    <glyph glyph-name="uni2022" unicode="&#x2022;" horiz-adv-x="360" 
d="M216 227q26 0 50 10q24 9 45 26q20 17 34 40t18 47q5 29 -2 48q-11 35 -41 55q-31 20 -65 20q-25 0 -50 -9q-25 -10 -45 -27q-22 -18 -34 -39q-14 -21 -19 -48q-3 -27 4 -47l9 -21q4 -10 13 -19q14 -17 37 -26q19 -10 46 -10z" />
    <glyph glyph-name="uni2032" unicode="&#x2032;" horiz-adv-x="373" 
d="M240 700l-56 -277h85l103 277h-132z" />
    <glyph glyph-name="uni2033" unicode="&#x2033;" horiz-adv-x="498" 
d="M241 700l-56 -277h85l83 223l-45 -223h86l103 277h-256z" />
    <glyph glyph-name="uni2039" unicode="&#x2039;" horiz-adv-x="525" 
d="M240 251l267 127l16 100h-33h-8q-1 0 -3.5 -0.5t-3.5 -1.5l-354 -181l-14 -89l297 -180q6 -2 7 -2q1 -1 6 -1h34l16 100z" />
    <glyph glyph-name="uni203A" unicode="&#x203a;" horiz-adv-x="525" 
d="M366 251l-268 -128l-16 -100h33q9 0 14 3l355 180l14 89l-298 181q-1 0 -3 1q-1 1 -2 1h-41l-16 -100z" />
    <glyph glyph-name="uni2044" unicode="&#x2044;" horiz-adv-x="681" 
d="M424 443l69 -55l267 267l-80 64zM367 257l-68 55l-267 -267l79 -64z" />
    <glyph glyph-name="Euro" unicode="&#x20ac;" horiz-adv-x="693" 
d="M616 430h91l2 10q9 58 4 113q-8 47 -26 77q-19 29 -48 49q-30 19 -66 26q-40 8 -78 8q-62 0 -116 -20q-51 -19 -92 -55q-40 -36 -67 -85q-27 -50 -41 -109h-77l-12 -80h76l-3 -20h-76l-13 -80h76q-6 -63 4 -110q9 -44 30 -75q20 -33 50 -52q29 -20 67 -31q37 -9 79 -9
q59 0 110 18q50 18 89 51q39 34 64 80q25 45 34 103l6 36h-91l-6 -36q-13 -85 -60 -127q-46 -42 -133 -42q-58 0 -99 29q-42 29 -49 88q-8 35 -3 77h202l13 80h-202l3 20h202l12 80h-201q11 43 28 76q16 31 44 59q26 24 61 38q33 13 78 13q60 0 98 -25t42 -87q2 -40 -4 -78z
" />
    <glyph glyph-name="uni2122" unicode="&#x2122;" horiz-adv-x="646" 
d="M356 531l24 -79h86l24 79v-79h76v248h-101l-42 -136l-42 136h-315v-70h74v-178h76v178h64v-178h76v79z" />
    <glyph glyph-name="arrowleft" unicode="&#x2190;" horiz-adv-x="830" 
d="M273 310l188 157l-64 73l-301 -251l-10 -60l222 -251l87 73l-138 157h556l16 102h-556z" />
    <glyph glyph-name="arrowup" unicode="&#x2191;" horiz-adv-x="681" 
d="M482 538l139 -156l86 73l-221 251h-62l-302 -251l65 -73l187 156l-85 -538h108z" />
    <glyph glyph-name="arrowright" unicode="&#x2192;" horiz-adv-x="830" 
d="M639 208l-188 -157l65 -73l300 251l10 60l-221 251l-88 -73l138 -157h-556l-16 -102h556z" />
    <glyph glyph-name="arrowdown" unicode="&#x2193;" horiz-adv-x="681" 
d="M315 162l-139 156l-87 -73l222 -251h62l301 251l-64 73l-187 -156l85 538h-108z" />
    <glyph glyph-name="uni2196" unicode="&#x2196;" horiz-adv-x="658" 
d="M326 399h230l18 102h-370l-51 -43l-57 -355l107 2l35 221l308 -349l88 74z" />
    <glyph glyph-name="uni2197" unicode="&#x2197;" horiz-adv-x="658" 
d="M524 326l-35 -221l105 -2l57 355l-39 43h-369l-14 -102h229l-418 -348l65 -74z" />
    <glyph glyph-name="uni2198" unicode="&#x2198;" horiz-adv-x="658" 
d="M411 102h-229l-18 -102h369l52 43l56 355l-106 -2l-35 -220l-308 348l-89 -74z" />
    <glyph glyph-name="uni2199" unicode="&#x2199;" horiz-adv-x="658" 
d="M214 176l35 220l-106 2l-56 -355l38 -43h370l14 102h-230l418 348l-64 74z" />
    <glyph glyph-name="uni2212" unicode="&#x2212;" horiz-adv-x="648" 
d="M163 392l-13 -84h446l13 84h-446z" />
    <glyph glyph-name="uni2248" unicode="&#x2248;" horiz-adv-x="688" 
d="M469 420q-3 3 -5 9q-3 7 -16 30q-9 16 -18 25t-25 18q-13 6 -34 6q-27 0 -49 -12q-30 -18 -44 -28l-107 -78l59 -74l112 84q2 0 4 2t3 2q0 1 2 1q1 -1 3 -4q0 -1 2 -5q6 -10 8 -14q2 -8 6 -15q-10 3 -21 3q-27 0 -49 -12q-30 -18 -44 -28l-107 -78l59 -74l113 84q1 0 1 1
l2 1q2 3 5 3q3 -3 5 -9q0 -1 1.5 -3t2.5 -3q0 -2 1.5 -4t2.5 -4q14 -29 33 -47t52 -18q27 0 49 13q24 13 44 27l107 78l-59 74l-112 -83q-2 -1 -4 -3q0 -1 -1 -1t-2 -1q-5 1 -7 8q-3 5 -7 15q-4 7 -7 14q9 -3 21 -3q27 0 49 13q24 13 44 27l107 78l-59 74l-113 -84
q-1 0 -3 -2t-5 -3z" />
    <glyph glyph-name="_FSHallmark" horiz-adv-x="754" 
d="M619 388q0 13 -11 24q-1 1 -4 3q0 1 -2 2l-2 1l-2 1l-2 1q-1 0 -2.5 0.5t-2.5 1.5l-18 6q-16 0 -23 -1q-11 -2 -22 -8q-16 -10 -16 -22q0 -23 14 -31q16 -9 34 -13l27 -6l12 -3q8 -2 11 -3q8 -1 12 -3q1 0 4.5 -1t5.5 -1q1 -1 5 -1t5 -1l9 -3q1 -1 2 -1t2 -1q0 -1 2 -1
q1 0 2 -1t2 -1t2 -1t2 -1t2 -1q15 -9 24 -21q7 -14 9 -33q1 -21 -8 -38q-20 -32 -55 -44q-36 -12 -72 -12t-72 15t-54 49q-13 19 -13 49l73 -1q0 -3 3 -11q2 -11 11 -19q10 -10 19 -14q13 -7 36 -7q25 0 40 9q15 7 15 19q0 22 -60 36q-56 14 -92 33q-38 20 -38 63
q0 38 24 57t56 30q24 6 52 6q39 0 72 -13q34 -14 50 -51q8 -24 8 -37h-76zM329 213q0 16 11 27q10 10 27 10q16 0 30 -11q12 -11 12 -26t-12 -26q-13 -10 -30 -10q-15 0 -26 11q-12 11 -12 25zM701 529h-630v74h630v-74zM305 277h-151v-102h-83v313h265v-71h-182v-70h151
v-70zM700 61h-631v75h631v-75z" />
    <glyph glyph-name="_Fontastica" horiz-adv-x="754" 
d="M216 53v1q0 6 -3 10q-4 4 -11 4q-1 -1 -3 -1q-4 -1 -8 -7t-1 -11q3 -10 13 -10q3 0 4 1q9 2 9 13zM377 65l-8 -16h15q-2 1 -3 6l-2 6q-1 1 -1 2t-1 2zM634 65l-7 -16h14q-1 1 -1 4q-1 1 -1 2t-1 2t-1 2t-1 2t-1 2t-1 2zM203 76q15 0 22 -12q6 -8 2 -20q-5 -12 -19 -13h-2
q-1 -1 -2 -1l-2 -1q-6 0 -9 3q-14 6 -14 19q0 11 7 18q6 7 17 7zM279 46v30h9v-44h-3q-1 -1 -3 -1t-7 5q-1 1 -1 2l-1 1q-1 1 -1 2l-1 1q-1 1 -1 2l-1 1q-1 1 -1 2l-1 1q-1 1 -3 4l-1 1q-1 1 -1 2l-4 4v-27h-10v44h8q3 -1 5 -6l5 -5l4 -4l1 -2l1 -1q0 -2 1 -2q1 -1 1 -2
q0 -2 1 -2t1 -1t1 -2l1 -1q0 -2 1 -2zM365 34l-2 -2h-9l18 42h10q2 -5 5 -10q5 -8 9 -21q1 -1 1 -3t1 -3t1 -3q0 -1 1 -2h-10q-1 1 -1 4q0 -2 -1 1l-1 4h-20q-1 -1 -1 -5q-1 -1 -1 -2zM444 55q9 -1 9 -10q2 -8 -8 -13q-1 -1 -8 -1q-14 0 -21 7q1 1 1 2l1 1q0 2 1 3l14 -4h6
q3 3 3 2q0 8 -10 9q-1 0 -2 1t-4 1q-7 1 -7 10q-1 7 6 11q2 0 5 1q2 1 4 1h1q11 0 18 -4l-4 -8q-1 1 -3 1q-1 0 -2 1t-3 1q-1 0 -2 1h-6q-3 0 -3 -3q-2 -1 3 -6q1 -1 4 -1q2 0 3 -1t2 -1t2 -1zM569 63q-5 -3 -5 -8q0 -7 4 -11q3 -4 9 -4q7 0 14 4l4 -4q-6 -9 -18 -9
q-8 0 -16 5q-6 8 -7 16q-1 10 6 17q8 8 17 8q10 0 18 -8l-4 -6q-5 5 -12 5h-2q-6 -2 -8 -5zM628 76h12l9 -21q1 -1 1 -2t0.5 -1.5t0.5 -1.5q2 -4 3 -7q2 -8 5 -11h-10l-4 9h-21l-4 -9h-10q10 19 18 44zM218 549v-210h295v-79h-295v-147h-87q-1 1 -1 4v510h382v-78h-294z
M273 114v78h296v210h-296v79h296v146h87v-513h-383zM162 56v-7h-20v-17h-11v44h32v-8h-21v-12h20zM330 68v-36h-9v36h-14v8h37v-8h-14zM492 68v-36h-10v36h-14v8h38v-8h-14zM524 32v44h11v-44h-11z" />
    </font>
</defs>
</svg>
