<?xml version="1.0" standalone="no"?>
<!DOCTYPE svg PUBLIC "-//W3C//DTD SVG 1.1//EN" "http://www.w3.org/Graphics/SVG/1.1/DTD/svg11.dtd" >
<svg xmlns="http://www.w3.org/2000/svg" xmlns:xlink="http://www.w3.org/1999/xlink" version="1.1">
<metadata>
Created by FontForge 20170731 at Fri Sep 21 21:35:13 2018
 By Aleksey,,,
Copyright (c) 2018 by Fontastica. All rights reserved.
</metadata>
<defs>
<font id="MriyaGrotesk-Heavy" horiz-adv-x="659" >
  <font-face 
    font-family="Mriya Grotesk Heavy"
    font-weight="900"
    font-stretch="normal"
    units-per-em="1000"
    panose-1="0 0 10 0 0 0 0 0 0 0"
    ascent="800"
    descent="-200"
    x-height="501"
    cap-height="700"
    bbox="-694 -228 947 807"
    underline-thickness="50"
    underline-position="-200"
    unicode-range="U+0020-2248"
  />
<missing-glyph horiz-adv-x="840" 
 />
    <glyph glyph-name=".notdef" horiz-adv-x="840" 
 />
    <glyph glyph-name=".null" horiz-adv-x="0" 
 />
    <glyph glyph-name="nonmarkingreturn" horiz-adv-x="333" 
 />
    <glyph glyph-name="uni0020" unicode=" " horiz-adv-x="330" 
 />
    <glyph glyph-name="uni0022" unicode="&#x22;" horiz-adv-x="394" 
d="M197 672q8 20 27 32q19 11 41 11q33 0 53 -19q20 -20 20 -52v-81q0 -39 -24 -60t-62 -21h-58v43q-11 -22 -30 -32q-22 -11 -48 -11h-58v72h59q2 0 3 1h3q1 1 1 5v15q-28 1 -48 21t-20 48q0 32 21 51q20 20 52 20q24 0 43 -11q18 -13 25 -32zM260 575q-20 2 -34 10
q-14 9 -24 23v-45v-9h52q2 0 3 1h3v5v15z" />
    <glyph glyph-name="uni0023" unicode="#" horiz-adv-x="657" 
d="M44 407v97h129v196h106v-196h99v196h106v-196h129v-97h-129v-114h129v-97h-129v-196h-106v196h-99v-196h-106v196h-129v97h129v114h-129zM378 407h-99v-114h99v114z" />
    <glyph glyph-name="uni0024" unicode="$" horiz-adv-x="652" 
d="M485 425l1 10q0 41 -1 60q-1 25 -11 49q-8 20 -29 38q-19 15 -57 24v-206q44 -11 78 -25q36 -14 66 -38q29 -24 45 -58q17 -36 17 -85q0 -44 -17 -80q-17 -34 -45 -60q-30 -26 -66 -41q-36 -16 -78 -22v-98h-107v98q-112 13 -171 82q-60 67 -60 180v53h110v-36
q0 -30 5 -62q4 -28 19 -53q14 -23 37 -39t60 -24v229q-39 10 -76 24q-34 13 -63 37q-28 22 -44 56q-17 34 -17 82q0 43 18 76q17 34 45 56q30 24 64 38q40 15 73 19v98h107v-98q100 -17 154 -71q54 -56 54 -155v-58h-111zM281 608q-34 -7 -63 -31q-27 -24 -27 -60
q0 -21 7 -34q7 -15 19 -25q11 -10 29 -18q15 -7 35 -13v181zM388 93q42 11 69 36q27 26 27 68q0 18 -8 36q-8 15 -21 27q-16 12 -30 20q-24 10 -37 14v-201z" />
    <glyph glyph-name="uni0025" unicode="%" horiz-adv-x="825" 
d="M98 45l237 288q36 44 55 66q28 31 54 66l189 246l6 8l89 -64l-7 -8q-18 -22 -51.5 -62t-48.5 -57q-73 -86 -100 -119q-31 -36 -54 -67q-8 -11 -25.5 -33.5t-26.5 -34.5l-229 -292zM243 346q-84 0 -133 46q-50 45 -50 128v18q0 83 49 129t134 46q84 0 133 -46t49 -129v-18
q0 -83 -49 -128q-49 -46 -133 -46zM164 517q0 -76 79 -76q78 0 78 76v25q0 76 -78 76q-79 0 -79 -76v-25zM582 354q84 0 133 -46q50 -47 50 -129v-17q0 -84 -49 -129q-49 -46 -134 -46q-83 0 -132 46q-50 45 -50 129v17q0 83 49 129t133 46zM661 184q0 75 -79 75
q-39 0 -58 -19q-20 -20 -20 -56v-26q0 -37 20 -57q19 -19 58 -19q79 0 79 76v26z" />
    <glyph glyph-name="uni0026" unicode="&#x26;" horiz-adv-x="757" 
d="M490 84q-42 -46 -93 -72q-54 -26 -118 -26q-45 0 -85 15q-41 15 -71 42q-30 26 -49 65q-18 38 -18 84q0 31 7 58q8 32 22 55q14 26 36 47q20 20 49 34q-28 25 -43 66q-16 39 -16 78q0 44 19 78t49 56q31 23 69 35t78 12q38 0 74 -12q35 -13 64 -36q27 -24 44 -56
q17 -34 17 -73q0 -34 -12 -63t-32 -52t-47 -42q-26 -17 -56 -30l95 -102l101 186h122l-145 -262l180 -169h-151zM222 532q0 -36 21 -62q21 -27 51 -46q32 12 42 17q19 9 41 24q18 13 31 30q12 17 12 37q0 18 -9 32q-10 15 -23 25q-14 10 -33 16q-20 5 -36 5q-18 0 -36 -5
q-18 -6 -31 -16q-15 -12 -22 -24q-8 -16 -8 -33zM258 308q-40 -17 -65 -45q-27 -29 -27 -71q0 -48 33 -76q34 -29 82 -29q43 0 75 18q33 19 58 50z" />
    <glyph glyph-name="uni0027" unicode="'" horiz-adv-x="258" 
d="M124 575q-28 1 -48 21t-20 48q0 32 21 51q20 20 52 20q33 0 53 -19q20 -20 20 -52v-81q0 -39 -24 -60t-62 -21h-58v72h59q2 0 3 1h3q1 1 1 5v15z" />
    <glyph glyph-name="uni0028" unicode="(" horiz-adv-x="439" 
d="M150 543q0 56 14 104q13 46 44 81q27 33 74 53q45 18 108 18h29v-96h-25q-39 0 -66 -11q-26 -12 -43 -33q-16 -22 -22 -52q-7 -28 -7 -67v-508q0 -39 8 -73q8 -32 25 -51q16 -19 47 -30q28 -9 73 -9h10v-97h-29q-64 0 -108 19q-46 20 -74 52q-31 35 -44 81
q-14 48 -14 104v515z" />
    <glyph glyph-name="uni0029" unicode=")" horiz-adv-x="439" 
d="M289 28q0 -56 -14 -104q-13 -45 -43 -81q-27 -33 -74 -53q-47 -18 -109 -18h-29v97l26 -1q39 0 67 11q25 12 42 33q14 22 22 52q6 31 6 68v508q0 45 -7 74t-25 50q-18 19 -47 30q-30 9 -74 9l-10 -1v97h29q62 0 109 -18q47 -20 74 -53q30 -36 43 -81q14 -48 14 -104v-515
z" />
    <glyph glyph-name="uni002B" unicode="+" horiz-adv-x="648" 
d="M101 392h179v175h88v-175h179v-84h-179v-175h-88v175h-179v84z" />
    <glyph glyph-name="uni002C" unicode="," horiz-adv-x="258" 
d="M124 -11q-30 2 -48 21q-20 20 -20 48q0 32 21 51q20 20 52 20q33 0 53 -19q20 -20 20 -52v-82q0 -40 -24 -60q-25 -20 -62 -20h-58v72h59q5 0 6 1t1 5v15z" />
    <glyph glyph-name="uni002D" unicode="-" horiz-adv-x="506" 
d="M82 214v101h342v-101h-342z" />
    <glyph glyph-name="uni002F" unicode="/" horiz-adv-x="523" 
d="M355 700h110l-302 -884h-109z" />
    <glyph glyph-name="uni0030" unicode="0" horiz-adv-x="662" 
d="M174 275q0 -37 8 -74q8 -35 27 -60q18 -25 48 -39q31 -14 74 -14t74 14q29 13 49 39q19 27 26 60q8 37 8 74v150q0 38 -8 75q-7 33 -26 60q-20 26 -49 39q-31 14 -74 14t-74 -14q-30 -13 -48 -39q-19 -26 -27 -60q-8 -37 -8 -75v-150zM64 422q0 65 16 116q15 53 48 92
q31 38 83 61q48 22 120 22t122 -22q50 -23 83 -60q32 -40 47 -92q15 -54 15 -117v-144q0 -64 -15 -116q-15 -54 -47 -92t-83 -61q-50 -22 -122 -22t-120 22q-52 23 -83 61q-33 39 -48 92q-16 51 -16 116v144z" />
    <glyph glyph-name="uni0031" unicode="1" horiz-adv-x="460" 
d="M266 542l-121 -170h-135l237 328h131l-2 -700h-110v542z" />
    <glyph glyph-name="uni0032" unicode="2" horiz-adv-x="624" 
d="M54 466q0 56 21 103q19 44 56 78q38 33 85 49q49 17 104 17q53 0 100 -15q49 -17 82 -46q37 -32 55 -73q20 -45 20 -99q0 -56 -19 -95q-18 -38 -53 -68q-33 -29 -75 -48q-41 -18 -90 -31q-9 -2 -25 -6q-15 -3 -26 -7q-32 -8 -51 -16q-22 -8 -40 -23q-16 -13 -27 -34
q-9 -19 -11 -52h420v-100h-530v90q0 62 19 101q20 42 50 66q31 26 69 41q36 14 77 27q13 3 39 11q13 3 37 11q22 7 49 19q24 11 39 25q17 15 27 37q10 20 10 52q0 65 -40 99t-106 34q-69 0 -109 -34q-42 -35 -46 -100q-1 -9 -1 -27v-27v-9h-110v50z" />
    <glyph glyph-name="uni0033" unicode="3" horiz-adv-x="619" 
d="M362 441q44 -6 83 -23q38 -18 66 -46q25 -27 43 -67q15 -39 15 -87q0 -52 -20 -95q-20 -42 -56 -73q-34 -29 -81 -46q-44 -17 -97 -17q-37 0 -77 8q-35 7 -71 25q-34 17 -59 45q-27 29 -43 66q-15 34 -16 65q-3 31 -3 65v35h110v-49q0 -79 37 -119t122 -40q31 0 57 9
q27 10 46 27q19 16 30 41t11 54q0 38 -13 61t-37 39q-24 14 -54 20q-31 6 -66 6h-40q-14 -1 -41 -1h-9v91l195 163h-335v102h512v-86z" />
    <glyph glyph-name="uni0034" unicode="4" horiz-adv-x="628" 
d="M20 211l343 489h134v-467h119v-101h-119v-132h-110v132h-367v79zM387 549l-225 -316h225v316z" />
    <glyph glyph-name="uni0035" unicode="5" horiz-adv-x="619" 
d="M111 700h428v-100h-328l-20 -136q32 17 65 21q37 5 66 5h9q1 -1 4 -1.5t4 -0.5q8 -1 23 -1q3 -1 11 -2t11 -1q47 -8 81 -29q35 -23 59 -54q23 -32 37 -73q12 -40 12 -86q0 -58 -19 -103q-20 -48 -53 -81t-83 -52q-47 -19 -107 -19q-37 0 -75 8q-38 9 -69 27t-57 45
q-24 25 -41 64q-15 34 -16 60q-3 29 -3 61v30h108v-31q0 -16 2 -44q1 -18 10 -41q17 -41 56 -59q38 -19 85 -19q75 0 113 41q37 40 37 113q0 67 -33 107q-35 41 -103 41q-52 0 -89 -22t-60 -68l-5 -11l-102 71z" />
    <glyph glyph-name="uni0036" unicode="6" horiz-adv-x="637" 
d="M337 489q57 0 102 -19t79 -53q34 -35 51 -80q18 -47 18 -99q0 -53 -20 -101q-18 -44 -55 -79q-33 -33 -83 -52q-47 -19 -104 -19q-58 0 -103 19q-49 18 -83 51q-36 34 -55 80q-20 48 -20 101v222q0 58 20 106q18 44 55 79q34 32 85 51q51 17 107 17q51 0 98 -15
q45 -15 79 -43t54 -71q19 -41 19 -96v-28h-110v28q0 66 -37 96q-38 29 -103 29q-75 0 -115 -36q-42 -37 -42 -110v-32q33 27 77 41q40 13 86 13zM477 238q0 68 -40 111t-112 43q-33 0 -63 -11q-26 -11 -47 -32q-20 -21 -30 -49q-11 -30 -11 -62q0 -68 41 -109t110 -41
q71 0 112 41q40 40 40 109z" />
    <glyph glyph-name="uni0037" unicode="7" horiz-adv-x="586" 
d="M18 700h548v-61v-9q-1 -2 -1 -6q0 -3 -2 -7l-311 -617h-125l303 598h-412v102z" />
    <glyph glyph-name="uni0038" unicode="8" horiz-adv-x="622" 
d="M311 713q42 0 91 -11q44 -12 82 -36q37 -25 59 -61q22 -37 22 -91q0 -48 -23 -86q-24 -39 -64 -63q49 -24 74 -69q26 -47 26 -99q0 -55 -24 -94q-23 -38 -62 -65q-37 -25 -85 -39q-48 -12 -96 -12q-47 0 -94 12q-49 14 -86 39q-40 26 -63 65q-24 39 -24 94q0 53 27 98
q25 44 74 70q-40 24 -64 63q-24 38 -24 86q0 52 23 90q21 35 59 62q36 24 82 36q47 11 90 11zM311 613q-23 0 -51 -5q-27 -6 -46 -18q-21 -12 -33 -31q-13 -19 -13 -47q0 -27 13 -46q12 -20 33 -32q20 -12 46 -17q26 -6 51 -6q27 0 53 6q24 4 46 17q19 12 33 32q12 20 12 46
q0 28 -12 47q-13 19 -33 31q-21 12 -46 18q-28 5 -53 5zM311 311q-29 0 -58 -6q-30 -6 -50 -19q-21 -13 -35 -34q-14 -23 -14 -53t14 -52q14 -21 35 -34q22 -13 50 -19q29 -6 58 -6q31 0 59 6q27 4 50 18q23 15 35 35q13 20 13 52q0 33 -13 53q-14 21 -35 35q-22 13 -50 19
q-32 5 -59 5z" />
    <glyph glyph-name="uni0039" unicode="9" horiz-adv-x="637" 
d="M300 212q-53 0 -101 20q-47 20 -79 53q-33 33 -51 79q-19 45 -19 98q0 54 20 102q18 44 55 79q33 32 83 52q46 18 103 18t105 -18q50 -20 83 -52q37 -35 55 -79q19 -45 19 -102v-222q0 -58 -20 -106q-20 -47 -55 -79q-35 -34 -84 -50q-50 -18 -108 -18q-51 0 -96 15
q-44 14 -80 44q-34 28 -54 71t-20 95v28h110v-28q0 -66 37 -94q37 -30 103 -30q74 0 116 36q41 36 41 109v33q-36 -30 -77 -41q-42 -13 -86 -13zM160 462q0 -31 11 -61t30 -49q20 -22 48 -32q29 -12 62 -12q72 0 112 43t40 111q0 70 -40 110q-41 41 -112 41q-70 0 -111 -41
q-40 -40 -40 -110z" />
    <glyph glyph-name="uni003B" unicode=";" horiz-adv-x="258" 
d="M124 -11q-30 2 -48 21q-20 20 -20 48q0 32 21 51q20 20 52 20q33 0 53 -19q20 -20 20 -52v-82q0 -40 -24 -60q-25 -20 -62 -20h-58v72h59q5 0 6 1t1 5v15z" />
    <glyph glyph-name="uni003C" unicode="&#x3c;" horiz-adv-x="661" 
d="M249 350l312 -126v-119l-461 195v100l461 195v-119z" />
    <glyph glyph-name="uni003D" unicode="=" horiz-adv-x="648" 
d="M101 369v82h446v-82h-446zM101 249v83h446v-83h-446z" />
    <glyph glyph-name="uni003E" unicode="&#x3e;" horiz-adv-x="661" 
d="M413 350l-313 126v119l461 -195v-100l-461 -195v119z" />
    <glyph glyph-name="uni003F" unicode="?" 
d="M318 14q-61 0 -61 58q0 32 16 45t45 13t45 -13t16 -45q0 -58 -61 -58zM68 494q0 58 22 99q22 42 58 68q35 26 84 40q46 12 98 12q48 0 95 -12q45 -13 83 -39q37 -28 59 -66q22 -40 22 -94q0 -46 -13 -78t-38 -57q-24 -25 -56 -41q-36 -19 -69 -32q-5 -2 -13 -6
q-8 -3 -12 -6q-4 -2 -7 -4l-3 -3q-2 -3 -3 -9q-1 -5 -1 -14q-1 -5 -1 -15v-11q0 -20 1 -30v-30v-10h-110v93q0 44 14 74q13 28 56 48q18 8 34 14q27 10 34 13q19 9 30 16q15 8 25 20q10 11 16 30q6 17 6 41q0 30 -13 49q-15 22 -34 34q-19 13 -47 19q-27 6 -55 6t-54 -6
q-29 -6 -47 -19q-20 -13 -34 -33q-15 -23 -16 -50q-2 -22 -1 -35v-35v-10h-110v69z" />
    <glyph glyph-name="uni0040" unicode="@" horiz-adv-x="1041" 
d="M947 268q0 -92 -30 -170q-30 -79 -85 -135q-56 -57 -133 -90q-79 -32 -174 -32q-96 0 -175 32q-77 33 -133 90q-55 56 -85 135q-30 78 -30 170t30 170q30 79 85 135q56 57 133 90q79 32 175 32q95 0 174 -32q76 -31 133 -89q55 -56 85 -135t30 -171zM285 152
q-9 29 -12 55q-4 24 -4 56q0 50 16 95q16 46 46 83q31 37 73 59q43 22 98 22q44 0 81 -15q36 -15 69 -41v42h96v-411q11 -6 24 -10l24 -8q26 41 40 90q13 46 13 99q0 68 -22 125t-64 104q-43 44 -99 71q-58 26 -126 26q-77 0 -140 -23q-62 -23 -104 -66t-64 -104
q-22 -60 -22 -138q0 -66 23 -127q22 -60 65 -104q41 -44 100 -70q60 -26 129 -26q50 0 98 16t90 44q-10 7 -28 25q-15 15 -23 30q-32 -31 -72 -47q-42 -17 -88 -17q-39 0 -74 12q-37 14 -63 35q-30 23 -48 53q-22 31 -32 65zM370 249q0 -33 9 -64q7 -31 26 -54
q16 -24 43 -38q26 -15 62 -15q39 0 66 15q27 16 43 41q17 26 24 58q7 29 7 67q0 31 -8 65q-7 29 -25 55q-17 23 -43 37q-28 14 -64 14q-38 0 -65 -15q-27 -17 -43 -41q-16 -26 -24 -57q-8 -35 -8 -68z" />
    <glyph glyph-name="uni0041" unicode="A" horiz-adv-x="667" 
d="M18 0l257 700h118l256 -700h-119l-62 175h-269l-61 -175h-120zM334 552l-99 -277h197z" />
    <glyph glyph-name="uni0042" unicode="B" horiz-adv-x="661" 
d="M372 0h-290v700h294q44 0 85 -12q43 -14 73 -37q30 -24 50 -61q19 -37 19 -85q0 -47 -23 -87q-23 -39 -66 -65q43 -24 66 -65q23 -43 23 -90q0 -49 -19 -86q-19 -36 -51 -62q-30 -25 -74 -37q-40 -13 -87 -13zM192 600v-198h182q52 0 86 25q33 25 33 77q0 25 -10 42
q-11 19 -26 30q-17 12 -39 18t-46 6h-180zM192 302v-202h182q50 0 85 26q34 25 34 76q0 55 -35 78q-35 22 -90 22h-176z" />
    <glyph glyph-name="uni0043" unicode="C" horiz-adv-x="675" 
d="M64 412q0 67 19 121q17 54 54 95q36 40 90 63q53 22 125 22q126 0 198 -66q71 -68 71 -192v-41h-110v41q0 77 -39 118q-40 40 -120 40q-47 0 -81 -14q-33 -14 -55 -41q-21 -24 -32 -63q-10 -36 -10 -81v-127q0 -42 11 -80q11 -39 32 -63q22 -28 55 -41q34 -15 80 -15
q50 0 82 12t48 36q17 25 23 60q6 34 6 81v9h110v-44q0 -62 -19 -107q-19 -46 -55 -80q-37 -34 -85 -50q-50 -18 -110 -18q-73 0 -126 22q-55 23 -90 62q-36 41 -54 96t-18 121v124z" />
    <glyph glyph-name="uni0044" unicode="D" horiz-adv-x="673" 
d="M192 600v-500h115q100 0 149 40q48 40 48 140v140q0 99 -49 139q-50 41 -148 41h-115zM82 700h228q146 0 222 -70q77 -71 77 -215v-130q0 -143 -77 -214q-79 -71 -222 -71h-228v700z" />
    <glyph glyph-name="uni0045" unicode="E" horiz-adv-x="603" 
d="M82 700h469v-100h-359v-199h332v-100h-332v-201h363v-100h-473v700z" />
    <glyph glyph-name="uni0046" unicode="F" horiz-adv-x="579" 
d="M82 700h461v-100h-351v-199h332v-100h-332v-301h-110v700z" />
    <glyph glyph-name="uni0047" unicode="G" horiz-adv-x="681" 
d="M64 412q0 67 19 121q17 54 54 95q36 40 90 63q53 22 124 22t123 -20t83 -57t46 -90q14 -54 14 -118v-9h-110v9q0 42 -6 77q-7 34 -24 58q-17 23 -48 37q-29 13 -77 13q-47 0 -81 -14q-33 -14 -55 -41q-21 -24 -32 -63q-10 -36 -10 -81v-127q0 -44 10 -80q11 -39 32 -63
q22 -27 55 -41q33 -15 79 -15q82 0 120 38q37 37 37 116v7h-222v101h332v-108q0 -62 -19 -107q-20 -47 -54 -80q-35 -34 -84 -50q-50 -18 -110 -18q-74 0 -125 22q-56 23 -89 62q-36 41 -54 96t-18 121v124z" />
    <glyph glyph-name="uni0048" unicode="H" horiz-adv-x="679" 
d="M82 700h110v-299h295v299h110v-700h-110v301h-295v-301h-110v700z" />
    <glyph glyph-name="uni0049" unicode="I" horiz-adv-x="274" 
d="M82 700h110v-700h-110v700z" />
    <glyph glyph-name="uni004A" unicode="J" horiz-adv-x="579" 
d="M501 700v-479q0 -54 -13 -96q-13 -43 -41 -74q-27 -30 -70 -47q-40 -17 -100 -17q-114 0 -174 63q-61 61 -61 171v72h110v-60q0 -67 28 -105q28 -40 98 -40q34 0 55 10q20 8 35 26q14 16 18 42q5 27 5 55v479h110z" />
    <glyph glyph-name="uni004B" unicode="K" horiz-adv-x="699" 
d="M192 388l346 312h159l-326 -291l303 -409h-136l-246 337l-100 -89v-248h-110v700h110v-312z" />
    <glyph glyph-name="uni004C" unicode="L" horiz-adv-x="581" 
d="M82 700h110v-600h367v-100h-477v700z" />
    <glyph glyph-name="uni004D" unicode="M" horiz-adv-x="894" 
d="M192 490v-490h-110v700h145l220 -551l220 551h145v-700h-110v490l-196 -490h-118z" />
    <glyph glyph-name="uni004E" unicode="N" horiz-adv-x="689" 
d="M192 519v-519h-110v700h135l279 -519v519h111v-700h-136z" />
    <glyph glyph-name="uni004F" unicode="O" horiz-adv-x="697" 
d="M174 275q0 -85 43 -135q43 -52 131 -52q90 0 133 51q42 51 42 136v150q0 86 -42 137q-43 51 -133 51q-88 0 -131 -52t-43 -136v-150zM64 422q0 66 19 119q18 55 54 92q36 38 89 59q52 21 122 21t123 -21t89 -59q35 -36 55 -91q18 -54 18 -120v-144q0 -66 -18 -118
q-20 -56 -55 -92q-36 -39 -89 -60q-54 -21 -123 -21q-71 0 -122 22q-53 21 -89 59q-36 37 -54 92q-19 53 -19 118v144z" />
    <glyph glyph-name="uni0050" unicode="P" horiz-adv-x="627" 
d="M82 0v700h273q47 0 92 -14q42 -13 76 -41q32 -27 51 -67q19 -39 19 -91q0 -51 -19 -89q-19 -40 -51 -67q-33 -29 -76 -42q-43 -15 -92 -15h-163v-274h-110zM192 600v-226h157q59 0 97 27q37 25 37 86q0 62 -37 87q-38 26 -97 26h-157z" />
    <glyph glyph-name="uni0051" unicode="Q" horiz-adv-x="709" 
d="M174 275q0 -85 43 -135q43 -52 131 -52q21 0 46 5q27 5 43 14l-111 90l69 83l114 -92q8 21 11 42q3 22 3 45v150q0 86 -42 137q-43 51 -133 51q-88 0 -131 -52t-43 -136v-150zM669 59l-75 -78l-73 58q-41 -25 -82 -37q-47 -15 -91 -15q-71 0 -122 22q-53 21 -89 59
q-36 37 -54 92q-19 53 -19 118v144q0 66 19 119q18 55 54 92q36 38 89 59q52 21 122 21t123 -21t89 -59q35 -36 55 -91q18 -54 18 -120v-144q0 -39 -8 -82q-9 -39 -29 -78z" />
    <glyph glyph-name="uni0052" unicode="R" horiz-adv-x="653" 
d="M614 0h-125l-158 281h-139v-281h-110v700h292q49 0 91 -13q41 -13 76 -40q32 -26 52 -66q19 -38 19 -90q0 -79 -45 -131q-44 -52 -120 -70zM192 600v-218h176q60 0 97 25t37 84q0 60 -37 85q-37 24 -97 24h-176z" />
    <glyph glyph-name="uni0053" unicode="S" horiz-adv-x="652" 
d="M596 425h-111l1 56q0 12 -2 34q-1 13 -10 31q-11 19 -26 31q-17 14 -35 21q-19 7 -41 12q-22 3 -43 3q-23 0 -49 -6q-24 -6 -44 -18q-20 -13 -32 -30q-13 -17 -13 -42q0 -21 6 -36q5 -13 17 -25q9 -9 27 -17q13 -7 34 -13q21 -7 64 -16q46 -10 69 -17q31 -8 69 -23
q34 -14 59 -36t42 -56q16 -32 16 -81q0 -53 -23 -93q-22 -40 -59 -66q-38 -26 -83 -39q-47 -12 -95 -12q-63 0 -117 17q-53 16 -90 51q-37 33 -57 83q-20 51 -20 115v53h110v-50q0 -168 173 -168q29 0 56 6q26 6 48 20q21 13 34 34q13 19 13 49q0 25 -11 42q-12 17 -29 29
q-18 10 -39 18q-23 8 -42 12q-11 3 -35 9q-6 2 -18.5 5t-19.5 4q-42 10 -75 22q-39 14 -67 36q-30 22 -48 57q-19 34 -19 86q0 49 23 87q22 36 59 61q36 24 81 36q44 12 87 12q35 0 71 -6q36 -7 69 -21q31 -15 59 -38q28 -25 44 -58q13 -27 18 -53q4 -23 4 -55v-57z" />
    <glyph glyph-name="uni0054" unicode="T" horiz-adv-x="624" 
d="M22 700h580v-100h-235v-600h-110v600h-235v100z" />
    <glyph glyph-name="uni0055" unicode="U" horiz-adv-x="690" 
d="M78 700h110v-463q0 -79 40 -113q39 -36 117 -36q79 0 118 36q39 34 39 113v463h110v-463q0 -63 -19 -108q-19 -47 -54 -78t-84 -48q-48 -16 -110 -16q-61 0 -109 16q-51 17 -85 48q-35 31 -54 78q-19 45 -19 108v463z" />
    <glyph glyph-name="uni0056" unicode="V" horiz-adv-x="667" 
d="M334 152l196 548h117l-255 -700h-116l-256 700h118z" />
    <glyph glyph-name="uni0057" unicode="W" horiz-adv-x="911" 
d="M455 521l-138 -521h-136l-142 700h113l102 -508l136 508h131l135 -508l102 508h114l-142 -700h-136z" />
    <glyph glyph-name="uni0058" unicode="X" horiz-adv-x="707" 
d="M278 353l-242 347h134l183 -268l184 268h134l-242 -347l246 -353h-134l-188 273l-187 -273h-134z" />
    <glyph glyph-name="uni0059" unicode="Y" horiz-adv-x="701" 
d="M28 700h130l192 -310l193 310h130l-267 -424v-276h-111v276z" />
    <glyph glyph-name="uni005A" unicode="Z" horiz-adv-x="624" 
d="M60 700h512v-77l-378 -523h388v-100h-534v77l377 523h-365v100z" />
    <glyph glyph-name="uni005B" unicode="[" horiz-adv-x="402" 
d="M256 -130h106v-96h-122q-38 0 -64 24q-26 26 -26 63v850q0 36 26 62q25 25 64 25h122v-97h-106v-831z" />
    <glyph glyph-name="uni005C" unicode="\" horiz-adv-x="525" 
d="M169 700l302 -884h-110l-301 884h109z" />
    <glyph glyph-name="uni005D" unicode="]" horiz-adv-x="402" 
d="M146 701h-106v97h122q40 0 65 -24q25 -25 25 -63v-850q0 -38 -25 -63q-26 -24 -65 -24h-122v96h106v831z" />
    <glyph glyph-name="uni005E" unicode="^" horiz-adv-x="713" 
d="M356 592l-144 -202h-136l224 310h113l224 -310h-136z" />
    <glyph glyph-name="uni005F" unicode="_" horiz-adv-x="660" 
d="M84 -88v100h492v-100h-492z" />
    <glyph glyph-name="uni0061" unicode="a" horiz-adv-x="623" 
d="M442 46q-36 -31 -83 -45q-48 -14 -95 -14q-34 0 -70 9q-37 9 -66 28q-29 18 -49 48q-20 29 -20 70q0 42 20 71q19 28 51 46q30 18 66 27q40 8 68 11l177 15v1q0 54 -34 79q-34 24 -88 24q-39 0 -62 -4q-26 -5 -43 -16q-17 -13 -31 -36q-15 -25 -28 -61l-3 -10l-96 41l3 8
q15 50 39 84q24 33 57 54q32 20 74 29q41 9 92 9q50 0 90 -13q41 -13 72 -39q30 -26 47 -64q17 -39 17 -88v-310h-105v46zM279 202q-25 -3 -33 -4q-20 -3 -38 -9q-18 -7 -30 -18q-13 -12 -13 -31q0 -17 11 -28t27 -17q17 -7 33 -8q16 -3 30 -3q70 0 118 33q48 32 55 99z" />
    <glyph glyph-name="uni0062" unicode="b" 
d="M186 0h-104v700h106v-243q34 31 78 45q42 12 89 12q58 0 106 -20q47 -21 80 -57t51 -84q17 -49 17 -102q0 -54 -17 -103q-18 -48 -51 -84t-80 -56q-47 -21 -106 -21q-46 0 -91 14q-42 13 -78 46v-47zM500 251q0 37 -10 66q-11 31 -29 52t-48 35q-29 12 -67 12t-66 -12
q-32 -15 -49 -35q-22 -24 -32 -52q-11 -33 -11 -66q0 -34 11 -65q10 -29 32 -53q18 -21 49 -34q27 -13 66 -13q40 0 67 13q29 12 48 34q18 21 29 52q10 29 10 66z" />
    <glyph glyph-name="uni0063" unicode="c" horiz-adv-x="617" 
d="M461 275l-1 11q-4 63 -40 97q-38 33 -101 33q-38 0 -65 -13q-32 -14 -51 -35q-21 -22 -33 -53q-12 -30 -12 -64t12 -64q12 -31 34 -53q19 -21 51 -35q27 -13 65 -13q64 0 101 34t43 96l1 11l106 -20l-1 -9q-8 -50 -28 -86q-22 -39 -55 -67q-32 -28 -75 -43
q-44 -15 -92 -15q-55 0 -106 20q-50 20 -86 56q-38 35 -57 84q-21 48 -21 104t21 104q19 47 56 84q37 36 86 55q51 20 106 20q47 0 91 -15q43 -15 76 -42q32 -26 55 -66q20 -38 25 -87l1 -9z" />
    <glyph glyph-name="uni0064" unicode="d" 
d="M470 700h107v-700h-105v47q-34 -31 -77 -45q-41 -14 -91 -14q-58 0 -105 21t-80 57t-51 84t-18 102t18 102t51 84t80 57q48 20 105 20q46 0 90 -12q41 -13 76 -45v242zM470 252q0 35 -11 66q-10 27 -31 52q-17 20 -49 35q-30 12 -67 12q-38 0 -66 -12q-30 -14 -48 -35
q-20 -23 -30 -52t-10 -66t10 -66t30 -52q19 -22 48 -34q27 -13 66 -13q38 0 67 13q31 13 49 34q21 25 31 52q11 31 11 66z" />
    <glyph glyph-name="uni0065" unicode="e" horiz-adv-x="611" 
d="M562 213h-400q10 -59 52 -93q40 -34 104 -34q59 0 90 25q33 27 53 77l3 9l102 -39l-5 -9q-36 -79 -93 -120q-58 -42 -150 -42q-60 0 -109 21q-49 19 -84 56q-35 34 -55 84q-20 51 -20 106q0 54 20 103q20 48 54 82q36 36 83 55q49 20 104 20q37 0 73 -9q33 -8 67 -26
q29 -17 55 -44q25 -28 38 -63q13 -31 16 -65q2 -42 2 -66v-28zM451 309q-11 54 -46 81q-38 26 -94 26q-57 0 -94 -28q-40 -29 -53 -79h287z" />
    <glyph glyph-name="uni0066" unicode="f" horiz-adv-x="482" 
d="M291 501h169v-96h-168v-405h-111v405h-157v96h157q0 65 15 106q13 39 44 60q27 20 73 28q44 6 104 6h17q5 -1 16 -1h4h10v-100h-10h-2q-20 0 -29 1h-29q-36 0 -56 -3q-21 -3 -31 -13q-12 -12 -13 -30q-3 -19 -3 -54z" />
    <glyph glyph-name="uni0067" unicode="g" 
d="M470 52q-35 -32 -76 -45q-42 -13 -90 -13q-58 0 -104 21q-47 20 -80 56q-33 33 -52 82q-18 47 -18 101t18 102q19 49 52 82q33 35 80 56q48 20 104 20q49 0 91 -13q41 -13 77 -46v46h105v-452q0 -55 -18 -100q-20 -46 -52 -78q-36 -33 -80 -50q-47 -18 -103 -18
q-90 0 -158 38q-68 39 -110 117l-5 9l98 50l4 -9q51 -106 169 -106q74 0 111 40t37 110zM158 254q0 -72 40 -116q40 -45 114 -45t116 45t42 116q0 35 -11 66q-10 26 -31 51q-21 21 -50 33q-28 12 -66 12q-74 0 -114 -45q-40 -44 -40 -117z" />
    <glyph glyph-name="uni0068" unicode="h" horiz-adv-x="635" 
d="M188 457q32 29 72 42q41 12 83 12q47 0 88 -15t69 -43q27 -27 44 -67q15 -39 15 -86v-300h-107v297q0 60 -28 88q-28 27 -90 27q-74 0 -110 -45q-36 -47 -36 -116v-251h-106v700h106v-243z" />
    <glyph glyph-name="uni0069" unicode="i" horiz-adv-x="268" 
d="M134 543q-32 0 -55 21t-23 54q0 31 23 54q23 21 55 21t55 -21q23 -23 23 -54q0 -33 -23 -54t-55 -21zM81 0v501h106v-501h-106z" />
    <glyph glyph-name="uni006A" unicode="j" horiz-adv-x="272" 
d="M138 543q-32 0 -55 21t-23 54q0 31 23 54q23 21 55 21q34 0 56 -21q22 -22 22 -54q0 -33 -22 -54t-56 -21zM193 501v-9q0 -41 0.5 -124t1.5 -124v-248q0 -38 -4 -71q-4 -36 -31 -67q-15 -17 -22 -22q-16 -11 -20 -13q-10 -5 -24 -6q-15 -2 -31 -3q-9 -1 -26 -1h-27h-42
v100h10q21 0 31 -1h31h13q5 0 11 2q14 11 18 25q3 16 3 32v261q-1 43 -1.5 130t-0.5 130v9h110z" />
    <glyph glyph-name="uni006B" unicode="k" horiz-adv-x="632" 
d="M188 286l255 215h163l-255 -212l232 -289h-132l-179 223l-84 -70v-153h-106v700h106v-414z" />
    <glyph glyph-name="uni006C" unicode="l" horiz-adv-x="270" 
d="M188 700v-700h-106v700h106z" />
    <glyph glyph-name="uni006D" unicode="m" horiz-adv-x="874" 
d="M186 474q26 20 58 29q34 8 65 8q43 0 81 -16t64 -51q27 35 70 52q40 15 85 15q41 0 75 -12q37 -14 60 -35q24 -21 40 -55q14 -34 14 -74v-335h-106v330q0 43 -26 63q-25 19 -66 19q-51 0 -79 -31t-28 -82v-299h-106v330q0 43 -26 63q-25 19 -66 19q-51 0 -79 -31t-28 -82
v-299h-106v501h104v-27z" />
    <glyph glyph-name="uni006E" unicode="n" horiz-adv-x="635" 
d="M186 455q33 30 73 43q39 13 84 13q47 0 88 -15t69 -43q27 -27 44 -67q15 -39 15 -86v-300h-107v297q0 60 -28 88q-28 27 -90 27q-74 0 -110 -45q-36 -47 -36 -116v-251h-106v501h104v-46z" />
    <glyph glyph-name="uni006F" unicode="o" horiz-adv-x="614" 
d="M313 416q-37 0 -65 -12q-32 -15 -50 -35q-21 -24 -31 -53q-11 -31 -11 -65q0 -71 41 -118t116 -47t116 47t41 118q0 73 -40 119t-117 46zM313 -13q-58 0 -107 20q-47 19 -83 56q-34 34 -54 83q-19 47 -19 105t19 105q20 49 54 83q37 37 83 55q49 20 107 20q61 0 109 -19
t84 -55q33 -34 53 -84q18 -48 18 -105t-18 -105q-20 -51 -53 -84q-34 -35 -84 -55q-47 -20 -109 -20z" />
    <glyph glyph-name="uni0070" unicode="p" 
d="M188 -184h-106v685h104v-46q36 33 78 46t91 13q58 0 106 -20q47 -21 80 -57t51 -84q17 -49 17 -102q0 -54 -17 -103q-18 -48 -51 -84t-80 -56q-47 -21 -106 -21q-49 0 -89 13q-44 14 -78 45v-229zM188 251q0 -34 11 -65q10 -29 32 -53q18 -21 49 -34q27 -13 66 -13
q40 0 67 13q29 12 48 34q18 21 29 52q10 29 10 66t-10 66q-11 31 -29 52t-48 35q-29 12 -67 12t-66 -12q-32 -15 -49 -35q-22 -24 -32 -52q-11 -33 -11 -66z" />
    <glyph glyph-name="uni0071" unicode="q" 
d="M472 501h105v-685h-107v229q-35 -32 -76 -45q-42 -13 -90 -13q-58 0 -105 21t-80 57t-51 84t-18 102t18 102t51 84t80 57q48 20 105 20q49 0 91 -13q41 -13 77 -46v46zM158 251q0 -37 10 -66t30 -52q19 -22 48 -34q27 -13 66 -13q38 0 67 13q31 13 49 34q21 25 31 52
q11 31 11 66t-11 66q-10 27 -31 52q-17 20 -49 35q-30 12 -67 12q-38 0 -66 -12q-30 -14 -48 -35q-20 -23 -30 -52t-10 -66z" />
    <glyph glyph-name="uni0072" unicode="r" horiz-adv-x="409" 
d="M366 400l-11 1l-21 3q-7 1 -21 1q-21 0 -43 -3q-22 -4 -40 -12q-18 -9 -29 -23q-11 -16 -11 -36q0 -49 -1 -73q-1 -25 -1 -74v-184h-105v501h106v-20q30 14 61 17q32 3 63 3h26h17h10v-101z" />
    <glyph glyph-name="uni0073" unicode="s" horiz-adv-x="594" 
d="M466 306l-4 9q-16 35 -31 54q-18 21 -38 31q-21 10 -48 15q-28 3 -65 3q-18 0 -29 -1q-14 -1 -31 -7q-14 -6 -24 -16t-10 -29q0 -31 48 -45q22 -7 55 -12q6 0 16 -2t16 -2q22 -4 33 -5q22 -3 66 -13q34 -9 60 -25q27 -18 43 -42q17 -26 17 -66q0 -47 -22 -78
q-23 -32 -55 -51q-37 -21 -74 -29q-43 -8 -78 -8q-99 0 -169 51q-72 51 -104 140l-3 8l98 39l4 -9q22 -63 64 -97q41 -33 110 -33q16 0 37 3q17 1 40 10q20 8 32 20q13 12 13 33q0 28 -48 40q-20 6 -56 11q-10 2 -31.5 5t-32.5 4q-29 4 -66 14q-32 9 -60 26q-27 16 -43 43
q-17 28 -17 68q0 42 19 70q17 28 48 46q28 18 65 27q37 8 68 8q53 0 93 -6q39 -6 72 -23q29 -15 58 -46q28 -32 52 -77l5 -9z" />
    <glyph glyph-name="uni0074" unicode="t" horiz-adv-x="487" 
d="M441 501v-96h-157v-211v-27q-1 -10 1 -28q1 -21 8 -28q6 -6 27 -9q30 -3 61 -3h50h10v-99h-62q-59 0 -95 7q-38 7 -64 27q-25 19 -36 56q-11 38 -11 95q0 14 1 21v19v180h-148v96h148v165h110v-165h157z" />
    <glyph glyph-name="uni0075" unicode="u" horiz-adv-x="635" 
d="M448 46q-32 -28 -72 -42q-39 -13 -85 -13q-48 0 -87 15q-40 15 -68 43q-30 30 -44 67q-16 36 -16 85v300h106v-296q0 -116 119 -116q37 0 64 12q28 12 45 34q18 23 27 52q9 28 9 64v250h107v-501h-105v46z" />
    <glyph glyph-name="uni0076" unicode="v" horiz-adv-x="592" 
d="M296 138l149 363h115l-212 -501h-104l-212 501h115z" />
    <glyph glyph-name="uni0077" unicode="w" horiz-adv-x="844" 
d="M422 346l-114 -346h-119l-137 501h110l91 -339l112 339h114l111 -339l91 339h111l-138 -501h-118z" />
    <glyph glyph-name="uni0078" unicode="x" horiz-adv-x="681" 
d="M341 185l-156 -185h-139l217 256l-210 245h138l150 -176l149 176h138l-209 -245l216 -256h-139z" />
    <glyph glyph-name="uni0079" unicode="y" horiz-adv-x="618" 
d="M309 147l161 354h116l-316 -685h-117l99 209l-220 476h116z" />
    <glyph glyph-name="uni007A" unicode="z" horiz-adv-x="571" 
d="M63 501h456v-75l-307 -329h315v-97h-473v76l307 329h-298v96z" />
    <glyph glyph-name="uni007B" unicode="{" horiz-adv-x="418" 
d="M272 701v-344q0 -19 -6 -38t-21 -33q15 -13 22 -34q5 -22 5 -38v-344h106v-96h-123q-37 0 -63 24q-26 26 -26 63v363h-76v124h76v363q0 36 26 62q25 25 63 25h123v-97h-106z" />
    <glyph glyph-name="uni007D" unicode="}" horiz-adv-x="418" 
d="M146 701h-106v97h122q39 0 64 -25q26 -26 26 -62v-363h76v-124h-76v-363q0 -37 -26 -63q-26 -24 -64 -24h-122v96h106v344q0 20 6 39q4 19 21 33q-16 13 -21 34q-6 19 -6 37v344z" />
    <glyph glyph-name="uni007E" unicode="~" horiz-adv-x="688" 
d="M403 347q0 2 2 2l2 2q1 0 2 1l101 83l70 -74l-97 -78q-26 -18 -39 -26q-19 -13 -45 -13q-33 0 -52 16q-20 14 -33 32q-4 5 -10 17q-6 10 -9 14q-5 6 -6 9l-2 -1q-2 -2 -3 -2l-3 -3l-101 -83l-71 74l98 78q3 2 8 7q6 4 9 7q16 11 31 18t35 7t37 -6q15 -8 27 -18
q8 -7 22 -25q5 -6 20 -30q5 -7 7 -8z" />
    <glyph glyph-name="uni00A2" unicode="&#xa2;" horiz-adv-x="662" 
d="M498 419v9q0 36 -4 61q-5 31 -14 52q-11 25 -30 41q-21 18 -52 25v-514q34 7 55 25q19 16 30 41q10 23 13 55q2 40 2 63v10h110v-45q0 -99 -53 -167q-54 -68 -157 -84v-98h-107v98q-60 9 -102 36q-42 26 -71 67q-27 38 -41 90q-13 48 -13 104v124q0 53 14 104
q14 52 41 90q27 40 70 67t102 36v98h107v-98q61 -8 101 -33t65 -62q23 -36 34 -84q10 -46 10 -102v-9h-110zM174 288q0 -32 6 -63q6 -30 20 -57q12 -25 37 -46q22 -19 54 -28v513q-33 -9 -55 -28t-36 -45q-14 -29 -20 -58q-6 -32 -6 -64v-124z" />
    <glyph glyph-name="uni00A3" unicode="&#xa3;" horiz-adv-x="661" 
d="M66 397h67v93q0 102 59 163q58 60 167 60q106 0 167 -59q59 -61 59 -164v-83h-110v81q0 58 -27 92q-29 33 -89 33q-59 0 -88 -33q-28 -34 -28 -92v-91h135v-101h-135v-196h346v-100h-527v100h71v196h-67v101z" />
    <glyph glyph-name="uni00A5" unicode="&#xa5;" horiz-adv-x="674" 
d="M337 372l201 328h108l-218 -351h111v-79h-156v-21h156v-80h-156v-169h-92v169h-156v80h156v21h-156v79h111l-218 351h108z" />
    <glyph glyph-name="uni00A6" unicode="&#xa6;" horiz-adv-x="270" 
d="M188 337h-106v461h106v-461zM82 235h106v-461h-106v461z" />
    <glyph glyph-name="uni00A9" unicode="&#xa9;" horiz-adv-x="755" 
d="M28 356q0 77 25 142q27 67 71 113q45 48 110 75q64 27 145 27q82 0 146 -27q63 -26 110 -75q44 -47 70 -113q24 -65 24 -142q0 -76 -24 -141q-26 -66 -70 -113q-47 -48 -111 -75t-145 -27t-145 27q-65 27 -110 75q-44 46 -71 113q-25 63 -25 141zM128 356q0 -56 17 -105
q16 -49 48 -85t79 -56q48 -20 107 -20t106 21q45 19 79 56q33 38 49 85q17 49 17 104t-17 106q-16 46 -49 84q-32 35 -78 56q-48 20 -107 20q-57 0 -105 -20q-48 -22 -79 -57q-34 -37 -50 -84q-17 -51 -17 -105zM210 408q0 37 11 73q10 32 33 58q21 24 53 39q33 14 75 14
q77 0 122 -46t45 -120v-48h-110v28q0 25 -1 36q-2 16 -6 26q-6 11 -17 17t-32 6q-32 0 -47 -19q-16 -19 -16 -52v-144q0 -28 17 -47q17 -18 46 -18q33 0 44 17q11 16 12 45v38v10h110v-47q0 -73 -44 -119q-44 -45 -121 -45q-86 0 -129 49q-45 49 -45 129v120z" />
    <glyph glyph-name="guillemotleft" unicode="&#xab;" horiz-adv-x="813" 
d="M203 251l236 -128v-100h-43l-322 183v89l322 183h43v-99zM498 251l237 -128v-100h-43l-322 183v89l322 183h43v-99z" />
    <glyph glyph-name="uni00AC" unicode="&#xac;" horiz-adv-x="661" 
d="M101 300v100h459v-152h-103v52h-356z" />
    <glyph glyph-name="uni00AE" unicode="&#xae;" horiz-adv-x="648" 
d="M548 498q0 -46 -17 -86q-16 -40 -47 -69q-30 -28 -71 -45q-39 -16 -89 -16t-89 16q-41 17 -71 45q-31 29 -47 69q-17 40 -17 86q0 45 17 87q17 39 47 68q28 26 71 44q39 16 89 16t89 -16q43 -18 71 -44q30 -29 47 -68q17 -42 17 -87zM310 553v-29h28q15 0 15 15
q0 14 -15 14h-28zM248 623h89q19 0 34 -4q14 -4 29 -14q14 -11 21 -24q8 -16 8 -35q0 -33 -22 -54q14 -14 14 -37v-70q23 20 36 47t13 66q0 66 -39 104q-38 37 -107 37q-45 0 -76 -16zM234 380v235q-56 -36 -56 -117q0 -80 56 -118zM344 454h-34v-78h-69q35 -20 83 -20
t83 20h-62v77q0 1 -1 1z" />
    <glyph glyph-name="uni00B0" unicode="&#xb0;" horiz-adv-x="420" 
d="M210 614q-22 0 -35 -12t-13 -33t13 -33q13 -13 35 -13t36 12q12 12 12 34t-12 34q-14 11 -36 11zM210 423q-30 0 -58 12q-26 10 -49 31q-22 19 -34 46q-13 25 -13 57t13 58q12 28 33 47q21 20 49 30q30 11 59 11q33 0 60 -10q28 -10 49 -30q20 -19 33 -46q12 -27 12 -60
q0 -31 -12 -58q-13 -27 -34 -46q-23 -21 -49 -31q-30 -11 -59 -11z" />
    <glyph glyph-name="guillemotright" unicode="&#xbb;" horiz-adv-x="813" 
d="M310 251l-236 128v99h43l322 -183v-89l-322 -183h-43v100zM606 251l-236 128v99h42l323 -183v-89l-323 -183h-42v100z" />
    <glyph glyph-name="uni00BF" unicode="&#xbf;" 
d="M339 502q61 0 61 -58q0 -31 -16 -44q-17 -14 -45 -14t-45 14q-16 13 -16 44q0 58 61 58zM589 22q0 -57 -21 -99q-23 -42 -58 -68t-83 -40q-48 -12 -100 -12q-49 0 -94 13q-47 14 -83 39q-35 24 -59 65q-23 41 -23 94q0 45 14 79q14 33 37 56q22 24 55 41q36 19 69 32
q2 1 6.5 3t7.5 3q8 4 11 6q10 5 11 8q3 6 5 24v24v30q-1 10 -1 30v10h110v-93q0 -46 -13 -73q-14 -29 -56 -48q-22 -10 -33 -14q-27 -10 -34 -13q-17 -7 -30 -15q-16 -10 -26 -21q-11 -15 -17 -30q-6 -18 -6 -42q0 -30 13 -49q15 -22 34 -34q20 -13 48 -19q25 -6 54 -6t55 6
q28 6 47 19q19 14 33 33q13 20 16 50q2 24 2 36q-1 11 -1 35v9h110v-69z" />
    <glyph glyph-name="uni00D7" unicode="&#xd7;" horiz-adv-x="665" 
d="M121 498l61 59l151 -148l150 148l61 -59l-152 -148l152 -147l-61 -60l-150 149l-151 -149l-61 60l152 147z" />
    <glyph glyph-name="uni00F7" unicode="&#xf7;" horiz-adv-x="648" 
d="M403 207q0 -31 -23 -54q-22 -22 -56 -22t-56 22q-23 23 -23 54q0 32 23 55q22 21 56 21q33 0 56 -22q23 -23 23 -54zM403 493q0 -33 -23 -54q-22 -22 -56 -22q-33 0 -55 22q-24 23 -24 54q0 32 23 55q22 22 56 22t56 -22q23 -23 23 -55zM101 392h446v-84h-446v84z" />
    <glyph glyph-name="uni0335" unicode="&#x335;" horiz-adv-x="0" 
d="M-383 628h323v-95h-323v95z" />
    <glyph glyph-name="uni0336" unicode="&#x336;" horiz-adv-x="0" 
d="M-60 566v-97h-634v97h634z" />
    <glyph glyph-name="uni0337" unicode="&#x337;" horiz-adv-x="0" 
d="M-159 562l99 -30l-205 -599l-100 30z" />
    <glyph glyph-name="uni0338" unicode="&#x338;" horiz-adv-x="0" 
d="M-161 772l101 -31l-283 -823l-102 30z" />
    <glyph glyph-name="uni2013" unicode="&#x2013;" horiz-adv-x="652" 
d="M82 214v101h488v-101h-488z" />
    <glyph glyph-name="uni2014" unicode="&#x2014;" horiz-adv-x="944" 
d="M82 214v101h780v-101h-780z" />
    <glyph glyph-name="uni2018" unicode="&#x2018;" horiz-adv-x="258" 
d="M134 622q31 -2 49 -20q19 -19 19 -49q0 -31 -20 -51q-22 -20 -53 -20t-52 21q-21 19 -21 50v82q0 41 25 60q25 20 62 20h57v-72h-59q-5 0 -6 -1v-1q-1 -1 -1 -3v-16z" />
    <glyph glyph-name="uni2019" unicode="&#x2019;" horiz-adv-x="258" 
d="M124 575q-28 1 -48 21t-20 48q0 32 21 51q20 20 52 20q33 0 53 -19q20 -20 20 -52v-81q0 -39 -24 -60t-62 -21h-58v72h59q2 0 3 1h3q1 1 1 5v15z" />
    <glyph glyph-name="uni201A" unicode="&#x201a;" horiz-adv-x="258" 
d="M124 -11q-30 2 -48 21q-20 20 -20 48q0 32 21 51q20 20 52 20q33 0 53 -19q20 -20 20 -52v-82q0 -40 -24 -60q-25 -20 -62 -20h-58v72h59q5 0 6 1t1 5v15z" />
    <glyph glyph-name="uni201C" unicode="&#x201c;" horiz-adv-x="394" 
d="M192 590v45q0 6 1 8h-52q-5 0 -6 -1v-1q-1 -1 -1 -3v-16q38 -1 58 -32zM270 622q31 -2 49 -20q19 -19 19 -49q0 -31 -20 -51q-22 -20 -53 -20q-24 0 -41 13q-19 12 -27 32q-8 -20 -26 -32q-17 -13 -42 -13q-31 0 -52 21q-21 19 -21 50v82q0 41 25 60q25 20 62 20h57v-42
q11 21 32 32q19 10 47 10h57v-72h-59q-5 0 -6 -1v-1q-1 -1 -1 -3v-16z" />
    <glyph glyph-name="uni201D" unicode="&#x201d;" horiz-adv-x="394" 
d="M197 672q8 20 27 32q19 11 41 11q33 0 53 -19q20 -20 20 -52v-81q0 -39 -24 -60t-62 -21h-58v43q-11 -22 -30 -32q-22 -11 -48 -11h-58v72h59q2 0 3 1h3q1 1 1 5v15q-28 1 -48 21t-20 48q0 32 21 51q20 20 52 20q24 0 43 -11q18 -13 25 -32zM260 575q-20 2 -34 10
q-14 9 -24 23v-45v-9h52q2 0 3 1h3v5v15z" />
    <glyph glyph-name="uni201E" unicode="&#x201e;" horiz-adv-x="394" 
d="M197 85q8 20 27 32q18 12 41 12q33 0 53 -19q20 -20 20 -52v-82q0 -40 -24 -60q-25 -20 -62 -20h-58v41q-11 -21 -30 -31q-20 -10 -48 -10h-58v72h59q5 0 6 1t1 5v15q-30 2 -48 21q-20 20 -20 48q0 32 21 51q20 20 52 20q25 0 43 -12q18 -13 25 -32zM260 -11
q-38 1 -58 32v-45v-8h52q4 0 6 1v5v15z" />
    <glyph glyph-name="uni2022" unicode="&#x2022;" horiz-adv-x="360" 
d="M180 227q-27 0 -48 10q-24 9 -41 26q-16 15 -28 40q-11 24 -11 47q0 24 11 48q11 23 28 39q16 16 41 27q22 9 48 9q28 0 49 -10q26 -12 41 -26q18 -18 28 -39t10 -48q0 -26 -10 -47t-28 -39q-17 -16 -41 -27q-21 -10 -49 -10z" />
    <glyph glyph-name="uni2032" unicode="&#x2032;" horiz-adv-x="373" 
d="M129 700h132l-59 -277h-85z" />
    <glyph glyph-name="uni2033" unicode="&#x2033;" horiz-adv-x="498" 
d="M130 700h256l-59 -277h-86l10 223l-48 -223h-85z" />
    <glyph glyph-name="uni2039" unicode="&#x2039;" horiz-adv-x="525" 
d="M200 251l247 -128v-100h-29h-5q-4 0 -6 1q-3 0 -7 2l-326 180v89l326 181q6 2 14 2h33v-100z" />
    <glyph glyph-name="uni203A" unicode="&#x203a;" horiz-adv-x="525" 
d="M326 251l-248 127v100h29h3h4h5q1 0 3 -1t3 -1l326 -181v-89l-326 -180q-5 -3 -14 -3h-33v100z" />
    <glyph glyph-name="uni2044" unicode="&#x2044;" horiz-adv-x="681" 
d="M354 443l212 276l90 -64l-225 -267zM326 257l-212 -276l-89 64l225 267z" />
    <glyph glyph-name="Euro" unicode="&#x20ac;" horiz-adv-x="693" 
d="M548 430v10q0 41 -8 78q-8 34 -27 60q-19 25 -52 39q-30 13 -79 13q-43 0 -77 -14q-31 -13 -55 -38q-22 -25 -34 -59q-12 -35 -15 -75h201v-80h-202v-20h202v-80h-202q3 -43 15 -77q11 -37 33 -62q24 -27 55 -40q33 -15 79 -15q87 0 127 43q39 43 39 126v36h91v-36
q0 -57 -18 -103q-18 -47 -51 -80t-80 -51q-48 -18 -108 -18q-66 0 -116 21t-84 58t-52 88q-19 48 -22 110h-76v80h76v20h-76v80h77q5 62 23 108q20 50 53 85q35 37 84 56q51 20 113 20q69 0 117 -19q47 -18 80 -55q31 -35 46 -86q14 -53 14 -113v-10h-91z" />
    <glyph glyph-name="uni2122" unicode="&#x2122;" horiz-adv-x="646" 
d="M356 531v-79h-76v178h-64v-178h-76v178h-74v70h315l42 -136l42 136h101v-248h-76v79l-24 -79h-86z" />
    <glyph glyph-name="arrowleft" unicode="&#x2190;" horiz-adv-x="830" 
d="M224 310h556v-102h-556l163 -157l-76 -73l-261 251v60l261 251l76 -73z" />
    <glyph glyph-name="arrowup" unicode="&#x2191;" horiz-adv-x="681" 
d="M397 538v-538h-108v538l-163 -156l-76 73l262 251h62l261 -251l-75 -73z" />
    <glyph glyph-name="arrowright" unicode="&#x2192;" horiz-adv-x="830" 
d="M606 208h-556v102h556l-163 157l76 73l261 -251v-60l-261 -251l-76 73z" />
    <glyph glyph-name="arrowdown" unicode="&#x2193;" horiz-adv-x="681" 
d="M289 162v538h108v-538l163 156l75 -73l-261 -251h-62l-262 251l76 73z" />
    <glyph glyph-name="uni2196" unicode="&#x2196;" horiz-adv-x="658" 
d="M263 399l363 -348l-76 -74l-364 349v-221l-106 -2v355l45 43h370l-2 -102h-230z" />
    <glyph glyph-name="uni2197" unicode="&#x2197;" horiz-adv-x="658" 
d="M472 326l-363 -349l-77 74l363 348h-229l-2 102h369l45 -43v-355l-106 2v221z" />
    <glyph glyph-name="uni2198" unicode="&#x2198;" horiz-adv-x="658" 
d="M395 102l-363 348l77 74l363 -348v220l106 2v-355l-45 -43h-369l2 102h229z" />
    <glyph glyph-name="uni2199" unicode="&#x2199;" horiz-adv-x="658" 
d="M186 176l364 348l76 -74l-363 -348h230l2 -102h-370l-45 43v355l106 -2v-220z" />
    <glyph glyph-name="uni2212" unicode="&#x2212;" horiz-adv-x="648" 
d="M101 392h446v-84h-446v84z" />
    <glyph glyph-name="uni2248" unicode="&#x2248;" horiz-adv-x="688" 
d="M402 420q4 2 5 3q2 2 3 2l99 84l71 -74l-95 -78q-15 -12 -38 -27q-22 -13 -48 -13q-11 0 -22 3q1 -2 4.5 -7t5.5 -8q6 -10 9 -14q2 -6 8 -8l2 1l4 4l99 83l71 -74l-95 -78q-15 -12 -38 -27q-22 -13 -48 -13q-33 0 -52 16q-20 15 -34 33q-2 2 -10 16q-2 3 -10 14
q-3 6 -6 9q-3 0 -5 -3l-1 -1q-1 0 -2 -1l-99 -84l-71 74l95 78q15 12 38 27q20 13 48 13q12 0 22 -3q-1 3 -4 8t-5 8t-6 7.5t-4 5.5q-3 6 -6 9q-2 0 -2 -1q-1 0 -3 -2t-3 -2l-99 -84l-71 74l95 78q15 12 38 27q20 13 48 13q32 0 52 -15q20 -17 33 -33q6 -8 12 -17
q6 -10 9 -14q3 -6 6 -9z" />
    <glyph glyph-name="_FSHallmark" horiz-adv-x="754" 
d="M619 388h76q0 15 -8 37q-16 37 -50 51q-33 13 -72 13q-28 0 -52 -6q-32 -11 -56 -30t-24 -57q0 -43 38 -63q36 -19 92 -33q60 -14 60 -36q0 -12 -15 -19q-15 -9 -40 -9q-23 0 -36 7q-7 3 -19 13q-9 8 -11 20q-3 7 -3 11l-73 1q0 -29 13 -49q12 -22 32 -36t44 -21t50 -7
q36 0 72 12q35 12 55 44q9 17 8 38q-2 19 -9 33q-9 12 -24 21q-1 0 -3.5 1.5t-4.5 2.5q-1 1 -4 2t-4 2l-9 3q-2 0 -5.5 1t-4.5 1q-14 2 -22 5q-3 1 -11 3l-12 3l-27 6q-18 4 -34 13q-14 8 -14 31q0 12 16 22q16 9 36 9h9q1 0 4 -1t5 -1q1 0 4 -2t5 -2q1 0 4 -2t5 -2
q2 -1 4.5 -3t3.5 -3q4 -4 6 -7q5 -8 5 -17zM329 213q0 -15 12 -25q11 -11 26 -11q17 0 30 10q12 11 12 26t-12 26q-14 11 -30 11q-17 0 -27 -10q-11 -11 -11 -27zM701 529v74h-630v-74h630zM305 277v70h-151v70h182v71h-265v-313h83v102h151zM700 61v75h-631v-75h631z" />
    <glyph glyph-name="_Fontastica" horiz-adv-x="754" 
d="M216 53q0 -11 -9 -13q-1 -1 -4 -1q-10 0 -13 10q-3 5 1 11t8 7q2 0 3 1q7 0 11 -4q3 -5 3 -10v-1zM377 65q1 -1 1 -2t1 -2l2 -6q1 -5 3 -6h-15zM634 65q1 -1 1 -2t1 -2t1 -2t1 -2t1 -2t1 -2q0 -3 1 -4h-14zM203 76q-11 0 -17 -7q-7 -7 -7 -18q0 -13 14 -19q3 -3 9 -3l2 1
q1 0 2 1h2q15 2 19 13q4 12 -2 20q-7 12 -22 12zM279 46q-1 1 -2 3t-2 3q0 1 -1.5 3t-2.5 4t-5 6l-5 5q-1 4 -5 6h-8v-44h10v27l4 -4q1 -1 2.5 -3.5t2.5 -3.5q1 0 1 -1t1 -2l1 -1q0 -2 1 -2t1 -1t1 -2l1 -1q0 -2 1 -2q5 -5 7 -5t3 1h3v44h-9v-30zM365 34q0 1 1 2q0 4 1 5h20
l2 -5q0 -3 1 -4h10q-1 1 -1 2q-1 2 -1 3t-1 3t-1 3q-4 13 -9 21q-3 5 -5 10h-10l-18 -42h9zM444 55q0 1 -2 1t-2 1q-1 1 -3.5 1.5t-3.5 0.5q-5 5 -3 6q0 3 3 3h6q1 -1 2 -1q2 0 3 -1t2 -1q2 0 3 -1l4 8q-7 4 -18 4q-2 0 -10 -2q-7 -4 -6 -11q0 -9 7 -10q3 0 4 -1t2 -1
q10 -1 10 -9q0 1 -3 -2h-6l-14 4q-1 -1 -1 -3l-1 -1q0 -1 -1 -2q7 -7 21 -7q7 0 8 1q9 5 8 13q0 9 -9 10zM569 63q2 3 8 5h2q7 0 12 -5l4 6q-8 8 -18 8q-9 0 -17 -8q-7 -7 -6 -17q2 -10 7 -16q8 -5 16 -5q12 0 18 9l-4 4q-7 -4 -14 -4q-6 0 -9 4q-4 4 -4 11q0 5 5 8zM628 76
q-8 -24 -18 -44h10l4 9h21l4 -9h10q-3 3 -5 11q-2 4 -5 12l-9 21h-12zM218 549h294v78h-382v-510q0 -3 1 -4h87v147h295v79h-295v210zM273 114h383v513h-87v-146h-296v-79h296v-210h-296v-78zM162 56h-20v12h21v8h-32v-44h11v17h20v7zM330 68h14v8h-37v-8h14v-36h9v36z
M492 68h14v8h-38v-8h14v-36h10v36zM524 32h11v44h-11v-44z" />
    </font>
</defs>
</svg>
