<?xml version="1.0" standalone="no"?>
<!DOCTYPE svg PUBLIC "-//W3C//DTD SVG 1.1//EN" "http://www.w3.org/Graphics/SVG/1.1/DTD/svg11.dtd" >
<svg xmlns="http://www.w3.org/2000/svg" xmlns:xlink="http://www.w3.org/1999/xlink" version="1.1">
<metadata>
Created by FontForge 20170731 at Fri Sep 21 21:33:33 2018
 By Aleksey,,,
Copyright (c) 2018 by Fontastica. All rights reserved.
</metadata>
<defs>
<font id="MriyaGrotesk-Bold" horiz-adv-x="648" >
  <font-face 
    font-family="Mriya Grotesk Bold"
    font-weight="700"
    font-stretch="normal"
    units-per-em="1000"
    panose-1="0 0 8 0 0 0 0 0 0 0"
    ascent="800"
    descent="-200"
    x-height="496"
    cap-height="700"
    bbox="-683 -235 939 810"
    underline-thickness="50"
    underline-position="-200"
    unicode-range="U+0020-2248"
  />
<missing-glyph horiz-adv-x="840" 
 />
    <glyph glyph-name=".notdef" horiz-adv-x="840" 
 />
    <glyph glyph-name=".null" horiz-adv-x="0" 
 />
    <glyph glyph-name="nonmarkingreturn" horiz-adv-x="333" 
 />
    <glyph glyph-name="uni0020" unicode=" " horiz-adv-x="330" 
 />
    <glyph glyph-name="uni0022" unicode="&#x22;" horiz-adv-x="394" 
d="M197 672q8 20 27 32q19 11 41 11q33 0 53 -19q20 -20 20 -52v-81q0 -39 -24 -60t-62 -21h-58v43q-11 -22 -30 -32q-22 -11 -48 -11h-58v72h59q2 0 3 1h3q1 1 1 5v15q-28 1 -48 21t-20 48q0 32 21 51q20 20 52 20q24 0 43 -11q18 -13 25 -32zM260 575q-20 2 -34 10
q-14 9 -24 23v-45v-9h52q2 0 3 1h3v5v15z" />
    <glyph glyph-name="uni0023" unicode="#" horiz-adv-x="645" 
d="M44 419v80h130v201h88v-201h121v201h87v-201h131v-80h-131v-138h131v-80h-131v-201h-87v201h-121v-201h-88v201h-130v80h130v138h-130zM383 419h-121v-138h121v138z" />
    <glyph glyph-name="uni0024" unicode="$" horiz-adv-x="639" 
d="M372 74q50 9 85 38q33 28 33 81q0 23 -9 43q-11 19 -26 31q-13 10 -38 23q-23 9 -45 15v-231zM284 627q-21 -3 -42 -11q-22 -10 -35 -22q-15 -12 -25 -32q-9 -18 -9 -41q0 -25 9 -41q9 -17 24 -29q16 -13 35 -20q18 -8 43 -15v211zM492 437v48q0 119 -120 140v-231
q44 -11 79 -24q38 -15 67 -38q30 -24 46 -57q17 -36 17 -86q0 -44 -17 -80q-16 -35 -46 -60q-27 -24 -67 -40q-39 -16 -79 -20v-99h-88v99q-115 12 -174 80q-60 67 -60 182v44h92v-9v-31q-1 -10 1 -32q6 -65 42 -102q36 -39 99 -48v255q-37 10 -76 24q-38 14 -65 35
q-29 23 -45 56q-17 34 -17 82q0 43 18 76q19 33 47 55q32 25 65 37q36 14 73 18v99h88v-100q100 -13 156 -68q56 -56 56 -156l-1 -49h-91z" />
    <glyph glyph-name="uni0025" unicode="%" horiz-adv-x="815" 
d="M669 179q0 88 -89 88q-44 0 -67 -23t-23 -65v-27q0 -41 23 -64t67 -23q89 0 89 87v27zM404 156v18q0 81 47 126q47 44 129 44t128 -45q47 -45 47 -125v-18q0 -80 -47 -124q-46 -45 -128 -45t-129 45q-47 44 -47 124zM146 521q0 -42 23 -65t66 -23q90 0 90 88v27
q0 88 -90 88q-43 0 -66 -23t-23 -65v-27zM410 543v-18q0 -80 -47 -124q-47 -45 -128 -45t-128 45q-47 44 -47 124v18q0 81 47 126q47 44 128 44t128 -45q47 -47 47 -125zM509 417q-29 -35 -54 -69q-30 -41 -53 -70l-226 -293l-74 53l235 288q18 23 56 69q26 30 54 68
q15 20 46 60.5t47 61.5l93 123l6 7l74 -53l-7 -8q-72 -87 -98 -118q-33 -39 -99 -119z" />
    <glyph glyph-name="uni0026" unicode="&#x26;" horiz-adv-x="731" 
d="M423 150l-169 168q-44 -18 -75 -49t-31 -82q0 -27 10 -48q8 -21 26 -37q16 -16 40 -24q23 -9 50 -9q50 0 85 22q38 25 64 59zM313 627q-21 0 -41 -6t-35 -18t-24 -28q-9 -17 -9 -38q0 -41 24 -70q23 -29 58 -52q10 3 48 19q25 11 44 27q22 17 34 34q13 19 13 42
q0 21 -10 37q-11 17 -26 28t-36 19q-19 6 -40 6zM485 91q-40 -48 -93 -77q-52 -28 -120 -28q-45 0 -84 15q-39 13 -68 41q-31 26 -47 63q-17 39 -17 82q0 28 8 62q8 33 23 56q16 27 39 47q23 22 54 32q-32 27 -50 68t-18 83t18 75q18 34 48 56q27 22 66 34q39 11 76 11
q38 0 72 -12q36 -14 61 -35t43 -55q16 -31 16 -70q0 -37 -13 -64q-13 -29 -35 -54q-25 -26 -50 -41q-28 -17 -59 -30l116 -125l106 198h101l-143 -261l170 -162h-124z" />
    <glyph glyph-name="uni0027" unicode="'" horiz-adv-x="258" 
d="M124 575q-28 1 -48 21t-20 48q0 32 21 51q20 20 52 20q33 0 53 -19q20 -20 20 -52v-81q0 -39 -24 -60t-62 -21h-58v72h59q2 0 3 1h3q1 1 1 5v15z" />
    <glyph glyph-name="uni0028" unicode="(" horiz-adv-x="423" 
d="M150 549q0 57 13 102t42 80q27 33 73 53q44 18 106 18h19v-79h-10q-45 0 -75 -12t-47 -35q-17 -21 -25 -56t-8 -75v-522q0 -40 8 -75t25 -56q17 -23 47 -35t75 -12h10v-80h-19q-64 0 -106 19q-45 19 -73 52q-29 35 -42 80t-13 103v530z" />
    <glyph glyph-name="uni0029" unicode=")" horiz-adv-x="423" 
d="M273 19q0 -58 -13 -103q-14 -47 -41 -80q-28 -32 -72 -52q-44 -19 -107 -19h-20v80h10q45 0 75 12q29 12 48 35q18 24 25 56q7 31 7 75v522q0 44 -7 75q-7 32 -25 56q-19 23 -48 35q-30 12 -75 12h-10v79h20q62 0 107 -18q45 -20 72 -53t41 -80q13 -45 13 -102v-530z" />
    <glyph glyph-name="uni002B" unicode="+" 
d="M101 392h179v175h88v-175h179v-84h-179v-175h-88v175h-179v84z" />
    <glyph glyph-name="uni002C" unicode="," horiz-adv-x="258" 
d="M124 -11q-30 2 -48 21q-20 20 -20 48q0 32 21 51q20 20 52 20q33 0 53 -19q20 -20 20 -52v-82q0 -40 -24 -60q-25 -20 -62 -20h-58v72h59q5 0 6 1t1 5v15z" />
    <glyph glyph-name="uni002D" unicode="-" horiz-adv-x="491" 
d="M82 220v84h327v-84h-327z" />
    <glyph glyph-name="uni002F" unicode="/" horiz-adv-x="501" 
d="M353 700h90l-299 -889h-90z" />
    <glyph glyph-name="uni0030" unicode="0" horiz-adv-x="650" 
d="M64 424q0 62 15 115q13 50 46 91q31 38 81 61q48 22 119 22q72 0 120 -22q49 -23 81 -60q31 -38 46 -92q14 -54 14 -115v-148q0 -61 -14 -115q-16 -55 -46 -91q-31 -38 -81 -61q-48 -22 -120 -22q-71 0 -119 22q-50 23 -81 61q-33 41 -46 92q-15 52 -15 114v148zM156 272
q0 -42 9 -80q7 -35 28 -64q19 -27 53 -42q31 -16 79 -16t80 16q33 16 52 42q20 28 29 64q8 40 8 80v156q0 40 -8 80q-9 36 -29 64q-18 25 -52 43q-33 15 -80 15t-79 -15q-34 -17 -53 -43q-21 -29 -28 -64q-9 -38 -9 -80v-156z" />
    <glyph glyph-name="uni0031" unicode="1" horiz-adv-x="436" 
d="M260 579l-138 -197h-112l227 318h117l-2 -700h-92v579z" />
    <glyph glyph-name="uni0032" unicode="2" horiz-adv-x="612" 
d="M54 469q0 54 20 102q20 46 54 77t83 48q48 17 103 17q52 0 99 -15q45 -17 79 -46q34 -31 53 -72q19 -42 19 -97t-19 -93t-51 -67q-29 -26 -74 -47q-40 -19 -88 -31q-17 -6 -50 -13q-28 -8 -54 -18q-49 -19 -68 -49q-18 -30 -18 -82h426v-83h-518v82q0 60 20 102
q19 40 52 67q34 28 78 44q34 13 95 29q38 10 67 21q32 11 57 30q24 18 39 45q14 26 14 63q0 72 -43 109q-44 38 -115 38q-54 0 -95 -22q-42 -22 -61 -71q-8 -22 -10 -48q-2 -34 -2 -52v-9h-92v41z" />
    <glyph glyph-name="uni0033" unicode="3" horiz-adv-x="606" 
d="M332 436q49 -3 89 -18q43 -18 71 -44q31 -30 47 -68q17 -42 17 -92q0 -52 -19 -93q-19 -42 -54 -72q-34 -29 -79 -46q-44 -16 -95 -16q-41 0 -76 7q-36 7 -70 25q-31 16 -57 44q-23 25 -41 65q-15 36 -16 65q-3 31 -3 66v26h92v-41q0 -86 40 -129q41 -45 131 -45
q32 0 62 11q29 11 49 29q21 20 33 46q11 28 11 60q0 41 -15 68t-40 43q-24 14 -57 22q-33 6 -68 6h-37q-13 -1 -36 -1h-10v78l215 183h-356v85h498v-74z" />
    <glyph glyph-name="uni0034" unicode="4" horiz-adv-x="616" 
d="M20 205l343 495h120v-480h121v-84h-121v-136h-91v136h-372v69zM392 587l-257 -367h257v367z" />
    <glyph glyph-name="uni0035" unicode="5" horiz-adv-x="606" 
d="M111 700h415v-83h-331l-24 -169q29 21 70 29q35 7 75 7q7 0 9 -1q6 0 7 -1q8 0 23 -2t22 -2q21 -3 44 -12q35 -13 63 -38q28 -26 43 -54q18 -33 25 -64q8 -37 8 -71q0 -55 -18 -102t-51 -80q-35 -33 -81 -51q-45 -19 -105 -19q-47 0 -92 14q-42 13 -78 41q-32 24 -56 65
q-22 37 -27 88q-2 20 -2 31v35v10h90v-10v-27q0 -17 1 -26q6 -68 51 -103q44 -35 113 -35q82 0 122 46q39 45 39 123q0 36 -9 66q-9 29 -27 51q-20 21 -46 33q-28 12 -65 12q-51 0 -92 -22q-42 -23 -63 -66l-5 -11l-89 63z" />
    <glyph glyph-name="uni0036" unicode="6" horiz-adv-x="624" 
d="M319 70q77 0 120 46q43 44 43 119q0 34 -11 67q-10 31 -32 54q-19 21 -51 35q-32 12 -69 12q-38 0 -68 -12q-32 -14 -51 -35q-22 -23 -32 -54q-12 -32 -12 -67q0 -37 12 -67q10 -28 32 -52q21 -22 52 -34q30 -12 67 -12zM156 413q31 37 80 54q45 16 95 16q56 0 100 -19
q44 -20 76 -53q33 -36 50 -79q17 -48 17 -97q0 -55 -19 -99q-20 -47 -53 -79q-34 -33 -81 -51q-45 -19 -102 -19t-102 19q-47 18 -81 51q-33 32 -53 79q-19 44 -19 99v229q0 59 19 104q19 46 54 78q36 33 82 50q49 17 106 17q49 0 96 -14q45 -16 77 -43q31 -28 51 -70
q19 -39 19 -94v-19h-92v19q0 72 -39 105q-40 33 -112 33q-80 0 -124 -41q-45 -41 -45 -119v-57z" />
    <glyph glyph-name="uni0037" unicode="7" horiz-adv-x="573" 
d="M18 700h535v-42v-13v-8q0 -2 -2 -8l-312 -629h-104l307 615h-424v85z" />
    <glyph glyph-name="uni0038" unicode="8" horiz-adv-x="610" 
d="M474 195q0 34 -14 59q-13 22 -37 38q-23 14 -54 22q-31 6 -64 6t-63 -6q-33 -8 -54 -22q-25 -15 -38 -39q-14 -25 -14 -58t14 -58q13 -24 38 -39q22 -15 54 -21q28 -7 63 -7t64 7q30 6 54 21q24 16 37 39q14 25 14 58zM460 517q0 30 -13 52q-15 23 -35 35t-50 20
q-28 6 -57 6t-57 -6q-30 -8 -50 -20t-35 -35q-14 -23 -14 -52t14 -52q13 -22 35 -35q24 -15 50 -20q27 -7 57 -7t57 7q26 5 50 20q22 13 35 35t13 52zM58 518q0 51 22 88t58 61q35 24 79 35q46 11 88 11q43 0 89 -11q43 -10 79 -34q35 -24 57 -61t22 -89q0 -54 -28 -92
q-28 -39 -73 -61q53 -21 85 -68q30 -46 30 -104q0 -53 -23 -93q-22 -38 -60 -64q-36 -25 -84 -37q-47 -12 -94 -12t-93 12q-45 12 -84 38q-38 26 -60 64q-24 37 -24 92q0 58 31 104q30 47 83 68q-46 23 -72 62q-28 38 -28 91z" />
    <glyph glyph-name="uni0039" unicode="9" horiz-adv-x="624" 
d="M305 630q-77 0 -120 -45q-43 -44 -43 -120q0 -36 12 -66q10 -29 32 -53q21 -23 52 -36q29 -13 67 -13q39 0 68 13q29 12 51 35t33 53q11 33 11 67q0 75 -42 120q-43 45 -121 45zM468 287q-30 -35 -79 -52t-96 -17q-53 0 -98 20q-47 21 -77 53q-34 34 -50 78
q-18 45 -18 96q0 55 19 100q20 47 53 78q34 32 81 52q47 18 102 18q57 0 103 -18t81 -51q32 -32 52 -78q19 -45 19 -101v-228q0 -59 -19 -104q-20 -48 -53 -78q-36 -34 -82 -50q-48 -18 -107 -18q-51 0 -95 15q-43 15 -77 44q-32 28 -52 69q-19 39 -19 93v19h92v-19
q0 -71 40 -104q40 -34 111 -34q79 0 125 41q44 41 44 119v57z" />
    <glyph glyph-name="uni003B" unicode=";" horiz-adv-x="258" 
d="M124 -11q-30 2 -48 21q-20 20 -20 48q0 32 21 51q20 20 52 20q33 0 53 -19q20 -20 20 -52v-82q0 -40 -24 -60q-25 -20 -62 -20h-58v72h59q5 0 6 1t1 5v15z" />
    <glyph glyph-name="uni003C" unicode="&#x3c;" 
d="M215 350l333 -136v-101l-448 193v89l448 192v-101z" />
    <glyph glyph-name="uni003D" unicode="=" 
d="M101 369v82h446v-82h-446zM101 249v83h446v-83h-446z" />
    <glyph glyph-name="uni003E" unicode="&#x3e;" 
d="M433 350l-333 136v101l448 -192v-89l-448 -193v101z" />
    <glyph glyph-name="uni003F" unicode="?" horiz-adv-x="646" 
d="M68 499q0 57 21 97t56 66q34 25 82 39q47 12 97 12q48 0 93 -12q47 -14 81 -38q34 -25 57 -65q21 -39 21 -92q0 -45 -14 -78q-14 -32 -37 -55q-25 -25 -56 -41q-30 -17 -68 -33q-22 -10 -26 -12q-10 -5 -11 -9q-3 -5 -5 -19q-2 -18 -2 -31q0 -22 1 -32v-26v-9h-92v85
q0 44 14 72q13 27 56 46q22 10 34 14q16 6 34 14q15 7 32 17q15 10 25 23q9 12 17 32q6 20 6 46q0 33 -13 55t-36 37q-22 13 -52 21q-27 7 -59 7q-33 0 -60 -7q-28 -7 -51 -21q-23 -15 -36 -37q-14 -23 -17 -55q-1 -16 0 -31v-32v-10h-92v62zM363 64q0 -50 -52 -50
q-51 0 -51 50q0 27 13 39q13 11 38 11t39 -11q13 -12 13 -39z" />
    <glyph glyph-name="uni0040" unicode="@" horiz-adv-x="1033" 
d="M506 442q-43 0 -71 -16q-29 -17 -47 -44q-19 -30 -26 -63q-9 -35 -9 -73t10 -69q9 -35 28 -59q20 -26 48 -41q28 -16 67 -16q42 0 71 17q30 17 47 43q18 29 25 63q8 37 8 72q0 34 -8 71q-9 34 -27 59q-19 25 -47 41q-29 15 -69 15zM498 -13q-56 0 -100 24q-41 21 -71 62
q-29 37 -42 87q-14 51 -14 100q0 46 15 93q14 45 45 83q29 36 71 59q41 22 96 22q50 0 89 -19q41 -20 72 -52v56h78v-418q7 -7 29 -13q6 -3 18 -7q14 -4 16 -5q31 45 46 99q14 54 14 108q0 68 -23 132q-25 63 -67 110q-44 47 -103 75t-133 28q-84 0 -147 -25
q-65 -26 -108 -70q-43 -46 -66 -111q-23 -66 -23 -145q0 -70 24 -133q22 -62 67 -110q43 -48 104 -76q61 -27 135 -27q52 0 110 20q56 19 99 53q-19 10 -38 31q-19 20 -27 42q-30 -32 -74 -53q-40 -20 -92 -20zM520 695q96 0 175 -32q77 -33 132 -91q55 -60 83 -136
q29 -79 29 -170q0 -89 -29 -170q-28 -77 -83 -137q-55 -57 -132 -90q-78 -33 -175 -33q-98 0 -174 33q-79 33 -132 91q-55 60 -83 137q-29 79 -29 169q0 89 29 170q28 76 83 136q54 57 132 90q76 33 174 33z" />
    <glyph glyph-name="uni0041" unicode="A" 
d="M18 0l253 700h106l253 -700h-100l-63 180h-287l-62 -180h-100zM324 588l-114 -325h228z" />
    <glyph glyph-name="uni0042" unicode="B" 
d="M174 310v-227h194q56 0 94 29q36 28 36 86q0 60 -38 86t-98 26h-188zM174 617v-223h194q56 0 94 29q36 29 36 85q0 28 -10 48q-11 21 -29 34q-16 12 -42 20q-22 7 -51 7h-192zM590 194q0 -48 -18 -84q-19 -37 -49 -61q-32 -24 -71 -36q-39 -13 -86 -13h-284v700h288
q44 0 84 -12q38 -12 70 -36q30 -24 48 -59q18 -36 18 -83q0 -52 -27 -93q-30 -43 -74 -64q48 -21 75 -64q26 -44 26 -95z" />
    <glyph glyph-name="uni0043" unicode="C" horiz-adv-x="663" 
d="M64 413q0 65 18 120q16 53 53 95q34 40 88 63q51 22 123 22q125 0 194 -66q69 -67 69 -189v-32h-92v32q0 83 -42 128q-44 44 -129 44q-52 0 -87 -16q-38 -17 -59 -44q-22 -28 -33 -68q-11 -42 -11 -87v-130q0 -44 11 -85q10 -39 34 -69q22 -28 59 -45q35 -16 86 -16
q52 0 85 13q33 14 52 38q20 24 27 61q7 34 7 83v9h92v-35q0 -59 -18 -105q-21 -50 -53 -79q-35 -34 -83 -50q-49 -18 -109 -18q-74 0 -124 23q-55 24 -88 62q-36 43 -52 95q-18 55 -18 120v126z" />
    <glyph glyph-name="uni0044" unicode="D" horiz-adv-x="660" 
d="M82 700h221q146 0 219 -70q74 -71 74 -213v-134q0 -141 -74 -212q-76 -71 -219 -71h-221v700zM174 617v-534h126q106 0 159 45q51 44 51 150v144q0 104 -52 150q-52 45 -158 45h-126z" />
    <glyph glyph-name="uni0045" unicode="E" horiz-adv-x="589" 
d="M82 700h456v-83h-364v-224h336v-84h-336v-226h367v-83h-459v700z" />
    <glyph glyph-name="uni0046" unicode="F" horiz-adv-x="566" 
d="M82 700h448v-83h-356v-224h336v-84h-336v-309h-92v700z" />
    <glyph glyph-name="uni0047" unicode="G" horiz-adv-x="669" 
d="M64 413q0 65 18 120q16 53 52 95q34 40 88 63q51 22 123 22q71 0 119 -19q50 -20 81 -54q31 -35 46 -86q14 -53 14 -114v-10h-92v10q0 42 -8 79q-7 35 -27 60q-18 23 -52 38q-30 13 -80 13q-52 0 -87 -16q-38 -17 -59 -44q-22 -28 -33 -68q-11 -42 -11 -87v-130
q0 -44 11 -85q10 -39 33 -68q22 -28 59 -45q36 -17 85 -17q88 0 129 42q40 41 40 127v17h-225v84h317v-101q0 -59 -18 -105q-21 -49 -52 -79q-36 -34 -82 -50q-50 -18 -109 -18q-74 0 -124 23q-54 23 -87 62q-36 41 -52 94q-17 57 -17 120v127z" />
    <glyph glyph-name="uni0048" unicode="H" horiz-adv-x="666" 
d="M82 700h92v-307h319v307h91v-700h-91v309h-319v-309h-92v700z" />
    <glyph glyph-name="uni0049" unicode="I" horiz-adv-x="256" 
d="M82 700h92v-700h-92v700z" />
    <glyph glyph-name="uni004A" unicode="J" horiz-adv-x="566" 
d="M488 700v-482q0 -52 -12 -94q-13 -43 -39 -73q-25 -30 -68 -47q-40 -17 -99 -17q-112 0 -170 63q-58 61 -58 168v63h92v-52q0 -37 7 -64q7 -30 24 -51q17 -22 43 -32q26 -12 64 -12q35 0 60 11t38 30q14 21 20 46q6 27 6 61v482h92z" />
    <glyph glyph-name="uni004B" unicode="K" horiz-adv-x="672" 
d="M174 366l364 334h132l-318 -288l301 -412h-113l-254 351l-112 -102v-249h-92v700h92v-334z" />
    <glyph glyph-name="uni004C" unicode="L" horiz-adv-x="567" 
d="M82 700h92v-617h371v-83h-463v700z" />
    <glyph glyph-name="uni004D" unicode="M" horiz-adv-x="884" 
d="M174 547v-547h-92v700h130l230 -584l230 584h130v-700h-92v547l-215 -547h-106z" />
    <glyph glyph-name="uni004E" unicode="N" horiz-adv-x="676" 
d="M174 564v-564h-92v700h121l299 -564v564h92v-700h-121z" />
    <glyph glyph-name="uni004F" unicode="O" horiz-adv-x="685" 
d="M64 424q0 64 18 117q16 52 52 92q35 38 87 59t121 21q70 0 122 -21t87 -59t53 -91q17 -54 17 -118v-148q0 -63 -17 -117q-18 -53 -53 -91q-37 -39 -88 -59q-51 -22 -121 -22q-69 0 -120 22q-52 21 -87 59t-53 92q-18 52 -18 116v148zM156 272q0 -44 12 -82q10 -36 34 -63
q22 -26 58 -42q34 -15 82 -15q95 0 142 56q45 56 45 146v156q0 90 -45 146q-47 56 -142 56q-48 0 -82 -15q-35 -15 -58 -41q-24 -29 -34 -64q-12 -37 -12 -82v-156z" />
    <glyph glyph-name="uni0050" unicode="P" horiz-adv-x="614" 
d="M174 617v-252h169q65 0 106 30q40 30 40 96t-40 96t-106 30h-169zM82 0v700h267q46 0 90 -14q41 -13 74 -40q31 -26 49 -66q18 -39 18 -89q0 -49 -18 -88q-18 -40 -49 -66q-32 -28 -74 -41q-44 -14 -90 -14h-175v-282h-92z" />
    <glyph glyph-name="uni0051" unicode="Q" horiz-adv-x="693" 
d="M653 50l-63 -66l-72 59q-37 -26 -83 -41q-48 -15 -93 -15q-69 0 -120 22q-52 21 -87 59t-53 92q-18 52 -18 116v148q0 64 18 117q16 52 52 92q35 38 87 59t121 21q70 0 122 -21t87 -59t53 -91q17 -54 17 -118v-148q0 -41 -8 -86q-9 -41 -32 -81zM156 272q0 -44 12 -82
q10 -36 34 -63q22 -26 58 -42q34 -15 82 -15q27 0 57 8q29 8 51 21l-116 95l57 70l118 -97q12 30 16 52q4 23 4 53v156q0 90 -45 146q-47 56 -142 56q-48 0 -82 -15q-35 -15 -58 -41q-24 -29 -34 -64q-12 -37 -12 -82v-156z" />
    <glyph glyph-name="uni0052" unicode="R" horiz-adv-x="640" 
d="M174 617v-244h188q65 0 106 29q40 28 40 93q0 66 -40 94t-106 28h-188zM594 0h-103l-161 289h-156v-289h-92v700h286q48 0 90 -13q41 -13 74 -40q29 -23 50 -64q18 -38 18 -88q0 -82 -48 -133q-47 -52 -125 -67z" />
    <glyph glyph-name="uni0053" unicode="S" horiz-adv-x="639" 
d="M583 437h-91v47q0 14 -2 38q-3 18 -12 34q-23 42 -65 58t-90 16q-27 0 -54 -6q-30 -8 -48 -20q-19 -12 -34 -34q-14 -22 -14 -49q0 -45 24 -66q25 -22 65 -35q22 -8 65 -17q23 -5 69 -17q39 -10 68 -22q34 -14 59 -36t42 -54q16 -32 16 -81q0 -53 -22 -91t-57 -64
q-36 -26 -81 -39q-47 -12 -93 -12q-130 0 -203 67q-75 68 -75 197v44h92v-41q0 -90 47 -137t138 -47q29 0 61 8q31 8 52 22q22 15 36 38t14 55q0 26 -11 46q-9 15 -28 31q-20 13 -39 20q-34 11 -44 14q-5 1 -17.5 4.5t-19.5 5.5q-6 1 -19 4t-19 5q-45 11 -76 22
q-41 15 -68 35q-30 21 -49 55t-19 86q0 50 22 85q23 36 57 60t79 36q46 11 85 11q35 0 71 -6q34 -6 67 -20q29 -14 58 -38q27 -24 43 -57q14 -26 17 -52t3 -55v-48z" />
    <glyph glyph-name="uni0054" unicode="T" horiz-adv-x="612" 
d="M22 700h568v-83h-238v-617h-92v617h-238v83z" />
    <glyph glyph-name="uni0055" unicode="U" horiz-adv-x="678" 
d="M78 700h92v-466q0 -164 169 -164t169 164v466h92v-466q0 -120 -70 -183q-70 -64 -191 -64q-120 0 -190 64q-71 63 -71 183v466z" />
    <glyph glyph-name="uni0056" unicode="V" 
d="M324 116l206 584h98l-252 -700h-104l-252 700h98z" />
    <glyph glyph-name="uni0057" unicode="W" horiz-adv-x="898" 
d="M449 565l-148 -565h-122l-140 700h94l111 -558l146 558h118l146 -558l110 558h95l-140 -700h-122z" />
    <glyph glyph-name="uni0058" unicode="X" horiz-adv-x="678" 
d="M275 353l-239 347h111l192 -283l192 283h111l-239 -347l243 -353h-111l-196 289l-196 -289h-111z" />
    <glyph glyph-name="uni0059" unicode="Y" horiz-adv-x="674" 
d="M28 700h108l201 -328l201 328h108l-263 -423v-277h-92v277z" />
    <glyph glyph-name="uni005A" unicode="Z" horiz-adv-x="612" 
d="M60 700h499v-66l-392 -551h403v-83h-522v67l392 550h-380v83z" />
    <glyph glyph-name="uni005B" unicode="[" horiz-adv-x="385" 
d="M150 721q0 34 23 57q22 22 58 22h114v-79h-100q-5 0 -6 -1t-1 -9v-855q0 -7 1 -8t6 -1h100v-80h-114q-35 0 -58 23t-23 57v874z" />
    <glyph glyph-name="uni005C" unicode="\" horiz-adv-x="503" 
d="M150 700l299 -889h-90l-299 889h90z" />
    <glyph glyph-name="uni005D" unicode="]" horiz-adv-x="385" 
d="M235 -153q0 -35 -23 -58q-22 -22 -58 -22h-114v80h100q5 0 6 1t1 8v855q0 8 -1 9t-6 1h-100v79h114q36 0 58 -22q23 -23 23 -57v-874z" />
    <glyph glyph-name="uni005E" unicode="^" horiz-adv-x="682" 
d="M341 616l-151 -215h-114l213 299h104l213 -299h-113z" />
    <glyph glyph-name="uni005F" unicode="_" horiz-adv-x="647" 
d="M84 -91v84h479v-84h-479z" />
    <glyph glyph-name="uni0061" unicode="a" horiz-adv-x="608" 
d="M443 223l-174 -15q-28 -2 -38 -4q-20 -4 -41 -12q-18 -7 -33 -22q-13 -13 -13 -36q0 -18 11 -32t27 -21q18 -8 36 -11q17 -4 39 -4q81 0 131 40q51 41 55 117zM446 62q-34 -40 -87 -57q-53 -18 -104 -18q-31 0 -68 8q-36 9 -64 27q-30 19 -47 46q-19 28 -19 68t20 68
t49 45t64 26q39 9 65 11l189 16v10q0 60 -36 88q-37 28 -97 28q-40 0 -63 -4q-27 -5 -46 -16q-21 -15 -34 -36q-16 -25 -29 -62l-4 -9l-79 34l3 8q15 49 39 80q22 30 55 51q31 20 72 27q43 8 88 8q49 0 88 -13q42 -14 69 -38q30 -27 46 -63t16 -87v-308h-86v62z" />
    <glyph glyph-name="uni0062" unicode="b" horiz-adv-x="646" 
d="M340 68q39 0 72 14q30 13 52 38t32 57q10 31 10 71t-10 71q-10 32 -32 57t-52 38q-33 14 -72 14q-38 0 -71 -14q-31 -13 -54 -38q-23 -24 -33 -57q-12 -33 -12 -71t12 -71q10 -33 33 -57q23 -25 54 -38q33 -14 71 -14zM168 0h-86v700h88v-265q33 41 79 57q48 17 100 17
q57 0 104 -21q46 -21 78 -56q31 -36 48 -83q17 -49 17 -101t-17 -100q-16 -47 -49 -83q-31 -36 -77 -57q-47 -21 -104 -21q-55 0 -101 18q-46 16 -80 58v-63z" />
    <glyph glyph-name="uni0063" unicode="c" horiz-adv-x="603" 
d="M553 311l1 -9l-88 -17l-1 10q-6 65 -46 99t-106 34q-37 0 -70 -14q-33 -16 -55 -39q-23 -26 -35 -57q-13 -32 -13 -70t13 -70q12 -32 35 -57q22 -25 55 -39t71 -14q65 0 106 35q40 35 48 99l1 10l88 -17l-1 -9q-7 -43 -29 -82q-21 -37 -53 -63q-34 -27 -72 -40
q-42 -14 -88 -14q-56 0 -105 20q-49 19 -84 56q-36 36 -55 83q-20 48 -20 102t20 103q20 48 55 83q36 36 83 55q49 20 105 20q44 0 86 -14q39 -13 74 -40q32 -26 53 -62q21 -38 27 -82z" />
    <glyph glyph-name="uni0064" unicode="d" horiz-adv-x="646" 
d="M306 69q39 0 72 14q29 12 53 38q22 23 34 57q11 35 11 71t-11 71q-12 34 -34 57q-24 26 -53 38q-30 13 -72 13q-41 0 -71 -13t-52 -38t-32 -57q-11 -35 -11 -71t11 -71q10 -32 32 -57t52 -38q33 -14 71 -14zM476 700h88v-700h-86v64q-34 -43 -79 -59q-48 -17 -102 -17
q-57 0 -103 21t-78 57q-33 36 -49 83q-17 48 -17 100t17 101q16 45 49 83q32 35 78 56q45 21 103 21q52 0 100 -17q46 -16 79 -57v264z" />
    <glyph glyph-name="uni0065" unicode="e" horiz-adv-x="595" 
d="M458 298q-7 62 -47 97q-40 33 -106 33q-64 0 -107 -35q-41 -34 -55 -95h315zM547 299q2 -22 2 -34v-37v-9h-407q8 -69 53 -110q44 -41 117 -41q58 0 93 26t57 77l4 9l83 -32l-4 -10q-35 -76 -90 -113q-56 -38 -143 -38q-59 0 -107 21q-47 19 -83 56q-35 35 -53 84
q-19 47 -19 104q0 55 19 100q21 50 53 82q34 36 80 55q48 20 103 20q48 0 92 -14q43 -15 74 -42q33 -29 52 -66q20 -39 24 -88z" />
    <glyph glyph-name="uni0066" unicode="f" horiz-adv-x="468" 
d="M183 496v7q0 65 14 105t41 60q27 19 71 27q44 6 103 6h15q4 -1 13 -1h10v-83h-9q-18 0 -26 1h-26q-42 0 -62 -4q-24 -5 -34 -16q-12 -12 -15 -35t-3 -61v-6h171v-80h-171v-416h-91v416h-160v80h159z" />
    <glyph glyph-name="uni0067" unicode="g" horiz-adv-x="646" 
d="M306 428q-41 0 -71 -13q-29 -12 -52 -37q-22 -25 -32 -56q-11 -33 -11 -70t11 -70q11 -32 32 -55q21 -24 52 -37q33 -14 71 -14q42 0 72 13q31 13 53 37q21 21 34 56q11 33 11 70t-11 70q-13 33 -34 56q-25 25 -53 37q-30 13 -72 13zM297 -6q-57 0 -102 21q-45 19 -78 55
t-49 82q-18 47 -18 100q0 54 18 100q16 45 49 81q32 35 78 56q46 20 102 20q54 0 102 -17q45 -17 79 -59v63h86v-455q0 -54 -18 -99q-18 -44 -50 -76t-77 -50q-47 -18 -101 -18q-85 0 -151 36t-108 109l-5 9l81 42l5 -9q55 -106 176 -106q80 0 120 45q40 44 40 122v23
q-34 -42 -79 -58q-48 -17 -100 -17z" />
    <glyph glyph-name="uni0068" unicode="h" horiz-adv-x="621" 
d="M170 435q31 37 74 54q41 16 93 16q48 0 87 -15q38 -15 65 -42t42 -65q14 -39 14 -84v-299h-87v295q0 129 -131 129q-42 0 -69 -13q-28 -12 -49 -37q-20 -25 -29 -56q-10 -30 -10 -70v-248h-88v700h88v-265z" />
    <glyph glyph-name="uni0069" unicode="i" horiz-adv-x="250" 
d="M194 625q0 -28 -20 -48q-19 -19 -49 -19t-49 19q-20 20 -20 48t20 48q19 19 49 19t49 -19q20 -20 20 -48zM81 0v496h88v-496h-88z" />
    <glyph glyph-name="uni006A" unicode="j" horiz-adv-x="256" 
d="M176 496v-10q0 -42 1 -125t1 -124v-251q0 -39 -4 -71q-5 -36 -28 -64q-15 -17 -22 -22q-16 -11 -20 -13q-7 -3 -23 -5q-5 -1 -15.5 -1.5t-15.5 -0.5q-9 -1 -27 -1h-28h-27v82h10h47h8q25 0 37 9q10 9 15 36q2 18 2 27q-1 9 -1 27v249q-1 82 -1 248v10h91zM200 625
q0 -28 -20 -48q-19 -19 -49 -19t-49 19q-21 19 -21 48t21 48q19 19 49 19t49 -19q20 -20 20 -48z" />
    <glyph glyph-name="uni006B" unicode="k" horiz-adv-x="602" 
d="M170 263l271 233h135l-245 -207l229 -289h-109l-185 234l-96 -82v-152h-88v700h88v-437z" />
    <glyph glyph-name="uni006C" unicode="l" horiz-adv-x="252" 
d="M170 700v-700h-88v700h88z" />
    <glyph glyph-name="uni006D" unicode="m" horiz-adv-x="864" 
d="M168 454q24 27 61 40q36 11 73 11q44 0 85 -18q40 -20 62 -58q26 41 67 59q42 17 90 17q38 0 73 -12q34 -12 57 -34q26 -24 38 -53q14 -33 14 -71v-335h-87v329q0 47 -27 71q-28 24 -76 24q-56 0 -88 -35q-31 -35 -31 -91v-298h-88v329q0 47 -27 71q-29 24 -76 24
q-57 0 -87 -35q-31 -35 -31 -91v-298h-88v496h86v-42z" />
    <glyph glyph-name="uni006E" unicode="n" horiz-adv-x="621" 
d="M168 433q33 39 75 55q45 17 94 17q48 0 87 -15q38 -15 65 -42t42 -65q14 -39 14 -84v-299h-87v295q0 129 -131 129q-42 0 -69 -13q-28 -12 -49 -37q-20 -25 -29 -56q-10 -30 -10 -70v-248h-88v496h86v-63z" />
    <glyph glyph-name="uni006F" unicode="o" horiz-adv-x="601" 
d="M564 248q0 -56 -18 -103q-18 -49 -51 -83q-36 -36 -81 -55q-49 -20 -107 -20t-106 20q-46 19 -81 55q-33 33 -52 83q-18 48 -18 103q0 56 18 104q19 49 52 82q35 36 81 55q48 20 106 20t107 -20q45 -19 81 -55q32 -34 51 -82q18 -48 18 -104zM476 248q0 37 -11 72
q-10 32 -32 57q-24 26 -53 38q-30 13 -73 13q-37 0 -70 -14q-31 -13 -54 -38q-23 -26 -33 -57q-12 -33 -12 -71q0 -37 11 -72q11 -33 33 -57q22 -23 54 -37q33 -14 71 -14q39 0 72 14q31 13 53 37t33 57q11 35 11 72z" />
    <glyph glyph-name="uni0070" unicode="p" horiz-adv-x="646" 
d="M340 428q-38 0 -71 -14q-31 -13 -54 -38q-23 -24 -33 -57q-12 -33 -12 -71t12 -71q10 -33 33 -57q23 -25 54 -38q33 -14 71 -14q39 0 72 14q30 13 52 38t32 57q10 31 10 71t-10 71q-10 32 -32 57t-52 38q-33 14 -72 14zM170 -189h-88v685h86v-64q33 42 80 60
q48 17 101 17q57 0 104 -21q46 -21 78 -56q31 -36 48 -83q17 -49 17 -101t-17 -100q-16 -47 -49 -83q-31 -36 -77 -57q-47 -21 -104 -21q-52 0 -100 17q-46 16 -79 57v-250z" />
    <glyph glyph-name="uni0071" unicode="q" horiz-adv-x="646" 
d="M306 428q-38 0 -71 -14q-30 -13 -52 -38t-32 -57q-11 -35 -11 -71t11 -71q10 -32 32 -57t52 -38q33 -14 71 -14q39 0 72 14q29 12 53 38q22 23 34 57q11 35 11 71t-11 71q-12 34 -34 57q-24 26 -53 38q-33 14 -72 14zM478 496h86v-685h-88v250q-33 -41 -79 -57
q-48 -17 -100 -17q-57 0 -103 21t-78 57q-33 36 -49 83q-17 48 -17 100t17 101q16 45 49 83q32 35 78 56q45 21 103 21q54 0 102 -17q45 -17 79 -59v63z" />
    <glyph glyph-name="uni0072" unicode="r" horiz-adv-x="393" 
d="M350 413l-11 1q-2 0 -7.5 1t-8.5 1h-17q-27 0 -48 -4q-23 -4 -43 -15t-31 -26q-12 -17 -12 -41q0 -50 -1 -75t-1 -75v-180h-87v496h87l1 -28q28 18 64 23q31 4 69 4h18h18h10v-82z" />
    <glyph glyph-name="uni0073" unicode="s" horiz-adv-x="575" 
d="M535 366l5 -9l-76 -39l-4 9q-15 33 -33 54q-20 22 -40 31q-19 9 -51 14q-29 3 -65 3q-19 0 -38 -3q-20 -3 -34 -10q-16 -8 -24 -19q-10 -13 -10 -32q0 -17 11 -30q9 -10 28 -19q19 -8 35 -11q18 -4 32 -6q23 -4 32 -5q22 -4 33 -5q19 -3 67 -13q31 -7 60 -23
q29 -18 44 -41q17 -26 17 -64q0 -44 -21 -76q-20 -30 -54 -50q-33 -20 -72 -27q-42 -8 -75 -8q-92 0 -162 48q-70 47 -102 132l-3 9l81 33l4 -10q22 -63 68 -97q43 -34 114 -34q25 0 46 4q27 5 44 13q19 9 32 25q12 15 12 37q0 19 -12 29q-14 12 -37 19q-15 5 -26 8
q-5 1 -15 2t-15 2t-16 3t-16 3q-6 0 -17.5 1.5t-16.5 2.5q-29 4 -66 14q-34 7 -61 24q-28 17 -44 42q-17 26 -17 66t18 68t46 45q31 18 63 25q37 8 66 8q46 0 89 -5q39 -6 69 -22q32 -17 57 -43q24 -26 50 -73z" />
    <glyph glyph-name="uni0074" unicode="t" horiz-adv-x="473" 
d="M427 496v-80h-159q-1 -38 -1 -113v-113v-29q0 -20 1 -29q1 -24 11 -34q9 -10 34 -13q33 -3 65 -3h39h10v-82h-53q-58 0 -93 7q-38 6 -61 26q-24 19 -34 55q-11 36 -11 93q0 13 1 20v20v195h-150v80h150v169h92v-169h159z" />
    <glyph glyph-name="uni0075" unicode="u" horiz-adv-x="621" 
d="M453 63q-33 -40 -74 -55q-43 -18 -95 -18q-48 0 -85 15q-40 15 -66 43q-27 27 -42 65q-15 37 -15 84v299h88v-295q0 -129 130 -129q39 0 70 14q31 15 49 37q18 20 29 56q10 30 10 69v248h87v-496h-86v63z" />
    <glyph glyph-name="uni0076" unicode="v" horiz-adv-x="570" 
d="M285 106l158 390h95l-207 -496h-92l-207 496h95z" />
    <glyph glyph-name="uni0077" unicode="w" horiz-adv-x="828" 
d="M414 379l-123 -379h-105l-134 496h91l99 -375l122 375h100l122 -375l99 375h91l-134 -496h-105z" />
    <glyph glyph-name="uni0078" unicode="x" horiz-adv-x="647" 
d="M323 196l-162 -196h-115l211 254l-203 242h113l156 -187l156 187h114l-203 -242l211 -254h-115z" />
    <glyph glyph-name="uni0079" unicode="y" horiz-adv-x="595" 
d="M297 116l171 380h95l-312 -685h-96l96 204l-219 481h95z" />
    <glyph glyph-name="uni007A" unicode="z" horiz-adv-x="557" 
d="M63 496h443v-64l-324 -352h331v-80h-459v64l324 352h-315v80z" />
    <glyph glyph-name="uni007B" unicode="{" horiz-adv-x="402" 
d="M220 284q21 -11 28 -32t7 -42v-354q0 -7 1 -8t5 -1h101v-80h-114q-35 0 -58 23t-23 57v374q0 7 -1 8t-6 1h-70v108h70q5 0 6 1t1 7v375q0 34 23 57q22 22 58 22h114v-79h-101q-4 0 -5 -1t-1 -9v-353q0 -21 -8 -42q-9 -20 -27 -32z" />
    <glyph glyph-name="uni007D" unicode="}" horiz-adv-x="402" 
d="M147 358v353q0 8 -1 9t-6 1h-100v79h114q36 0 58 -22q23 -23 23 -57v-375q0 -6 1 -7t6 -1h70v-108h-70q-5 0 -6 -1t-1 -8v-374q0 -34 -23 -57t-58 -23h-114v80h100q5 0 6 1t1 8v354q0 22 8 43q8 20 26 31q-18 10 -26 33q-8 22 -8 41z" />
    <glyph glyph-name="uni007E" unicode="~" horiz-adv-x="666" 
d="M558 362l-91 -73q-1 -1 -4 -3t-4 -3q-5 -5 -8 -7q-13 -10 -29 -18q-15 -7 -34 -7q-34 0 -52 18q-16 13 -35 43q-1 3 -4 7t-5 7q-1 2 -4.5 6.5t-5.5 7.5q-1 1 -5 1t-6 -2q-1 -1 -2 -1t-2 -1q-2 -1 -5 -4l-95 -79l-58 61l91 73q15 15 36 27t42 12q34 0 53 -18
q20 -19 36 -43q2 -3 5.5 -8t4.5 -7q6 -10 10 -15q5 0 10 3q3 1 8 6l95 79z" />
    <glyph glyph-name="uni00A2" unicode="&#xa2;" horiz-adv-x="649" 
d="M156 287q0 -35 8 -72q8 -36 24 -64q18 -31 43 -49q27 -21 64 -28v552q-40 -8 -65 -27q-25 -18 -43 -49q-16 -28 -24 -64q-7 -32 -7 -73v-126zM504 430v10q0 31 -5 66q-5 28 -20 56q-13 24 -37 41q-22 15 -60 23v-552q38 6 63 23q23 16 37 42t18 58q4 28 4 69v9h91v-36
q0 -101 -54 -168t-159 -81v-100h-87v99q-63 8 -105 34q-43 27 -72 68q-27 39 -41 91q-13 48 -13 105v126q0 57 13 106q15 53 41 91q28 40 72 67q42 26 105 34v99h87v-99q60 -8 100 -30q40 -24 66 -59q26 -36 36 -82q11 -49 11 -100v-10h-91z" />
    <glyph glyph-name="uni00A3" unicode="&#xa3;" 
d="M66 388h68v106q0 104 58 162q57 57 161 57q106 0 163 -59q56 -59 56 -160v-75h-92v73q0 64 -30 101q-31 37 -97 37t-96 -37q-31 -37 -31 -101v-104h136v-83h-136v-222h350v-83h-514v83h72v222h-68v83z" />
    <glyph glyph-name="uni00A5" unicode="&#xa5;" horiz-adv-x="674" 
d="M337 372l201 328h108l-218 -351h111v-79h-156v-21h156v-80h-156v-169h-92v169h-156v80h156v21h-156v79h111l-218 351h108z" />
    <glyph glyph-name="uni00A6" unicode="&#xa6;" horiz-adv-x="252" 
d="M170 346h-88v454h88v-454zM82 222h88v-455h-88v455z" />
    <glyph glyph-name="uni00A9" unicode="&#xa9;" horiz-adv-x="745" 
d="M373 639q-63 0 -111 -22t-83 -60q-34 -38 -52 -90q-18 -51 -18 -110t18 -112q17 -53 51 -90q33 -39 82 -60q48 -22 113 -22q61 0 112 23q49 22 83 61q34 37 52 90q18 51 18 110q0 58 -17 112q-19 53 -52 89q-35 38 -83 60q-49 21 -113 21zM373 0q-81 0 -144 28
q-65 27 -108 76q-45 48 -69 113t-24 140t24 140t69 113q43 47 108 76q65 27 144 27q81 0 145 -27q64 -28 109 -76q44 -49 68 -113t24 -140q0 -75 -24 -140t-68 -114q-45 -48 -109 -75q-63 -28 -145 -28zM213 410q0 39 10 70q11 32 30 56q20 25 51 38q33 14 73 14
q75 0 117 -44q42 -45 42 -115v-40h-92v9v22q0 13 -1 20q-2 33 -15 49t-50 16t-55 -23q-18 -22 -18 -60v-149q0 -31 20 -54q19 -22 53 -22q25 0 39 8q12 7 19 22q5 12 7 33q1 13 1 41v9h92v-38q0 -70 -41 -114t-116 -44q-83 0 -124 48q-42 46 -42 124v124z" />
    <glyph glyph-name="guillemotleft" unicode="&#xab;" horiz-adv-x="802" 
d="M174 248l250 -138v-86h-30l-320 184v80l320 184h30v-87zM474 248l250 -138v-86h-31l-319 184v80l319 184h31v-87z" />
    <glyph glyph-name="uni00AC" unicode="&#xac;" 
d="M101 308v84h446v-137h-85v53h-361z" />
    <glyph glyph-name="uni00AE" unicode="&#xae;" 
d="M548 498q0 -46 -17 -86q-16 -40 -47 -69q-30 -28 -71 -45q-39 -16 -89 -16t-89 16q-41 17 -71 45q-31 29 -47 69q-17 40 -17 86q0 45 17 87q17 39 47 68q28 26 71 44q39 16 89 16t89 -16q43 -18 71 -44q30 -29 47 -68q17 -42 17 -87zM310 553v-29h28q15 0 15 15
q0 14 -15 14h-28zM248 623h89q19 0 34 -4q14 -4 29 -14q14 -11 21 -24q8 -16 8 -35q0 -33 -22 -54q14 -14 14 -37v-70q23 20 36 47t13 66q0 66 -39 104q-38 37 -107 37q-45 0 -76 -16zM234 380v235q-56 -36 -56 -117q0 -80 56 -118zM344 454h-34v-78h-69q35 -20 83 -20
t83 20h-62v77q0 1 -1 1z" />
    <glyph glyph-name="uni00B0" unicode="&#xb0;" horiz-adv-x="404" 
d="M348 575q0 -28 -11 -55q-12 -25 -32 -45q-17 -17 -46 -29q-28 -11 -57 -11q-28 0 -55 11q-28 11 -47 30q-20 20 -32 45t-12 54q0 31 12 56q9 22 31 44q20 19 47 29q27 11 56 11q32 0 58 -10q29 -11 47 -28q19 -19 30 -45q11 -27 11 -57zM260 575q0 25 -15 42
q-16 15 -43 15q-26 0 -42 -15q-16 -16 -16 -42t16 -41q16 -16 42 -16q27 0 43 16q15 15 15 41z" />
    <glyph glyph-name="guillemotright" unicode="&#xbb;" horiz-adv-x="802" 
d="M324 248l-250 137v87h31l319 -184v-80l-319 -184h-31v86zM624 248l-250 137v87h30l320 -184v-80l-320 -184h-30v86z" />
    <glyph glyph-name="uni00BF" unicode="&#xbf;" horiz-adv-x="646" 
d="M576 12q0 -56 -21 -97q-21 -40 -56 -66q-35 -25 -81 -39q-46 -12 -98 -12q-47 0 -92 12q-49 14 -81 38q-36 25 -57 65q-22 38 -22 92q0 45 14 79q15 34 37 55q26 24 56 40q28 15 68 33q3 1 9.5 4.5t10.5 4.5q9 4 18 13q6 12 6 49v33q-1 10 -1 24v10h92v-85q0 -17 -2 -39
q-3 -20 -10 -32q-8 -15 -21 -25t-35 -21q-22 -10 -34 -14q-24 -10 -35 -15q-33 -13 -57 -39t-24 -79q0 -32 14 -55q13 -22 36 -37q22 -13 51 -21q27 -7 59 -7q34 0 61 7t50 21q23 15 36 37q14 23 17 55q1 11 1 32q-1 10 -1 31v10h92v-62zM281 447q0 50 52 50q27 0 39 -12
t12 -38q0 -50 -51 -50q-52 0 -52 50z" />
    <glyph glyph-name="uni00D7" unicode="&#xd7;" horiz-adv-x="665" 
d="M121 498l61 59l151 -148l150 148l61 -59l-152 -148l152 -147l-61 -60l-150 149l-151 -149l-61 60l152 147z" />
    <glyph glyph-name="uni00F7" unicode="&#xf7;" 
d="M403 207q0 -31 -23 -54q-22 -22 -56 -22t-56 22q-23 23 -23 54q0 32 23 55q22 21 56 21q33 0 56 -22q23 -23 23 -54zM403 493q0 -33 -23 -54q-22 -22 -56 -22q-33 0 -55 22q-24 23 -24 54q0 32 23 55q22 22 56 22t56 -22q23 -23 23 -55zM101 392h446v-84h-446v84z" />
    <glyph glyph-name="uni0335" unicode="&#x335;" horiz-adv-x="0" 
d="M-368 626h308v-77h-308v77z" />
    <glyph glyph-name="uni0336" unicode="&#x336;" horiz-adv-x="0" 
d="M-60 562v-80h-623v80h623z" />
    <glyph glyph-name="uni0337" unicode="&#x337;" horiz-adv-x="0" 
d="M-141 555l81 -24l-202 -597l-82 24z" />
    <glyph glyph-name="uni0338" unicode="&#x338;" horiz-adv-x="0" 
d="M-143 771l83 -26l-281 -827l-84 25z" />
    <glyph glyph-name="uni2013" unicode="&#x2013;" horiz-adv-x="639" 
d="M82 220v84h475v-84h-475z" />
    <glyph glyph-name="uni2014" unicode="&#x2014;" horiz-adv-x="935" 
d="M82 220v84h771v-84h-771z" />
    <glyph glyph-name="uni2018" unicode="&#x2018;" horiz-adv-x="258" 
d="M134 622q31 -2 49 -20q19 -19 19 -49q0 -31 -20 -51q-22 -20 -53 -20t-52 21q-21 19 -21 50v82q0 41 25 60q25 20 62 20h57v-72h-59q-5 0 -6 -1v-1q-1 -1 -1 -3v-16z" />
    <glyph glyph-name="uni2019" unicode="&#x2019;" horiz-adv-x="258" 
d="M124 575q-28 1 -48 21t-20 48q0 32 21 51q20 20 52 20q33 0 53 -19q20 -20 20 -52v-81q0 -39 -24 -60t-62 -21h-58v72h59q2 0 3 1h3q1 1 1 5v15z" />
    <glyph glyph-name="uni201A" unicode="&#x201a;" horiz-adv-x="258" 
d="M124 -11q-30 2 -48 21q-20 20 -20 48q0 32 21 51q20 20 52 20q33 0 53 -19q20 -20 20 -52v-82q0 -40 -24 -60q-25 -20 -62 -20h-58v72h59q5 0 6 1t1 5v15z" />
    <glyph glyph-name="uni201C" unicode="&#x201c;" horiz-adv-x="394" 
d="M192 590v45q0 6 1 8h-52q-5 0 -6 -1v-1q-1 -1 -1 -3v-16q38 -1 58 -32zM270 622q31 -2 49 -20q19 -19 19 -49q0 -31 -20 -51q-22 -20 -53 -20q-24 0 -41 13q-19 12 -27 32q-8 -20 -26 -32q-17 -13 -42 -13q-31 0 -52 21q-21 19 -21 50v82q0 41 25 60q25 20 62 20h57v-42
q11 21 32 32q19 10 47 10h57v-72h-59q-5 0 -6 -1v-1q-1 -1 -1 -3v-16z" />
    <glyph glyph-name="uni201D" unicode="&#x201d;" horiz-adv-x="394" 
d="M197 672q8 20 27 32q19 11 41 11q33 0 53 -19q20 -20 20 -52v-81q0 -39 -24 -60t-62 -21h-58v43q-11 -22 -30 -32q-22 -11 -48 -11h-58v72h59q2 0 3 1h3q1 1 1 5v15q-28 1 -48 21t-20 48q0 32 21 51q20 20 52 20q24 0 43 -11q18 -13 25 -32zM260 575q-20 2 -34 10
q-14 9 -24 23v-45v-9h52q2 0 3 1h3v5v15z" />
    <glyph glyph-name="uni201E" unicode="&#x201e;" horiz-adv-x="394" 
d="M197 85q8 20 27 32q18 12 41 12q33 0 53 -19q20 -20 20 -52v-82q0 -40 -24 -60q-25 -20 -62 -20h-58v41q-11 -21 -30 -31q-20 -10 -48 -10h-58v72h59q5 0 6 1t1 5v15q-30 2 -48 21q-20 20 -20 48q0 32 21 51q20 20 52 20q25 0 43 -12q18 -13 25 -32zM260 -11
q-38 1 -58 32v-45v-8h52q4 0 6 1v5v15z" />
    <glyph glyph-name="uni2022" unicode="&#x2022;" horiz-adv-x="344" 
d="M292 350q0 -24 -9 -45q-11 -23 -26 -36q-16 -16 -39 -25q-21 -10 -46 -10t-46 10q-22 9 -38 25q-17 16 -26 36q-10 20 -10 45t10 45q8 19 26 37q16 15 38 25q22 9 46 9t46 -9q24 -11 39 -25q15 -15 26 -37q9 -21 9 -45z" />
    <glyph glyph-name="uni2032" unicode="&#x2032;" horiz-adv-x="352" 
d="M128 700h112l-55 -265h-68z" />
    <glyph glyph-name="uni2033" unicode="&#x2033;" horiz-adv-x="479" 
d="M129 700h112l-55 -265h-68zM254 700h113l-56 -265h-68z" />
    <glyph glyph-name="uni2039" unicode="&#x2039;" horiz-adv-x="510" 
d="M170 248l262 -137v-87h-10h-9h-6q-5 0 -6 1h-2l-325 183v80l325 183q1 0 2 1h6h6h9h10v-87z" />
    <glyph glyph-name="uni203A" unicode="&#x203a;" horiz-adv-x="510" 
d="M341 248l-263 137v87h10h9h6h6q1 -1 2 -1l325 -183v-80l-325 -183h-2q-1 -1 -6 -1h-6h-9h-10v87z" />
    <glyph glyph-name="uni2044" unicode="&#x2044;" horiz-adv-x="660" 
d="M358 447l204 268l73 -53l-215 -260zM302 253l-203 -268l-74 53l215 260z" />
    <glyph glyph-name="Euro" unicode="&#x20ac;" horiz-adv-x="693" 
d="M548 430v10q0 41 -8 78q-8 34 -27 60q-19 25 -52 39q-30 13 -79 13q-43 0 -77 -14q-31 -13 -55 -38q-22 -25 -34 -59q-12 -35 -15 -75h201v-80h-202v-20h202v-80h-202q3 -43 15 -77q11 -37 33 -62q24 -27 55 -40q33 -15 79 -15q87 0 127 43q39 43 39 126v36h91v-36
q0 -57 -18 -103q-18 -47 -51 -80t-80 -51q-48 -18 -108 -18q-66 0 -116 21t-84 58t-52 88q-19 48 -22 110h-76v80h76v20h-76v80h77q5 62 23 108q20 50 53 85q35 37 84 56q51 20 113 20q69 0 117 -19q47 -18 80 -55q31 -35 46 -86q14 -53 14 -113v-10h-91z" />
    <glyph glyph-name="uni2122" unicode="&#x2122;" horiz-adv-x="646" 
d="M356 531v-79h-76v178h-64v-178h-76v178h-74v70h315l42 -136l42 136h101v-248h-76v79l-24 -79h-86z" />
    <glyph glyph-name="arrowleft" unicode="&#x2190;" horiz-adv-x="820" 
d="M192 299h578v-85h-578l176 -171l-63 -61l-255 248v53l255 248l63 -61z" />
    <glyph glyph-name="arrowup" unicode="&#x2191;" horiz-adv-x="661" 
d="M377 567v-567h-89v567l-175 -170l-63 61l255 248h55l255 -248l-63 -61z" />
    <glyph glyph-name="arrowright" unicode="&#x2192;" horiz-adv-x="820" 
d="M628 214h-578v85h578l-176 171l63 61l255 -248v-53l-255 -248l-63 61z" />
    <glyph glyph-name="arrowdown" unicode="&#x2193;" horiz-adv-x="661" 
d="M288 133v567h89v-567l175 170l63 -61l-255 -248h-55l-255 248l63 61z" />
    <glyph glyph-name="uni2196" unicode="&#x2196;" horiz-adv-x="642" 
d="M231 411l379 -368l-64 -62l-378 368v-241l-88 -1v350l40 39h360l-1 -85h-248z" />
    <glyph glyph-name="uni2197" unicode="&#x2197;" horiz-adv-x="642" 
d="M474 349l-378 -368l-64 62l378 368h-247l-2 85h361l40 -39v-350l-88 1v241z" />
    <glyph glyph-name="uni2198" unicode="&#x2198;" horiz-adv-x="642" 
d="M410 85l-378 368l64 62l378 -368v241l88 1v-350l-40 -39h-361l2 85h247z" />
    <glyph glyph-name="uni2199" unicode="&#x2199;" horiz-adv-x="642" 
d="M168 147l378 368l64 -62l-379 -368h248l1 -85h-360l-40 39v350l88 -1v-241z" />
    <glyph glyph-name="uni2212" unicode="&#x2212;" 
d="M101 392h446v-84h-446v84z" />
    <glyph glyph-name="uni2248" unicode="&#x2248;" horiz-adv-x="665" 
d="M557 438l-88 -73q-14 -11 -35 -26q-19 -13 -46 -13q-31 0 -50 17q-18 15 -31 33q-4 5 -10 17q-2 3 -10 14q-3 5 -7 9q-2 1 -5 1q-1 0 -2 -1q-3 0 -5 -1l-8 -6l-93 -80l-58 62l88 73q9 7 36 26q19 12 45 12q32 0 51 -16q18 -16 30 -33q8 -12 11 -17q2 -3 10 -14q2 -3 7 -8
q2 -2 4 -2q3 0 7 2q3 1 8 6l94 80zM557 296l-88 -73q-14 -12 -35 -26q-19 -13 -46 -13q-31 0 -50 17q-18 15 -31 33q-4 5 -10 17q-2 3 -10 14q-3 5 -7 9q-2 1 -5 1t-8 -3q-1 -1 -3.5 -2.5t-3.5 -2.5l-93 -80l-58 62l88 73q9 7 36 26q19 13 45 13q32 0 51 -16q16 -15 30 -34
q6 -7 11 -16q2 -5 10 -15q2 -2 7 -8q2 -2 4 -2q3 0 7 2q3 1 8 6l94 80z" />
    <glyph glyph-name="_FSHallmark" horiz-adv-x="754" 
d="M619 388h76q0 15 -8 37q-16 37 -50 51q-33 13 -72 13q-28 0 -52 -6q-32 -11 -56 -30t-24 -57q0 -43 38 -63q36 -19 92 -33q60 -14 60 -36q0 -12 -15 -19q-15 -9 -40 -9q-23 0 -36 7q-7 3 -19 13q-9 8 -11 20q-3 7 -3 11l-73 1q0 -29 13 -49q12 -22 32 -36t44 -21t50 -7
q36 0 72 12q35 12 55 44q9 17 8 38q-2 19 -9 33q-9 12 -24 21q-1 0 -3.5 1.5t-4.5 2.5q-1 1 -4 2t-4 2l-9 3q-2 0 -5.5 1t-4.5 1q-14 2 -22 5q-3 1 -11 3l-12 3l-27 6q-18 4 -34 13q-14 8 -14 31q0 12 16 22q16 9 36 9h9q1 0 4 -1t5 -1q1 0 4 -2t5 -2q1 0 4 -2t5 -2
q2 -1 4.5 -3t3.5 -3q4 -4 6 -7q5 -8 5 -17zM329 213q0 -15 12 -25q11 -11 26 -11q17 0 30 10q12 11 12 26t-12 26q-14 11 -30 11q-17 0 -27 -10q-11 -11 -11 -27zM701 529v74h-630v-74h630zM305 277v70h-151v70h182v71h-265v-313h83v102h151zM700 61v75h-631v-75h631z" />
    <glyph glyph-name="_Fontastica" horiz-adv-x="754" 
d="M216 53q0 -11 -9 -13q-1 -1 -4 -1q-10 0 -13 10q-3 5 1 11t8 7q2 0 3 1q7 0 11 -4q3 -5 3 -10v-1zM377 65q1 -1 1 -2t1 -2l2 -6q1 -5 3 -6h-15zM634 65q1 -1 1 -2t1 -2t1 -2t1 -2t1 -2t1 -2q0 -3 1 -4h-14zM203 76q-11 0 -17 -7q-7 -7 -7 -18q0 -13 14 -19q3 -3 9 -3l2 1
q1 0 2 1h2q15 2 19 13q4 12 -2 20q-7 12 -22 12zM279 46q-1 1 -2 3t-2 3q0 1 -1.5 3t-2.5 4t-5 6l-5 5q-1 4 -5 6h-8v-44h10v27l4 -4q1 -1 2.5 -3.5t2.5 -3.5q1 0 1 -1t1 -2l1 -1q0 -2 1 -2t1 -1t1 -2l1 -1q0 -2 1 -2q5 -5 7 -5t3 1h3v44h-9v-30zM363 32l2 2q0 1 1 2
q0 4 1 5h20l2 -5q0 -3 1 -4h10q-1 1 -1 2q-1 2 -1 3t-1 3t-1 3q-4 13 -9 21q-3 5 -5 10h-10l-18 -42h9zM444 55q0 1 -2 1t-2 1q-1 1 -3.5 1.5t-3.5 0.5q-5 5 -3 6q0 3 3 3h6q1 -1 2 -1q2 0 3 -1t2 -1q2 0 3 -1l4 8q-7 4 -18 4q-2 0 -10 -2q-7 -4 -6 -11q0 -9 7 -10q3 0 4 -1
t2 -1q10 -1 10 -9q0 1 -3 -2h-6l-14 4q-1 -1 -1 -3l-1 -1q0 -1 -1 -2q7 -7 21 -7q7 0 8 1q9 5 8 13q0 9 -9 10zM569 63q2 3 8 5h2q7 0 12 -5l4 6q-8 8 -18 8q-9 0 -17 -8q-7 -7 -6 -17q2 -10 7 -16q8 -5 16 -5q12 0 18 9l-4 4q-7 -4 -14 -4q-6 0 -9 4q-4 4 -4 11q0 5 5 8z
M628 76q-8 -24 -18 -44h10l4 9h21l4 -9h10q-3 3 -5 11q-2 4 -5 12l-9 21h-12zM218 339v210h294v78h-382v-510q0 -3 1 -4h87v147h295v79h-295zM273 192v-78h383v513h-87v-146h-296v-79h296v-210h-296zM162 49v7h-20v12h21v8h-32v-44h11v17h20zM330 32v36h14v8h-37v-8h14v-36
h9zM492 32v36h14v8h-38v-8h14v-36h10zM524 76v-44h11v44h-11z" />
    </font>
</defs>
</svg>
