<svg width="646" height="599" viewBox="0 0 646 599" fill="none" xmlns="http://www.w3.org/2000/svg">
<path d="M277.066 244.641H274.41L270.121 237.183H270.061C270.146 238.501 270.189 239.44 270.189 240.002V244.641H268.321V234.783H270.957L275.239 242.166H275.286C275.219 240.885 275.185 239.979 275.185 239.449V234.783H277.066V244.641ZM282.514 238.424C282.078 238.424 281.736 238.563 281.489 238.842C281.242 239.116 281.1 239.507 281.064 240.015H283.95C283.941 239.507 283.809 239.116 283.552 238.842C283.296 238.563 282.95 238.424 282.514 238.424ZM282.804 244.775C281.59 244.775 280.642 244.441 279.959 243.771C279.275 243.101 278.934 242.153 278.934 240.926C278.934 239.662 279.248 238.687 279.878 237.999C280.512 237.307 281.386 236.961 282.501 236.961C283.566 236.961 284.395 237.264 284.988 237.871C285.582 238.478 285.878 239.316 285.878 240.386V241.384H281.017C281.04 241.968 281.213 242.425 281.536 242.753C281.86 243.081 282.314 243.245 282.898 243.245C283.352 243.245 283.782 243.198 284.186 243.103C284.591 243.009 285.013 242.858 285.454 242.652V244.243C285.094 244.423 284.71 244.555 284.301 244.641C283.892 244.731 283.393 244.775 282.804 244.775ZM293.747 244.641L293.167 242.004L292.385 238.674H292.338L290.962 244.641H288.751L286.607 237.103H288.656L289.526 240.44C289.665 241.038 289.807 241.863 289.951 242.915H289.991C290.009 242.573 290.088 242.031 290.227 241.29L290.335 240.717L291.266 237.103H293.531L294.414 240.717C294.432 240.815 294.459 240.962 294.495 241.155C294.536 241.348 294.574 241.555 294.61 241.775C294.646 241.991 294.677 242.204 294.704 242.416C294.736 242.622 294.754 242.789 294.758 242.915H294.799C294.839 242.591 294.911 242.148 295.014 241.586C295.118 241.02 295.192 240.638 295.237 240.44L296.14 237.103H298.156L295.985 244.641H293.747ZM304.636 242.402C304.636 243.175 304.366 243.764 303.827 244.169C303.292 244.573 302.49 244.775 301.42 244.775C300.871 244.775 300.404 244.737 300.017 244.661C299.631 244.589 299.269 244.481 298.932 244.337V242.638C299.314 242.818 299.743 242.969 300.22 243.09C300.701 243.211 301.123 243.272 301.487 243.272C302.233 243.272 302.606 243.056 302.606 242.625C302.606 242.463 302.557 242.332 302.458 242.234C302.359 242.13 302.188 242.016 301.946 241.89C301.703 241.759 301.379 241.609 300.975 241.438C300.395 241.195 299.968 240.97 299.694 240.764C299.424 240.557 299.226 240.321 299.1 240.056C298.979 239.786 298.918 239.456 298.918 239.065C298.918 238.395 299.177 237.878 299.694 237.514C300.215 237.145 300.952 236.961 301.905 236.961C302.813 236.961 303.696 237.159 304.555 237.554L303.935 239.038C303.557 238.876 303.204 238.743 302.876 238.64C302.548 238.536 302.213 238.485 301.872 238.485C301.265 238.485 300.961 238.649 300.961 238.977C300.961 239.161 301.058 239.321 301.251 239.456C301.449 239.591 301.878 239.791 302.539 240.056C303.128 240.294 303.559 240.517 303.834 240.723C304.108 240.93 304.31 241.168 304.44 241.438C304.571 241.708 304.636 242.029 304.636 242.402Z" fill="#978FDC"/>
<path opacity="0.5" d="M330.15 9.79394C330.15 11.5155 329.867 12.7898 329.301 13.6169C328.739 14.444 327.871 14.8575 326.698 14.8575C325.561 14.8575 324.703 14.4305 324.123 13.5764C323.547 12.7224 323.26 11.4616 323.26 9.79394C323.26 8.05439 323.541 6.77333 324.102 5.95075C324.664 5.12368 325.53 4.71015 326.698 4.71015C327.836 4.71015 328.694 5.14166 329.274 6.00469C329.858 6.86772 330.15 8.13081 330.15 9.79394ZM325.33 9.79394C325.33 11.0031 325.433 11.8706 325.64 12.3965C325.851 12.9179 326.204 13.1786 326.698 13.1786C327.184 13.1786 327.534 12.9134 327.75 12.383C327.966 11.8526 328.074 10.9896 328.074 9.79394C328.074 8.5848 327.964 7.71727 327.743 7.19136C327.528 6.66096 327.179 6.39575 326.698 6.39575C326.208 6.39575 325.858 6.66096 325.646 7.19136C325.435 7.71727 325.33 8.5848 325.33 9.79394ZM332.773 7.81841C332.773 8.38927 332.823 8.81629 332.922 9.09947C333.025 9.37816 333.189 9.5175 333.414 9.5175C333.845 9.5175 334.061 8.95114 334.061 7.81841C334.061 6.69467 333.845 6.1328 333.414 6.1328C333.189 6.1328 333.025 6.27214 332.922 6.55083C332.823 6.82502 332.773 7.24755 332.773 7.81841ZM335.76 7.80492C335.76 8.83876 335.56 9.61639 335.16 10.1378C334.76 10.6547 334.173 10.9132 333.4 10.9132C332.659 10.9132 332.086 10.648 331.681 10.1176C331.276 9.58268 331.074 8.81179 331.074 7.80492C331.074 5.75073 331.85 4.72363 333.4 4.72363C334.16 4.72363 334.742 4.99108 335.147 5.52598C335.556 6.05639 335.76 6.81603 335.76 7.80492ZM340.399 4.86522L334.931 14.7227H333.313L338.781 4.86522H340.399ZM339.677 11.756C339.677 12.3268 339.727 12.7539 339.826 13.037C339.929 13.3157 340.093 13.4551 340.318 13.4551C340.75 13.4551 340.965 12.8887 340.965 11.756C340.965 10.6322 340.75 10.0704 340.318 10.0704C340.093 10.0704 339.929 10.2097 339.826 10.4884C339.727 10.7626 339.677 11.1851 339.677 11.756ZM342.664 11.7425C342.664 12.7718 342.464 13.5472 342.064 14.0686C341.664 14.5856 341.078 14.844 340.305 14.844C339.563 14.844 338.99 14.5788 338.585 14.0484C338.181 13.5135 337.978 12.7449 337.978 11.7425C337.978 9.68831 338.754 8.66121 340.305 8.66121C341.064 8.66121 341.646 8.92866 342.051 9.46356C342.46 9.99397 342.664 10.7536 342.664 11.7425Z" fill="#515151"/>
<path opacity="0.5" d="M459.49 41.7695H457.406V36.0654L457.427 35.1282L457.46 34.1034C457.114 34.4495 456.874 34.6765 456.739 34.7844L455.606 35.6946L454.602 34.4405L457.777 31.9121H459.49V41.7695ZM469.064 36.8408C469.064 38.5624 468.781 39.8367 468.215 40.6638C467.653 41.4908 466.785 41.9044 465.612 41.9044C464.475 41.9044 463.616 41.4774 463.036 40.6233C462.461 39.7693 462.173 38.5084 462.173 36.8408C462.173 35.1013 462.454 33.8202 463.016 32.9976C463.578 32.1706 464.443 31.757 465.612 31.757C466.749 31.757 467.608 32.1885 468.188 33.0516C468.772 33.9146 469.064 35.1777 469.064 36.8408ZM464.243 36.8408C464.243 38.05 464.347 38.9175 464.553 39.4434C464.765 39.9648 465.118 40.2255 465.612 40.2255C466.097 40.2255 466.448 39.9603 466.664 39.4299C466.88 38.8995 466.987 38.0365 466.987 36.8408C466.987 35.6317 466.877 34.7641 466.657 34.2382C466.441 33.7078 466.093 33.4426 465.612 33.4426C465.122 33.4426 464.771 33.7078 464.56 34.2382C464.349 34.7641 464.243 35.6317 464.243 36.8408ZM471.687 34.8653C471.687 35.4361 471.736 35.8632 471.835 36.1463C471.939 36.425 472.103 36.5644 472.327 36.5644C472.759 36.5644 472.975 35.998 472.975 34.8653C472.975 33.7415 472.759 33.1797 472.327 33.1797C472.103 33.1797 471.939 33.319 471.835 33.5977C471.736 33.8719 471.687 34.2944 471.687 34.8653ZM474.674 34.8518C474.674 35.8856 474.474 36.6633 474.074 37.1847C473.674 37.7016 473.087 37.9601 472.314 37.9601C471.572 37.9601 470.999 37.6949 470.595 37.1645C470.19 36.6296 469.988 35.8587 469.988 34.8518C469.988 32.7976 470.763 31.7705 472.314 31.7705C473.074 31.7705 473.656 32.038 474.06 32.5729C474.469 33.1033 474.674 33.8629 474.674 34.8518ZM479.313 31.9121L473.845 41.7695H472.226L477.694 31.9121H479.313ZM478.591 38.8029C478.591 39.3737 478.641 39.8007 478.74 40.0839C478.843 40.3626 479.007 40.502 479.232 40.502C479.663 40.502 479.879 39.9356 479.879 38.8029C479.879 37.6791 479.663 37.1173 479.232 37.1173C479.007 37.1173 478.843 37.2566 478.74 37.5353C478.641 37.8095 478.591 38.232 478.591 38.8029ZM481.578 38.7894C481.578 39.8187 481.378 40.5941 480.978 41.1155C480.578 41.6324 479.991 41.8909 479.218 41.8909C478.477 41.8909 477.903 41.6257 477.499 41.0953C477.094 40.5604 476.892 39.7918 476.892 38.7894C476.892 36.7352 477.667 35.7081 479.218 35.7081C479.978 35.7081 480.56 35.9755 480.965 36.5104C481.374 37.0408 481.578 37.8005 481.578 38.7894Z" fill="#515151"/>
<path opacity="0.5" d="M567.03 124.609H560.139V123.16L562.614 120.658C563.347 119.908 563.825 119.388 564.05 119.101C564.275 118.809 564.437 118.539 564.536 118.292C564.634 118.044 564.684 117.788 564.684 117.523C564.684 117.128 564.574 116.833 564.353 116.64C564.138 116.447 563.848 116.35 563.484 116.35C563.102 116.35 562.731 116.438 562.371 116.613C562.012 116.788 561.636 117.038 561.245 117.361L560.112 116.02C560.598 115.606 561 115.314 561.319 115.143C561.639 114.972 561.987 114.842 562.364 114.752C562.742 114.658 563.165 114.61 563.632 114.61C564.248 114.61 564.792 114.723 565.264 114.947C565.736 115.172 566.102 115.487 566.363 115.891C566.623 116.296 566.754 116.759 566.754 117.28C566.754 117.734 566.673 118.161 566.511 118.561C566.354 118.957 566.106 119.364 565.769 119.782C565.437 120.2 564.848 120.795 564.003 121.569L562.735 122.762V122.856H567.03V124.609ZM574.865 119.681C574.865 121.402 574.582 122.677 574.015 123.504C573.453 124.331 572.586 124.744 571.413 124.744C570.276 124.744 569.417 124.317 568.837 123.463C568.262 122.609 567.974 121.348 567.974 119.681C567.974 117.941 568.255 116.66 568.817 115.837C569.379 115.01 570.244 114.597 571.413 114.597C572.55 114.597 573.409 115.028 573.988 115.891C574.573 116.754 574.865 118.018 574.865 119.681ZM570.044 119.681C570.044 120.89 570.147 121.757 570.354 122.283C570.565 122.805 570.918 123.065 571.413 123.065C571.898 123.065 572.249 122.8 572.465 122.27C572.68 121.739 572.788 120.876 572.788 119.681C572.788 118.472 572.678 117.604 572.458 117.078C572.242 116.548 571.894 116.282 571.413 116.282C570.923 116.282 570.572 116.548 570.361 117.078C570.15 117.604 570.044 118.472 570.044 119.681ZM577.488 117.705C577.488 118.276 577.537 118.703 577.636 118.986C577.739 119.265 577.903 119.404 578.128 119.404C578.56 119.404 578.776 118.838 578.776 117.705C578.776 116.581 578.56 116.02 578.128 116.02C577.903 116.02 577.739 116.159 577.636 116.438C577.537 116.712 577.488 117.134 577.488 117.705ZM580.475 117.692C580.475 118.725 580.275 119.503 579.875 120.025C579.474 120.541 578.888 120.8 578.115 120.8C577.373 120.8 576.8 120.535 576.395 120.004C575.991 119.469 575.789 118.699 575.789 117.692C575.789 115.637 576.564 114.61 578.115 114.61C578.874 114.61 579.457 114.878 579.861 115.413C580.27 115.943 580.475 116.703 580.475 117.692ZM585.113 114.752L579.645 124.609H578.027L583.495 114.752H585.113ZM584.392 121.643C584.392 122.214 584.441 122.641 584.54 122.924C584.644 123.202 584.808 123.342 585.032 123.342C585.464 123.342 585.68 122.775 585.68 121.643C585.68 120.519 585.464 119.957 585.032 119.957C584.808 119.957 584.644 120.096 584.54 120.375C584.441 120.649 584.392 121.072 584.392 121.643ZM587.379 121.629C587.379 122.659 587.179 123.434 586.779 123.955C586.379 124.472 585.792 124.731 585.019 124.731C584.277 124.731 583.704 124.466 583.3 123.935C582.895 123.4 582.693 122.632 582.693 121.629C582.693 119.575 583.468 118.548 585.019 118.548C585.779 118.548 586.361 118.815 586.765 119.35C587.174 119.881 587.379 120.64 587.379 121.629Z" fill="#515151"/>
<path opacity="0.5" d="M623.923 246.621C623.923 247.237 623.737 247.76 623.364 248.192C622.991 248.623 622.467 248.92 621.793 249.082V249.122C622.588 249.221 623.191 249.464 623.6 249.85C624.009 250.232 624.213 250.749 624.213 251.401C624.213 252.35 623.869 253.089 623.182 253.619C622.494 254.145 621.512 254.408 620.235 254.408C619.165 254.408 618.217 254.231 617.39 253.876V252.102C617.772 252.296 618.192 252.453 618.651 252.574C619.109 252.696 619.563 252.756 620.013 252.756C620.7 252.756 621.208 252.64 621.536 252.406C621.865 252.172 622.029 251.797 622.029 251.28C622.029 250.817 621.84 250.489 621.462 250.295C621.085 250.102 620.482 250.005 619.655 250.005H618.907V248.408H619.669C620.433 248.408 620.99 248.309 621.341 248.111C621.696 247.909 621.874 247.565 621.874 247.079C621.874 246.333 621.406 245.96 620.471 245.96C620.147 245.96 619.817 246.014 619.48 246.122C619.147 246.23 618.777 246.416 618.367 246.681L617.403 245.245C618.302 244.598 619.374 244.274 620.619 244.274C621.64 244.274 622.444 244.481 623.033 244.895C623.627 245.308 623.923 245.884 623.923 246.621ZM632.142 249.345C632.142 251.066 631.859 252.341 631.293 253.168C630.731 253.995 629.863 254.408 628.69 254.408C627.553 254.408 626.694 253.981 626.115 253.127C625.539 252.273 625.251 251.012 625.251 249.345C625.251 247.605 625.532 246.324 626.094 245.502C626.656 244.674 627.521 244.261 628.69 244.261C629.827 244.261 630.686 244.692 631.266 245.555C631.85 246.419 632.142 247.682 632.142 249.345ZM627.321 249.345C627.321 250.554 627.425 251.421 627.632 251.947C627.843 252.469 628.196 252.729 628.69 252.729C629.176 252.729 629.526 252.464 629.742 251.934C629.958 251.403 630.066 250.54 630.066 249.345C630.066 248.136 629.955 247.268 629.735 246.742C629.519 246.212 629.171 245.947 628.69 245.947C628.2 245.947 627.85 246.212 627.638 246.742C627.427 247.268 627.321 248.136 627.321 249.345ZM634.765 247.369C634.765 247.94 634.815 248.367 634.913 248.65C635.017 248.929 635.181 249.068 635.406 249.068C635.837 249.068 636.053 248.502 636.053 247.369C636.053 246.245 635.837 245.684 635.406 245.684C635.181 245.684 635.017 245.823 634.913 246.102C634.815 246.376 634.765 246.798 634.765 247.369ZM637.752 247.356C637.752 248.39 637.552 249.167 637.152 249.689C636.752 250.206 636.165 250.464 635.392 250.464C634.65 250.464 634.077 250.199 633.673 249.668C633.268 249.133 633.066 248.363 633.066 247.356C633.066 245.302 633.841 244.274 635.392 244.274C636.152 244.274 636.734 244.542 637.138 245.077C637.547 245.607 637.752 246.367 637.752 247.356ZM642.391 244.416L636.923 254.273H635.304L640.773 244.416H642.391ZM641.669 251.307C641.669 251.878 641.719 252.305 641.818 252.588C641.921 252.867 642.085 253.006 642.31 253.006C642.741 253.006 642.957 252.439 642.957 251.307C642.957 250.183 642.741 249.621 642.31 249.621C642.085 249.621 641.921 249.761 641.818 250.039C641.719 250.313 641.669 250.736 641.669 251.307ZM644.656 251.293C644.656 252.323 644.456 253.098 644.056 253.619C643.656 254.136 643.069 254.395 642.296 254.395C641.555 254.395 640.982 254.13 640.577 253.599C640.172 253.064 639.97 252.296 639.97 251.293C639.97 249.239 640.746 248.212 642.296 248.212C643.056 248.212 643.638 248.479 644.043 249.014C644.452 249.545 644.656 250.304 644.656 251.293Z" fill="#515151"/>
<path opacity="0.5" d="M611.802 391.707H610.615V393.75H608.579V391.707H604.371V390.257L608.693 383.893H610.615V390.089H611.802V391.707ZM608.579 390.089V388.417C608.579 388.138 608.59 387.734 608.612 387.203C608.635 386.673 608.653 386.365 608.666 386.279H608.612C608.446 386.648 608.246 387.008 608.012 387.358L606.205 390.089H608.579ZM619.414 388.821C619.414 390.543 619.131 391.817 618.564 392.644C618.002 393.471 617.135 393.885 615.962 393.885C614.824 393.885 613.966 393.458 613.386 392.604C612.811 391.75 612.523 390.489 612.523 388.821C612.523 387.082 612.804 385.801 613.366 384.978C613.928 384.151 614.793 383.737 615.962 383.737C617.099 383.737 617.957 384.169 618.537 385.032C619.122 385.895 619.414 387.158 619.414 388.821ZM614.593 388.821C614.593 390.03 614.696 390.898 614.903 391.424C615.114 391.945 615.467 392.206 615.962 392.206C616.447 392.206 616.798 391.941 617.013 391.41C617.229 390.88 617.337 390.017 617.337 388.821C617.337 387.612 617.227 386.745 617.007 386.219C616.791 385.688 616.443 385.423 615.962 385.423C615.472 385.423 615.121 385.688 614.91 386.219C614.699 386.745 614.593 387.612 614.593 388.821ZM622.037 386.846C622.037 387.417 622.086 387.844 622.185 388.127C622.288 388.406 622.452 388.545 622.677 388.545C623.109 388.545 623.324 387.978 623.324 386.846C623.324 385.722 623.109 385.16 622.677 385.16C622.452 385.16 622.288 385.299 622.185 385.578C622.086 385.852 622.037 386.275 622.037 386.846ZM625.023 386.832C625.023 387.866 624.823 388.644 624.423 389.165C624.023 389.682 623.437 389.941 622.664 389.941C621.922 389.941 621.349 389.675 620.944 389.145C620.54 388.61 620.337 387.839 620.337 386.832C620.337 384.778 621.113 383.751 622.664 383.751C623.423 383.751 624.005 384.018 624.41 384.553C624.819 385.084 625.023 385.843 625.023 386.832ZM629.662 383.893L624.194 393.75H622.576L628.044 383.893H629.662ZM628.941 390.783C628.941 391.354 628.99 391.781 629.089 392.064C629.193 392.343 629.357 392.482 629.581 392.482C630.013 392.482 630.229 391.916 630.229 390.783C630.229 389.66 630.013 389.098 629.581 389.098C629.357 389.098 629.193 389.237 629.089 389.516C628.99 389.79 628.941 390.212 628.941 390.783ZM631.928 390.77C631.928 391.799 631.728 392.575 631.328 393.096C630.928 393.613 630.341 393.871 629.568 393.871C628.826 393.871 628.253 393.606 627.849 393.076C627.444 392.541 627.242 391.772 627.242 390.77C627.242 388.716 628.017 387.689 629.568 387.689C630.327 387.689 630.91 387.956 631.314 388.491C631.723 389.021 631.928 389.781 631.928 390.77Z" fill="#515151"/>
<path opacity="0.5" d="M535.09 507.046C536.043 507.046 536.8 507.314 537.362 507.849C537.928 508.384 538.211 509.116 538.211 510.047C538.211 511.148 537.872 511.995 537.193 512.589C536.515 513.182 535.544 513.479 534.281 513.479C533.184 513.479 532.298 513.301 531.624 512.946V511.146C531.979 511.335 532.393 511.49 532.865 511.611C533.337 511.728 533.784 511.786 534.206 511.786C535.479 511.786 536.115 511.265 536.115 510.222C536.115 509.229 535.456 508.732 534.139 508.732C533.901 508.732 533.638 508.757 533.35 508.806C533.062 508.851 532.829 508.9 532.649 508.954L531.82 508.509L532.19 503.486H537.537V505.253H534.018L533.836 507.188L534.072 507.141C534.346 507.078 534.685 507.046 535.09 507.046ZM546.228 508.415C546.228 510.137 545.945 511.411 545.379 512.238C544.817 513.065 543.949 513.479 542.776 513.479C541.639 513.479 540.78 513.052 540.2 512.198C539.625 511.343 539.337 510.083 539.337 508.415C539.337 506.675 539.618 505.394 540.18 504.572C540.742 503.745 541.607 503.331 542.776 503.331C543.913 503.331 544.772 503.763 545.352 504.626C545.936 505.489 546.228 506.752 546.228 508.415ZM541.407 508.415C541.407 509.624 541.511 510.492 541.718 511.018C541.929 511.539 542.282 511.8 542.776 511.8C543.262 511.8 543.612 511.535 543.828 511.004C544.044 510.474 544.152 509.611 544.152 508.415C544.152 507.206 544.041 506.338 543.821 505.812C543.605 505.282 543.257 505.017 542.776 505.017C542.286 505.017 541.936 505.282 541.724 505.812C541.513 506.338 541.407 507.206 541.407 508.415ZM548.851 506.44C548.851 507.01 548.9 507.437 548.999 507.721C549.103 507.999 549.267 508.139 549.492 508.139C549.923 508.139 550.139 507.572 550.139 506.44C550.139 505.316 549.923 504.754 549.492 504.754C549.267 504.754 549.103 504.893 548.999 505.172C548.9 505.446 548.851 505.869 548.851 506.44ZM551.838 506.426C551.838 507.46 551.638 508.237 551.238 508.759C550.838 509.276 550.251 509.534 549.478 509.534C548.736 509.534 548.163 509.269 547.759 508.739C547.354 508.204 547.152 507.433 547.152 506.426C547.152 504.372 547.927 503.345 549.478 503.345C550.238 503.345 550.82 503.612 551.224 504.147C551.633 504.677 551.838 505.437 551.838 506.426ZM556.477 503.486L551.009 513.344H549.39L554.859 503.486H556.477ZM555.755 510.377C555.755 510.948 555.805 511.375 555.904 511.658C556.007 511.937 556.171 512.076 556.396 512.076C556.827 512.076 557.043 511.51 557.043 510.377C557.043 509.253 556.827 508.691 556.396 508.691C556.171 508.691 556.007 508.831 555.904 509.11C555.805 509.384 555.755 509.806 555.755 510.377ZM558.742 510.364C558.742 511.393 558.542 512.168 558.142 512.69C557.742 513.207 557.155 513.465 556.382 513.465C555.641 513.465 555.068 513.2 554.663 512.67C554.258 512.135 554.056 511.366 554.056 510.364C554.056 508.309 554.832 507.282 556.382 507.282C557.142 507.282 557.724 507.55 558.129 508.085C558.538 508.615 558.742 509.375 558.742 510.364Z" fill="#515151"/>
<path opacity="0.5" d="M410.519 581.547C410.519 579.597 410.931 578.145 411.753 577.192C412.58 576.239 413.816 575.762 415.461 575.762C416.023 575.762 416.464 575.796 416.783 575.863V577.529C416.383 577.439 415.987 577.394 415.596 577.394C414.882 577.394 414.297 577.502 413.843 577.718C413.394 577.933 413.057 578.253 412.832 578.675C412.607 579.098 412.475 579.698 412.434 580.475H412.522C412.967 579.711 413.679 579.329 414.659 579.329C415.54 579.329 416.23 579.606 416.729 580.158C417.228 580.711 417.477 581.475 417.477 582.451C417.477 583.503 417.181 584.336 416.587 584.952C415.994 585.564 415.172 585.869 414.12 585.869C413.392 585.869 412.756 585.701 412.212 585.364C411.672 585.026 411.254 584.534 410.958 583.887C410.665 583.24 410.519 582.46 410.519 581.547ZM414.079 584.204C414.524 584.204 414.866 584.056 415.104 583.759C415.342 583.458 415.461 583.031 415.461 582.478C415.461 581.997 415.349 581.619 415.124 581.345C414.904 581.066 414.569 580.927 414.12 580.927C413.697 580.927 413.335 581.064 413.034 581.338C412.738 581.613 412.589 581.932 412.589 582.296C412.589 582.831 412.729 583.282 413.007 583.651C413.29 584.02 413.648 584.204 414.079 584.204ZM425.312 580.806C425.312 582.527 425.029 583.802 424.463 584.629C423.901 585.456 423.033 585.869 421.86 585.869C420.723 585.869 419.864 585.442 419.284 584.588C418.709 583.734 418.421 582.473 418.421 580.806C418.421 579.066 418.702 577.785 419.264 576.962C419.826 576.135 420.691 575.722 421.86 575.722C422.997 575.722 423.856 576.153 424.436 577.016C425.02 577.879 425.312 579.143 425.312 580.806ZM420.491 580.806C420.491 582.015 420.595 582.882 420.801 583.408C421.013 583.93 421.366 584.19 421.86 584.19C422.346 584.19 422.696 583.925 422.912 583.395C423.128 582.864 423.236 582.001 423.236 580.806C423.236 579.597 423.125 578.729 422.905 578.203C422.689 577.673 422.341 577.407 421.86 577.407C421.37 577.407 421.019 577.673 420.808 578.203C420.597 578.729 420.491 579.597 420.491 580.806ZM427.935 578.83C427.935 579.401 427.984 579.828 428.083 580.111C428.187 580.39 428.351 580.529 428.576 580.529C429.007 580.529 429.223 579.963 429.223 578.83C429.223 577.706 429.007 577.145 428.576 577.145C428.351 577.145 428.187 577.284 428.083 577.563C427.984 577.837 427.935 578.259 427.935 578.83ZM430.922 578.817C430.922 579.85 430.722 580.628 430.322 581.15C429.922 581.666 429.335 581.925 428.562 581.925C427.82 581.925 427.247 581.66 426.843 581.129C426.438 580.594 426.236 579.824 426.236 578.817C426.236 576.762 427.011 575.735 428.562 575.735C429.322 575.735 429.904 576.003 430.308 576.538C430.717 577.068 430.922 577.828 430.922 578.817ZM435.561 575.877L430.093 585.734H428.474L433.942 575.877H435.561ZM434.839 582.768C434.839 583.339 434.889 583.766 434.988 584.049C435.091 584.327 435.255 584.467 435.48 584.467C435.911 584.467 436.127 583.9 436.127 582.768C436.127 581.644 435.911 581.082 435.48 581.082C435.255 581.082 435.091 581.221 434.988 581.5C434.889 581.774 434.839 582.197 434.839 582.768ZM437.826 582.754C437.826 583.784 437.626 584.559 437.226 585.08C436.826 585.597 436.239 585.856 435.466 585.856C434.725 585.856 434.152 585.591 433.747 585.06C433.342 584.525 433.14 583.757 433.14 582.754C433.14 580.7 433.916 579.673 435.466 579.673C436.226 579.673 436.808 579.94 437.213 580.475C437.622 581.006 437.826 581.765 437.826 582.754Z" fill="#515151"/>
<path opacity="0.5" d="M269.435 596.34L273.137 588.249H268.276V586.496H275.349V587.804L271.62 596.34H269.435ZM283.183 591.411C283.183 593.133 282.9 594.407 282.334 595.234C281.772 596.061 280.904 596.475 279.731 596.475C278.594 596.475 277.735 596.048 277.156 595.194C276.58 594.34 276.293 593.079 276.293 591.411C276.293 589.672 276.573 588.391 277.135 587.568C277.697 586.741 278.562 586.327 279.731 586.327C280.868 586.327 281.727 586.759 282.307 587.622C282.891 588.485 283.183 589.748 283.183 591.411ZM278.362 591.411C278.362 592.62 278.466 593.488 278.673 594.014C278.884 594.535 279.237 594.796 279.731 594.796C280.217 594.796 280.567 594.531 280.783 594C280.999 593.47 281.107 592.607 281.107 591.411C281.107 590.202 280.996 589.334 280.776 588.809C280.56 588.278 280.212 588.013 279.731 588.013C279.241 588.013 278.891 588.278 278.679 588.809C278.468 589.334 278.362 590.202 278.362 591.411ZM285.806 589.436C285.806 590.006 285.856 590.433 285.954 590.717C286.058 590.995 286.222 591.135 286.447 591.135C286.878 591.135 287.094 590.568 287.094 589.436C287.094 588.312 286.878 587.75 286.447 587.75C286.222 587.75 286.058 587.889 285.954 588.168C285.856 588.442 285.806 588.865 285.806 589.436ZM288.793 589.422C288.793 590.456 288.593 591.234 288.193 591.755C287.793 592.272 287.206 592.53 286.433 592.53C285.691 592.53 285.118 592.265 284.714 591.735C284.309 591.2 284.107 590.429 284.107 589.422C284.107 587.368 284.882 586.341 286.433 586.341C287.193 586.341 287.775 586.608 288.179 587.143C288.588 587.674 288.793 588.433 288.793 589.422ZM293.432 586.482L287.964 596.34H286.345L291.814 586.482H293.432ZM292.71 593.373C292.71 593.944 292.76 594.371 292.859 594.654C292.962 594.933 293.126 595.072 293.351 595.072C293.782 595.072 293.998 594.506 293.998 593.373C293.998 592.249 293.782 591.688 293.351 591.688C293.126 591.688 292.962 591.827 292.859 592.106C292.76 592.38 292.71 592.802 292.71 593.373ZM295.697 593.36C295.697 594.389 295.497 595.164 295.097 595.686C294.697 596.203 294.111 596.461 293.337 596.461C292.596 596.461 292.023 596.196 291.618 595.666C291.214 595.131 291.011 594.362 291.011 593.36C291.011 591.305 291.787 590.278 293.337 590.278C294.097 590.278 294.679 590.546 295.084 591.081C295.493 591.611 295.697 592.371 295.697 593.36Z" fill="#515151"/>
<path opacity="0.5" d="M140.866 532.792C141.81 532.792 142.569 533.008 143.145 533.439C143.725 533.866 144.014 534.444 144.014 535.172C144.014 535.675 143.875 536.125 143.596 536.52C143.318 536.911 142.868 537.262 142.248 537.572C142.985 537.968 143.513 538.381 143.832 538.813C144.156 539.24 144.318 539.71 144.318 540.222C144.318 541.031 144.001 541.683 143.367 542.177C142.733 542.667 141.9 542.912 140.866 542.912C139.787 542.912 138.94 542.683 138.324 542.224C137.708 541.766 137.4 541.116 137.4 540.276C137.4 539.714 137.548 539.215 137.845 538.779C138.146 538.343 138.627 537.959 139.288 537.626C138.726 537.271 138.322 536.891 138.074 536.487C137.827 536.082 137.704 535.639 137.704 535.158C137.704 534.453 137.996 533.882 138.58 533.446C139.164 533.01 139.926 532.792 140.866 532.792ZM139.328 540.155C139.328 540.541 139.463 540.842 139.733 541.058C140.003 541.274 140.371 541.382 140.839 541.382C141.356 541.382 141.742 541.272 141.998 541.051C142.255 540.827 142.383 540.532 142.383 540.168C142.383 539.867 142.255 539.586 141.998 539.325C141.747 539.06 141.335 538.779 140.765 538.482C139.807 538.923 139.328 539.48 139.328 540.155ZM140.852 534.316C140.497 534.316 140.209 534.408 139.989 534.592C139.773 534.772 139.666 535.015 139.666 535.32C139.666 535.59 139.751 535.833 139.922 536.048C140.097 536.26 140.412 536.478 140.866 536.702C141.306 536.496 141.614 536.284 141.789 536.069C141.965 535.853 142.052 535.603 142.052 535.32C142.052 535.01 141.94 534.765 141.715 534.585C141.491 534.405 141.203 534.316 140.852 534.316ZM152.193 537.849C152.193 539.57 151.91 540.845 151.343 541.672C150.782 542.499 149.914 542.912 148.741 542.912C147.604 542.912 146.745 542.485 146.165 541.631C145.59 540.777 145.302 539.516 145.302 537.849C145.302 536.109 145.583 534.828 146.145 534.005C146.707 533.178 147.572 532.765 148.741 532.765C149.878 532.765 150.737 533.196 151.317 534.059C151.901 534.922 152.193 536.185 152.193 537.849ZM147.372 537.849C147.372 539.058 147.476 539.925 147.682 540.451C147.894 540.973 148.246 541.233 148.741 541.233C149.226 541.233 149.577 540.968 149.793 540.438C150.008 539.907 150.116 539.044 150.116 537.849C150.116 536.639 150.006 535.772 149.786 535.246C149.57 534.716 149.222 534.45 148.741 534.45C148.251 534.45 147.9 534.716 147.689 535.246C147.478 535.772 147.372 536.639 147.372 537.849ZM154.816 535.873C154.816 536.444 154.865 536.871 154.964 537.154C155.068 537.433 155.232 537.572 155.456 537.572C155.888 537.572 156.104 537.006 156.104 535.873C156.104 534.749 155.888 534.187 155.456 534.187C155.232 534.187 155.068 534.327 154.964 534.606C154.865 534.88 154.816 535.302 154.816 535.873ZM157.803 535.86C157.803 536.893 157.603 537.671 157.203 538.192C156.803 538.709 156.216 538.968 155.443 538.968C154.701 538.968 154.128 538.703 153.724 538.172C153.319 537.637 153.117 536.866 153.117 535.86C153.117 533.805 153.892 532.778 155.443 532.778C156.203 532.778 156.785 533.046 157.189 533.581C157.598 534.111 157.803 534.871 157.803 535.86ZM162.442 532.92L156.973 542.777H155.355L160.823 532.92H162.442ZM161.72 539.811C161.72 540.382 161.77 540.809 161.868 541.092C161.972 541.37 162.136 541.51 162.361 541.51C162.792 541.51 163.008 540.943 163.008 539.811C163.008 538.687 162.792 538.125 162.361 538.125C162.136 538.125 161.972 538.264 161.868 538.543C161.77 538.817 161.72 539.24 161.72 539.811ZM164.707 539.797C164.707 540.827 164.507 541.602 164.107 542.123C163.707 542.64 163.12 542.899 162.347 542.899C161.605 542.899 161.032 542.634 160.628 542.103C160.223 541.568 160.021 540.8 160.021 539.797C160.021 537.743 160.796 536.716 162.347 536.716C163.107 536.716 163.689 536.983 164.093 537.518C164.502 538.049 164.707 538.808 164.707 539.797Z" fill="#515151"/>
<path opacity="0.5" d="M50.98 429.537C50.98 431.479 50.5709 432.929 49.7529 433.886C48.9348 434.844 47.6964 435.322 46.0378 435.322C45.4534 435.322 45.0107 435.291 44.7095 435.228V433.556C45.0871 433.65 45.4827 433.697 45.8962 433.697C46.5929 433.697 47.166 433.596 47.6155 433.394C48.065 433.187 48.4089 432.866 48.6471 432.43C48.8853 431.989 49.0224 431.385 49.0584 430.616H48.9775C48.7168 431.039 48.4156 431.335 48.074 431.506C47.7324 431.677 47.3054 431.762 46.7929 431.762C45.9344 431.762 45.2579 431.488 44.7635 430.94C44.269 430.387 44.0218 429.62 44.0218 428.641C44.0218 427.584 44.3207 426.75 44.9185 426.139C45.5209 425.523 46.3389 425.215 47.3728 425.215C48.101 425.215 48.737 425.386 49.2809 425.728C49.8293 426.069 50.2496 426.566 50.5417 427.218C50.8339 427.865 50.98 428.638 50.98 429.537ZM47.4132 426.888C46.9817 426.888 46.6446 427.036 46.4019 427.333C46.1591 427.629 46.0378 428.056 46.0378 428.614C46.0378 429.09 46.1479 429.468 46.3682 429.746C46.5884 430.025 46.9233 430.164 47.3728 430.164C47.7953 430.164 48.1572 430.027 48.4583 429.753C48.7595 429.474 48.9101 429.155 48.9101 428.796C48.9101 428.261 48.7685 427.809 48.4853 427.44C48.2066 427.072 47.8492 426.888 47.4132 426.888ZM58.8551 430.259C58.8551 431.98 58.572 433.255 58.0056 434.082C57.4437 434.909 56.5762 435.322 55.403 435.322C54.2658 435.322 53.4073 434.895 52.8274 434.041C52.2521 433.187 51.9644 431.926 51.9644 430.259C51.9644 428.519 52.2453 427.238 52.8072 426.416C53.3691 425.589 54.2343 425.175 55.403 425.175C56.5402 425.175 57.3988 425.607 57.9786 426.47C58.563 427.333 58.8551 428.596 58.8551 430.259ZM54.0343 430.259C54.0343 431.468 54.1377 432.335 54.3445 432.861C54.5557 433.383 54.9086 433.643 55.403 433.643C55.8885 433.643 56.2391 433.378 56.4548 432.848C56.6706 432.317 56.7785 431.454 56.7785 430.259C56.7785 429.05 56.6683 428.182 56.4481 427.656C56.2323 427.126 55.884 426.861 55.403 426.861C54.9131 426.861 54.5625 427.126 54.3512 427.656C54.1399 428.182 54.0343 429.05 54.0343 430.259ZM61.4779 428.283C61.4779 428.854 61.5274 429.281 61.6263 429.564C61.7297 429.843 61.8937 429.982 62.1185 429.982C62.55 429.982 62.7658 429.416 62.7658 428.283C62.7658 427.16 62.55 426.598 62.1185 426.598C61.8937 426.598 61.7297 426.737 61.6263 427.016C61.5274 427.29 61.4779 427.712 61.4779 428.283ZM64.4648 428.27C64.4648 429.304 64.2648 430.081 63.8648 430.603C63.4647 431.12 62.8781 431.378 62.105 431.378C61.3633 431.378 60.7902 431.113 60.3857 430.582C59.9811 430.048 59.7789 429.277 59.7789 428.27C59.7789 426.216 60.5542 425.188 62.105 425.188C62.8646 425.188 63.4467 425.456 63.8513 425.991C64.2603 426.521 64.4648 427.281 64.4648 428.27ZM69.1036 425.33L63.6355 435.188H62.0173L67.4855 425.33H69.1036ZM68.3822 432.221C68.3822 432.792 68.4316 433.219 68.5305 433.502C68.6339 433.781 68.798 433.92 69.0227 433.92C69.4542 433.92 69.67 433.354 69.67 432.221C69.67 431.097 69.4542 430.535 69.0227 430.535C68.798 430.535 68.6339 430.675 68.5305 430.953C68.4316 431.227 68.3822 431.65 68.3822 432.221ZM71.3691 432.207C71.3691 433.237 71.1691 434.012 70.769 434.533C70.369 435.05 69.7824 435.309 69.0092 435.309C68.2676 435.309 67.6945 435.044 67.2899 434.513C66.8854 433.978 66.6831 433.21 66.6831 432.207C66.6831 430.153 67.4585 429.126 69.0092 429.126C69.7689 429.126 70.351 429.394 70.7555 429.928C71.1646 430.459 71.3691 431.218 71.3691 432.207Z" fill="#515151"/>
<path opacity="0.5" d="M6.69201 300.75H4.6086V295.046L4.62883 294.109L4.66254 293.084C4.31643 293.43 4.07595 293.657 3.9411 293.765L2.80837 294.675L1.80375 293.421L4.97943 290.893H6.69201V300.75ZM16.2663 295.821C16.2663 297.543 15.9831 298.817 15.4167 299.644C14.8548 300.471 13.9873 300.885 12.8141 300.885C11.6769 300.885 10.8184 300.458 10.2385 299.604C9.66317 298.75 9.3755 297.489 9.3755 295.821C9.3755 294.082 9.65643 292.801 10.2183 291.978C10.7802 291.151 11.6454 290.737 12.8141 290.737C13.9514 290.737 14.8099 291.169 15.3897 292.032C15.9741 292.895 16.2663 294.158 16.2663 295.821ZM11.4454 295.821C11.4454 297.03 11.5488 297.898 11.7556 298.424C11.9668 298.945 12.3197 299.206 12.8141 299.206C13.2996 299.206 13.6502 298.941 13.866 298.41C14.0817 297.88 14.1896 297.017 14.1896 295.821C14.1896 294.612 14.0795 293.745 13.8592 293.219C13.6435 292.688 13.2951 292.423 12.8141 292.423C12.3242 292.423 11.9736 292.688 11.7623 293.219C11.5511 293.745 11.4454 294.612 11.4454 295.821ZM24.1549 295.821C24.1549 297.543 23.8717 298.817 23.3054 299.644C22.7435 300.471 21.876 300.885 20.7028 300.885C19.5656 300.885 18.707 300.458 18.1272 299.604C17.5518 298.75 17.2641 297.489 17.2641 295.821C17.2641 294.082 17.5451 292.801 18.1069 291.978C18.6688 291.151 19.5341 290.737 20.7028 290.737C21.84 290.737 22.6985 291.169 23.2784 292.032C23.8627 292.895 24.1549 294.158 24.1549 295.821ZM19.3341 295.821C19.3341 297.03 19.4375 297.898 19.6442 298.424C19.8555 298.945 20.2083 299.206 20.7028 299.206C21.1882 299.206 21.5388 298.941 21.7546 298.41C21.9704 297.88 22.0782 297.017 22.0782 295.821C22.0782 294.612 21.9681 293.745 21.7479 293.219C21.5321 292.688 21.1837 292.423 20.7028 292.423C20.2128 292.423 19.8622 292.688 19.651 293.219C19.4397 293.745 19.3341 294.612 19.3341 295.821ZM26.7777 293.846C26.7777 294.417 26.8272 294.844 26.926 295.127C27.0294 295.406 27.1935 295.545 27.4182 295.545C27.8498 295.545 28.0655 294.978 28.0655 293.846C28.0655 292.722 27.8498 292.16 27.4182 292.16C27.1935 292.16 27.0294 292.299 26.926 292.578C26.8272 292.852 26.7777 293.275 26.7777 293.846ZM29.7646 293.832C29.7646 294.866 29.5646 295.644 29.1645 296.165C28.7645 296.682 28.1779 296.941 27.4048 296.941C26.6631 296.941 26.09 296.675 25.6854 296.145C25.2809 295.61 25.0786 294.839 25.0786 293.832C25.0786 291.778 25.854 290.751 27.4048 290.751C28.1644 290.751 28.7465 291.018 29.151 291.553C29.5601 292.084 29.7646 292.843 29.7646 293.832ZM34.4034 290.893L28.9353 300.75H27.3171L32.7852 290.893H34.4034ZM33.682 297.783C33.682 298.354 33.7314 298.781 33.8303 299.064C33.9337 299.343 34.0977 299.482 34.3225 299.482C34.754 299.482 34.9698 298.916 34.9698 297.783C34.9698 296.66 34.754 296.098 34.3225 296.098C34.0977 296.098 33.9337 296.237 33.8303 296.516C33.7314 296.79 33.682 297.212 33.682 297.783ZM36.6689 297.77C36.6689 298.799 36.4688 299.575 36.0688 300.096C35.6687 300.613 35.0821 300.871 34.309 300.871C33.5673 300.871 32.9942 300.606 32.5897 300.076C32.1851 299.541 31.9829 298.772 31.9829 297.77C31.9829 295.716 32.7582 294.689 34.309 294.689C35.0687 294.689 35.6507 294.956 36.0553 295.491C36.4643 296.021 36.6689 296.781 36.6689 297.77Z" fill="#515151"/>
<path d="M266.695 88.6063C266.695 89.4963 266.373 90.1975 265.73 90.71C265.092 91.2224 264.202 91.4786 263.06 91.4786C262.009 91.4786 261.078 91.2808 260.269 90.8853V88.9434C260.934 89.2401 261.496 89.4491 261.955 89.5705C262.418 89.6919 262.84 89.7525 263.222 89.7525C263.681 89.7525 264.031 89.6649 264.274 89.4896C264.521 89.3143 264.645 89.0536 264.645 88.7075C264.645 88.5142 264.591 88.3434 264.483 88.195C264.375 88.0422 264.216 87.8961 264.004 87.7568C263.798 87.6174 263.373 87.3949 262.73 87.0893C262.128 86.8061 261.676 86.5341 261.375 86.2734C261.074 86.0127 260.833 85.7093 260.653 85.3632C260.474 85.0171 260.384 84.6126 260.384 84.1496C260.384 83.2776 260.678 82.5921 261.267 82.0931C261.86 81.5942 262.678 81.3447 263.721 81.3447C264.234 81.3447 264.721 81.4054 265.184 81.5268C265.652 81.6481 266.139 81.8189 266.647 82.0392L265.973 83.6641C265.447 83.4484 265.011 83.2978 264.665 83.2124C264.323 83.127 263.986 83.0843 263.654 83.0843C263.258 83.0843 262.955 83.1764 262.743 83.3607C262.532 83.545 262.427 83.7855 262.427 84.0822C262.427 84.2664 262.469 84.4283 262.555 84.5676C262.64 84.7025 262.775 84.8351 262.959 84.9654C263.148 85.0913 263.591 85.3205 264.288 85.6531C265.209 86.0936 265.841 86.5364 266.182 86.9814C266.524 87.4219 266.695 87.9635 266.695 88.6063ZM268.232 81.8572C268.232 81.1874 268.605 80.8525 269.351 80.8525C270.097 80.8525 270.47 81.1874 270.47 81.8572C270.47 82.1763 270.376 82.4258 270.187 82.6056C270.003 82.7809 269.724 82.8685 269.351 82.8685C268.605 82.8685 268.232 82.5314 268.232 81.8572ZM270.376 91.3438H268.319V83.8057H270.376V91.3438ZM275.716 89.8402C276.076 89.8402 276.507 89.7615 277.01 89.6042V91.1347C276.498 91.364 275.869 91.4786 275.123 91.4786C274.3 91.4786 273.7 91.2718 273.322 90.8583C272.949 90.4403 272.763 89.8155 272.763 88.9839V85.3497H271.778V84.48L272.911 83.7922L273.504 82.201H274.819V83.8057H276.93V85.3497H274.819V88.9839C274.819 89.2761 274.9 89.4918 275.062 89.6312C275.228 89.7705 275.446 89.8402 275.716 89.8402ZM281.602 91.4786C279.256 91.4786 278.083 90.1908 278.083 87.6152C278.083 86.3341 278.402 85.3565 279.04 84.6822C279.678 84.0035 280.593 83.6641 281.784 83.6641C282.656 83.6641 283.438 83.8349 284.13 84.1765L283.524 85.7678C283.2 85.6374 282.899 85.5318 282.62 85.4509C282.341 85.3655 282.063 85.3228 281.784 85.3228C280.714 85.3228 280.179 86.0824 280.179 87.6017C280.179 89.076 280.714 89.8132 281.784 89.8132C282.18 89.8132 282.546 89.7615 282.883 89.6581C283.22 89.5503 283.557 89.384 283.894 89.1592V90.919C283.562 91.1302 283.225 91.2763 282.883 91.3572C282.546 91.4381 282.119 91.4786 281.602 91.4786ZM287.286 87.5612C287.286 88.3074 287.407 88.8715 287.65 89.2536C287.897 89.6357 288.297 89.8267 288.85 89.8267C289.399 89.8267 289.792 89.6379 290.03 89.2603C290.273 88.8783 290.394 88.3119 290.394 87.5612C290.394 86.8151 290.273 86.2555 290.03 85.8824C289.787 85.5093 289.39 85.3228 288.837 85.3228C288.288 85.3228 287.893 85.5093 287.65 85.8824C287.407 86.251 287.286 86.8106 287.286 87.5612ZM292.498 87.5612C292.498 88.7884 292.174 89.748 291.527 90.4403C290.88 91.1325 289.978 91.4786 288.823 91.4786C288.1 91.4786 287.461 91.3213 286.908 91.0066C286.355 90.6875 285.931 90.2312 285.634 89.6379C285.337 89.0446 285.189 88.3524 285.189 87.5612C285.189 86.3296 285.51 85.3722 286.153 84.689C286.796 84.0057 287.699 83.6641 288.864 83.6641C289.587 83.6641 290.226 83.8214 290.779 84.1361C291.331 84.4507 291.756 84.9025 292.053 85.4913C292.35 86.0802 292.498 86.7701 292.498 87.5612ZM300.946 91.3438H298.89V86.9409C298.89 86.3971 298.798 85.9903 298.613 85.7206C298.433 85.4464 298.148 85.3093 297.757 85.3093C297.231 85.3093 296.849 85.5026 296.611 85.8891C296.372 86.2757 296.253 86.9117 296.253 87.7972V91.3438H294.197V83.8057H295.768L296.044 84.7699H296.159C296.361 84.4238 296.653 84.1541 297.035 83.9608C297.418 83.763 297.856 83.6641 298.35 83.6641C299.479 83.6641 300.243 84.0327 300.643 84.7699H300.825C301.027 84.4193 301.324 84.1473 301.715 83.954C302.11 83.7608 302.555 83.6641 303.05 83.6641C303.904 83.6641 304.549 83.8844 304.985 84.3249C305.425 84.7609 305.646 85.4621 305.646 86.4285V91.3438H303.582V86.9409C303.582 86.3971 303.49 85.9903 303.306 85.7206C303.126 85.4464 302.841 85.3093 302.45 85.3093C301.946 85.3093 301.569 85.4891 301.317 85.8487C301.07 86.2083 300.946 86.7791 300.946 87.5612V91.3438Z" fill="#978FDC"/>
<path d="M262.088 124.819H262.762C263.423 124.819 263.911 124.709 264.226 124.489C264.54 124.269 264.697 123.922 264.697 123.45C264.697 122.983 264.536 122.65 264.212 122.453C263.893 122.255 263.396 122.156 262.722 122.156H262.088V124.819ZM262.088 126.518V130.301H259.998V120.443H262.87C264.21 120.443 265.201 120.688 265.844 121.178C266.486 121.664 266.808 122.403 266.808 123.397C266.808 123.976 266.648 124.493 266.329 124.947C266.01 125.397 265.558 125.75 264.974 126.006C266.457 128.222 267.424 129.654 267.873 130.301H265.554L263.201 126.518H262.088ZM272.074 124.084C271.638 124.084 271.296 124.224 271.049 124.502C270.802 124.776 270.66 125.168 270.624 125.675H273.51C273.501 125.168 273.368 124.776 273.112 124.502C272.856 124.224 272.51 124.084 272.074 124.084ZM272.364 130.436C271.15 130.436 270.202 130.101 269.518 129.431C268.835 128.761 268.493 127.813 268.493 126.586C268.493 125.323 268.808 124.347 269.437 123.659C270.071 122.967 270.945 122.621 272.06 122.621C273.126 122.621 273.955 122.925 274.548 123.531C275.142 124.138 275.438 124.977 275.438 126.046V127.044H270.577C270.599 127.629 270.772 128.085 271.096 128.413C271.42 128.741 271.874 128.905 272.458 128.905C272.912 128.905 273.341 128.858 273.746 128.764C274.15 128.669 274.573 128.519 275.013 128.312V129.903C274.654 130.083 274.269 130.215 273.86 130.301C273.451 130.391 272.952 130.436 272.364 130.436ZM281.897 130.301L281.5 129.276H281.446C281.1 129.712 280.742 130.015 280.374 130.186C280.01 130.352 279.533 130.436 278.944 130.436C278.221 130.436 277.65 130.229 277.232 129.815C276.818 129.402 276.611 128.813 276.611 128.049C276.611 127.249 276.89 126.66 277.447 126.282C278.009 125.9 278.854 125.689 279.983 125.649L281.291 125.608V125.278C281.291 124.514 280.9 124.131 280.117 124.131C279.515 124.131 278.807 124.314 277.994 124.678L277.313 123.289C278.18 122.835 279.142 122.608 280.198 122.608C281.21 122.608 281.985 122.828 282.524 123.268C283.064 123.709 283.334 124.379 283.334 125.278V130.301H281.897ZM281.291 126.808L280.495 126.835C279.897 126.853 279.452 126.961 279.16 127.159C278.868 127.357 278.722 127.658 278.722 128.062C278.722 128.642 279.054 128.932 279.72 128.932C280.196 128.932 280.576 128.795 280.859 128.521C281.147 128.247 281.291 127.882 281.291 127.429V126.808ZM287.514 130.301H285.457V119.81H287.514V130.301ZM289.591 120.814C289.591 120.144 289.964 119.81 290.71 119.81C291.456 119.81 291.829 120.144 291.829 120.814C291.829 121.133 291.735 121.383 291.546 121.563C291.362 121.738 291.083 121.826 290.71 121.826C289.964 121.826 289.591 121.488 289.591 120.814ZM291.735 130.301H289.678V122.763H291.735V130.301ZM297.075 128.797C297.434 128.797 297.866 128.719 298.369 128.561V130.092C297.857 130.321 297.227 130.436 296.481 130.436C295.659 130.436 295.059 130.229 294.681 129.815C294.308 129.397 294.121 128.772 294.121 127.941V124.307H293.137V123.437L294.27 122.749L294.863 121.158H296.178V122.763H298.288V124.307H296.178V127.941C296.178 128.233 296.259 128.449 296.421 128.588C296.587 128.728 296.805 128.797 297.075 128.797ZM298.821 122.763H301.073L302.496 127.004C302.617 127.372 302.7 127.808 302.745 128.312H302.785C302.835 127.849 302.932 127.413 303.075 127.004L304.471 122.763H306.676L303.487 131.265C303.195 132.052 302.776 132.64 302.233 133.031C301.693 133.423 301.062 133.618 300.338 133.618C299.983 133.618 299.635 133.58 299.293 133.503V131.872C299.54 131.93 299.81 131.959 300.102 131.959C300.466 131.959 300.783 131.847 301.053 131.622C301.327 131.402 301.54 131.067 301.693 130.618L301.815 130.247L298.821 122.763Z" fill="#978FDC"/>
<path d="M269.715 166.516C269.715 167.406 269.393 168.108 268.75 168.62C268.112 169.133 267.222 169.389 266.08 169.389C265.029 169.389 264.098 169.191 263.289 168.795V166.854C263.954 167.15 264.516 167.359 264.975 167.481C265.438 167.602 265.86 167.663 266.242 167.663C266.701 167.663 267.051 167.575 267.294 167.4C267.541 167.224 267.665 166.964 267.665 166.618C267.665 166.424 267.611 166.254 267.503 166.105C267.395 165.952 267.236 165.806 267.024 165.667C266.818 165.528 266.393 165.305 265.75 164.999C265.148 164.716 264.696 164.444 264.395 164.184C264.094 163.923 263.853 163.619 263.673 163.273C263.494 162.927 263.404 162.523 263.404 162.06C263.404 161.188 263.698 160.502 264.287 160.003C264.88 159.504 265.698 159.255 266.741 159.255C267.254 159.255 267.741 159.316 268.204 159.437C268.672 159.558 269.159 159.729 269.667 159.949L268.993 161.574C268.467 161.359 268.031 161.208 267.685 161.123C267.343 161.037 267.006 160.994 266.674 160.994C266.278 160.994 265.975 161.087 265.763 161.271C265.552 161.455 265.447 161.696 265.447 161.992C265.447 162.177 265.489 162.338 265.575 162.478C265.66 162.613 265.795 162.745 265.979 162.876C266.168 163.001 266.611 163.231 267.307 163.563C268.229 164.004 268.86 164.447 269.202 164.892C269.544 165.332 269.715 165.874 269.715 166.516ZM275.479 169.389C274.594 169.389 273.899 169.067 273.396 168.425H273.288C273.36 169.054 273.396 169.418 273.396 169.517V172.571H271.339V161.716H273.012L273.302 162.694H273.396C273.877 161.947 274.589 161.574 275.533 161.574C276.423 161.574 277.12 161.918 277.623 162.606C278.127 163.294 278.379 164.249 278.379 165.471C278.379 166.276 278.259 166.975 278.021 167.568C277.787 168.162 277.453 168.613 277.017 168.924C276.581 169.234 276.068 169.389 275.479 169.389ZM274.873 163.219C274.365 163.219 273.994 163.377 273.76 163.691C273.526 164.002 273.405 164.516 273.396 165.235V165.458C273.396 166.267 273.515 166.847 273.753 167.197C273.996 167.548 274.378 167.723 274.899 167.723C275.821 167.723 276.282 166.964 276.282 165.444C276.282 164.703 276.167 164.148 275.938 163.779C275.713 163.406 275.358 163.219 274.873 163.219ZM281.716 165.471C281.716 166.218 281.837 166.782 282.08 167.164C282.327 167.546 282.727 167.737 283.28 167.737C283.829 167.737 284.222 167.548 284.46 167.17C284.703 166.788 284.824 166.222 284.824 165.471C284.824 164.725 284.703 164.166 284.46 163.793C284.218 163.419 283.82 163.233 283.267 163.233C282.718 163.233 282.323 163.419 282.08 163.793C281.837 164.161 281.716 164.721 281.716 165.471ZM286.928 165.471C286.928 166.699 286.604 167.658 285.957 168.35C285.31 169.043 284.409 169.389 283.253 169.389C282.53 169.389 281.891 169.231 281.338 168.917C280.786 168.598 280.361 168.141 280.064 167.548C279.768 166.955 279.619 166.263 279.619 165.471C279.619 164.24 279.941 163.282 280.583 162.599C281.226 161.916 282.13 161.574 283.294 161.574C284.017 161.574 284.656 161.732 285.209 162.046C285.762 162.361 286.186 162.813 286.483 163.401C286.78 163.99 286.928 164.68 286.928 165.471ZM292.834 161.574C293.113 161.574 293.345 161.595 293.529 161.635L293.374 163.563C293.207 163.518 293.005 163.496 292.767 163.496C292.111 163.496 291.598 163.664 291.23 164.002C290.866 164.339 290.683 164.811 290.683 165.417V169.254H288.627V161.716H290.185L290.488 162.983H290.589C290.823 162.561 291.137 162.222 291.533 161.965C291.933 161.705 292.367 161.574 292.834 161.574ZM298.073 167.75C298.433 167.75 298.864 167.672 299.368 167.514V169.045C298.855 169.274 298.226 169.389 297.48 169.389C296.657 169.389 296.057 169.182 295.68 168.768C295.307 168.35 295.12 167.726 295.12 166.894V163.26H294.136V162.39L295.268 161.702L295.862 160.111H297.176V161.716H299.287V163.26H297.176V166.894C297.176 167.186 297.257 167.402 297.419 167.541C297.586 167.681 297.804 167.75 298.073 167.75ZM306.157 167.015C306.157 167.789 305.888 168.377 305.348 168.782C304.813 169.186 304.011 169.389 302.941 169.389C302.393 169.389 301.925 169.351 301.539 169.274C301.152 169.202 300.79 169.094 300.453 168.95V167.251C300.835 167.431 301.265 167.582 301.741 167.703C302.222 167.825 302.645 167.885 303.009 167.885C303.755 167.885 304.128 167.669 304.128 167.238C304.128 167.076 304.078 166.946 303.98 166.847C303.881 166.743 303.71 166.629 303.467 166.503C303.224 166.373 302.901 166.222 302.496 166.051C301.916 165.809 301.489 165.584 301.215 165.377C300.945 165.17 300.748 164.934 300.622 164.669C300.5 164.399 300.44 164.069 300.44 163.678C300.44 163.008 300.698 162.491 301.215 162.127C301.737 161.759 302.474 161.574 303.427 161.574C304.335 161.574 305.218 161.772 306.076 162.168L305.456 163.651C305.079 163.489 304.726 163.357 304.398 163.253C304.069 163.15 303.735 163.098 303.393 163.098C302.786 163.098 302.483 163.262 302.483 163.59C302.483 163.775 302.579 163.934 302.773 164.069C302.97 164.204 303.4 164.404 304.06 164.669C304.649 164.907 305.081 165.13 305.355 165.337C305.629 165.543 305.831 165.782 305.962 166.051C306.092 166.321 306.157 166.642 306.157 167.015Z" fill="#978FDC"/>
<path d="M269.35 203.188C269.35 204.811 268.887 206.053 267.961 206.916C267.04 207.779 265.707 208.211 263.963 208.211H261.172V198.354H264.267C265.876 198.354 267.125 198.778 268.015 199.628C268.905 200.477 269.35 201.664 269.35 203.188ZM267.179 203.242C267.179 201.125 266.244 200.066 264.375 200.066H263.262V206.485H264.159C266.172 206.485 267.179 205.404 267.179 203.242ZM275.439 200.531C275.718 200.531 275.949 200.552 276.133 200.592L275.978 202.52C275.812 202.475 275.61 202.453 275.371 202.453C274.715 202.453 274.203 202.621 273.834 202.959C273.47 203.296 273.288 203.768 273.288 204.374V208.211H271.232V200.673H272.789L273.092 201.94H273.194C273.427 201.518 273.742 201.179 274.138 200.922C274.538 200.662 274.971 200.531 275.439 200.531ZM282.289 208.211L281.891 207.186H281.837C281.491 207.622 281.134 207.926 280.765 208.096C280.401 208.263 279.925 208.346 279.336 208.346C278.612 208.346 278.041 208.139 277.623 207.725C277.21 207.312 277.003 206.723 277.003 205.959C277.003 205.159 277.282 204.57 277.839 204.192C278.401 203.81 279.246 203.599 280.374 203.559L281.682 203.518V203.188C281.682 202.424 281.291 202.042 280.509 202.042C279.907 202.042 279.199 202.224 278.385 202.588L277.704 201.199C278.572 200.745 279.534 200.518 280.59 200.518C281.601 200.518 282.377 200.738 282.916 201.179C283.456 201.619 283.725 202.289 283.725 203.188V208.211H282.289ZM281.682 204.718L280.887 204.745C280.289 204.763 279.844 204.871 279.552 205.069C279.26 205.267 279.113 205.568 279.113 205.972C279.113 206.552 279.446 206.842 280.111 206.842C280.588 206.842 280.968 206.705 281.251 206.431C281.538 206.157 281.682 205.793 281.682 205.339V204.718ZM292.598 208.211H290.542V203.808C290.542 203.264 290.45 202.857 290.265 202.588C290.086 202.314 289.8 202.176 289.409 202.176C288.883 202.176 288.501 202.37 288.263 202.756C288.025 203.143 287.906 203.779 287.906 204.664V208.211H285.849V200.673H287.42L287.697 201.637H287.811C288.013 201.291 288.306 201.021 288.688 200.828C289.07 200.63 289.508 200.531 290.002 200.531C291.131 200.531 291.895 200.9 292.295 201.637H292.477C292.679 201.286 292.976 201.015 293.367 200.821C293.763 200.628 294.208 200.531 294.702 200.531C295.556 200.531 296.201 200.752 296.637 201.192C297.078 201.628 297.298 202.329 297.298 203.296V208.211H295.235V203.808C295.235 203.264 295.142 202.857 294.958 202.588C294.778 202.314 294.493 202.176 294.102 202.176C293.598 202.176 293.221 202.356 292.969 202.716C292.722 203.075 292.598 203.646 292.598 204.428V208.211ZM304.202 208.211L303.804 207.186H303.75C303.404 207.622 303.047 207.926 302.678 208.096C302.314 208.263 301.838 208.346 301.249 208.346C300.525 208.346 299.954 208.139 299.536 207.725C299.123 207.312 298.916 206.723 298.916 205.959C298.916 205.159 299.195 204.57 299.752 204.192C300.314 203.81 301.159 203.599 302.287 203.559L303.595 203.518V203.188C303.595 202.424 303.204 202.042 302.422 202.042C301.82 202.042 301.112 202.224 300.298 202.588L299.617 201.199C300.485 200.745 301.447 200.518 302.503 200.518C303.514 200.518 304.29 200.738 304.829 201.179C305.368 201.619 305.638 202.289 305.638 203.188V208.211H304.202ZM303.595 204.718L302.8 204.745C302.202 204.763 301.757 204.871 301.465 205.069C301.172 205.267 301.026 205.568 301.026 205.972C301.026 206.552 301.359 206.842 302.024 206.842C302.501 206.842 302.881 206.705 303.164 206.431C303.451 206.157 303.595 205.793 303.595 205.339V204.718Z" fill="#978FDC"/>
<path d="M149.59 36.7832H152.658C154.056 36.7832 155.069 36.9832 155.698 37.3833C156.332 37.7788 156.649 38.4104 156.649 39.2779C156.649 39.8667 156.51 40.3499 156.231 40.7275C155.957 41.1051 155.591 41.3321 155.132 41.4085V41.4759C155.757 41.6153 156.206 41.876 156.481 42.258C156.759 42.6401 156.899 43.148 156.899 43.7818C156.899 44.6808 156.573 45.382 155.921 45.8855C155.274 46.3889 154.393 46.6406 153.278 46.6406H149.59V36.7832ZM151.68 40.6871H152.894C153.46 40.6871 153.869 40.5994 154.121 40.4241C154.377 40.2488 154.505 39.9589 154.505 39.5543C154.505 39.1768 154.366 38.9071 154.087 38.7452C153.813 38.5789 153.377 38.4958 152.779 38.4958H151.68V40.6871ZM151.68 42.3457V44.9146H153.042C153.617 44.9146 154.042 44.8044 154.316 44.5842C154.59 44.3639 154.728 44.0268 154.728 43.5728C154.728 42.7547 154.143 42.3457 152.975 42.3457H151.68ZM166.891 36.7832V43.1615C166.891 43.8897 166.727 44.528 166.399 45.0764C166.075 45.6248 165.605 46.045 164.99 46.3372C164.374 46.6294 163.646 46.7755 162.805 46.7755C161.537 46.7755 160.553 46.4518 159.852 45.8046C159.151 45.1528 158.8 44.2628 158.8 43.1346V36.7832H160.883V42.8177C160.883 43.5773 161.036 44.1347 161.342 44.4898C161.648 44.8449 162.153 45.0224 162.859 45.0224C163.542 45.0224 164.037 44.8449 164.342 44.4898C164.652 44.1302 164.808 43.5683 164.808 42.8042V36.7832H166.891ZM175.73 46.6406H168.394V45.2854L173.121 38.5093H168.523V36.7832H175.602V38.1317L170.882 44.9146H175.73V46.6406ZM183.727 46.6406H176.391V45.2854L181.117 38.5093H176.519V36.7832H183.599V38.1317L178.879 44.9146H183.727V46.6406ZM190.941 46.6406H188.885V36.7832H194.535V38.4958H190.941V41.0377H194.285V42.7435H190.941V46.6406ZM196.463 46.6406V36.7832H198.553V46.6406H196.463ZM204.837 46.6406H202.747V38.5227H200.07V36.7832H207.514V38.5227H204.837V46.6406ZM218.295 46.6406H212.618V36.7832H218.295V38.4958H214.708V40.6601H218.046V42.3727H214.708V44.9146H218.295V46.6406ZM228.537 41.6175C228.537 43.2402 228.074 44.483 227.148 45.3461C226.227 46.2091 224.894 46.6406 223.15 46.6406H220.358V36.7832H223.453C225.062 36.7832 226.312 37.208 227.202 38.0575C228.092 38.9071 228.537 40.0937 228.537 41.6175ZM226.366 41.6715C226.366 39.5543 225.431 38.4958 223.561 38.4958H222.449V44.9146H223.345C225.359 44.9146 226.366 43.8335 226.366 41.6715ZM238.603 36.7832V43.1615C238.603 43.8897 238.439 44.528 238.111 45.0764C237.788 45.6248 237.318 46.045 236.702 46.3372C236.086 46.6294 235.358 46.7755 234.518 46.7755C233.25 46.7755 232.266 46.4518 231.564 45.8046C230.863 45.1528 230.513 44.2628 230.513 43.1346V36.7832H232.596V42.8177C232.596 43.5773 232.749 44.1347 233.054 44.4898C233.36 44.8449 233.866 45.0224 234.571 45.0224C235.255 45.0224 235.749 44.8449 236.055 44.4898C236.365 44.1302 236.52 43.5683 236.52 42.8042V36.7832H238.603ZM245.204 38.3811C244.418 38.3811 243.809 38.6778 243.377 39.2711C242.946 39.86 242.73 40.6826 242.73 41.7389C242.73 43.9369 243.555 45.0359 245.204 45.0359C245.896 45.0359 246.735 44.8629 247.719 44.5168V46.2698C246.91 46.6069 246.007 46.7755 245.009 46.7755C243.575 46.7755 242.478 46.3417 241.718 45.4742C240.959 44.6022 240.579 43.3526 240.579 41.7254C240.579 40.7005 240.765 39.8038 241.139 39.0352C241.512 38.262 242.047 37.6709 242.743 37.2619C243.444 36.8484 244.265 36.6416 245.204 36.6416C246.162 36.6416 247.124 36.8731 248.09 37.3361L247.416 39.0352C247.047 38.8599 246.676 38.707 246.303 38.5767C245.93 38.4463 245.564 38.3811 245.204 38.3811ZM255.857 46.6406L255.143 44.2943H251.549L250.834 46.6406H248.582L252.061 36.7427H254.617L258.109 46.6406H255.857ZM254.644 42.5412C253.983 40.4151 253.61 39.2127 253.524 38.934C253.444 38.6553 253.385 38.4351 253.349 38.2733C253.201 38.8486 252.776 40.2713 252.075 42.5412H254.644ZM263.159 46.6406H261.069V38.5227H258.392V36.7832H265.836V38.5227H263.159V46.6406ZM267.353 46.6406V36.7832H269.443V46.6406H267.353ZM280.872 41.6984C280.872 43.3301 280.467 44.5842 279.658 45.4607C278.849 46.3372 277.689 46.7755 276.179 46.7755C274.669 46.7755 273.509 46.3372 272.7 45.4607C271.891 44.5842 271.486 43.3256 271.486 41.6849C271.486 40.0443 271.891 38.7924 272.7 37.9294C273.513 37.0619 274.678 36.6281 276.192 36.6281C277.707 36.6281 278.865 37.0641 279.665 37.9361C280.469 38.8082 280.872 40.0623 280.872 41.6984ZM273.678 41.6984C273.678 42.7997 273.887 43.629 274.305 44.1864C274.723 44.7438 275.347 45.0224 276.179 45.0224C277.847 45.0224 278.68 43.9144 278.68 41.6984C278.68 39.4779 277.851 38.3677 276.192 38.3677C275.361 38.3677 274.734 38.6486 274.311 39.2105C273.889 39.7678 273.678 40.5972 273.678 41.6984ZM291.66 46.6406H289.003L284.715 39.1835H284.654C284.74 40.5005 284.782 41.44 284.782 42.0018V46.6406H282.915V36.7832H285.551L289.832 44.1662H289.88C289.812 42.8851 289.778 41.9794 289.778 41.449V36.7832H291.66V46.6406ZM300.182 46.6406L299.467 44.2943H295.874L295.159 46.6406H292.907L296.386 36.7427H298.941L302.434 46.6406H300.182ZM298.968 42.5412C298.308 40.4151 297.935 39.2127 297.849 38.934C297.768 38.6553 297.71 38.4351 297.674 38.2733C297.526 38.8486 297.101 40.2713 296.4 42.5412H298.968ZM303.681 46.6406V36.7832H305.772V44.9146H309.77V46.6406H303.681ZM195.762 63.6406H193.679V59.3862H189.775V63.6406H187.685V53.7832H189.775V57.6466H193.679V53.7832H195.762V63.6406ZM203.934 63.6406H198.257V53.7832H203.934V55.4958H200.347V57.6601H203.684V59.3727H200.347V61.9146H203.934V63.6406ZM212.031 63.6406L211.317 61.2943H207.723L207.008 63.6406H204.756L208.236 53.7427H210.791L214.283 63.6406H212.031ZM210.818 59.5412C210.157 57.4151 209.784 56.2127 209.699 55.934C209.618 55.6553 209.559 55.4351 209.523 55.2733C209.375 55.8486 208.95 57.2713 208.249 59.5412H210.818ZM215.531 63.6406V53.7832H217.621V61.9146H221.619V63.6406H215.531ZM227.141 63.6406H225.051V55.5227H222.374V53.7832H229.818V55.5227H227.141V63.6406ZM239.413 63.6406H237.329V59.3862H233.425V63.6406H231.335V53.7832H233.425V57.6466H237.329V53.7832H239.413V63.6406ZM249.681 55.3811C248.895 55.3811 248.286 55.6778 247.854 56.2711C247.423 56.86 247.207 57.6826 247.207 58.7389C247.207 60.9369 248.032 62.0359 249.681 62.0359C250.373 62.0359 251.212 61.8629 252.196 61.5168V63.2698C251.387 63.6069 250.484 63.7755 249.486 63.7755C248.052 63.7755 246.955 63.3417 246.195 62.4742C245.436 61.6022 245.056 60.3526 245.056 58.7254C245.056 57.7005 245.242 56.8038 245.616 56.0352C245.989 55.262 246.524 54.6709 247.22 54.2619C247.921 53.8484 248.742 53.6416 249.681 53.6416C250.639 53.6416 251.601 53.8731 252.567 54.3361L251.893 56.0352C251.524 55.8599 251.153 55.707 250.78 55.5767C250.407 55.4463 250.041 55.3811 249.681 55.3811ZM263.247 58.6984C263.247 60.3301 262.842 61.5842 262.033 62.4607C261.224 63.3372 260.065 63.7755 258.554 63.7755C257.044 63.7755 255.884 63.3372 255.075 62.4607C254.266 61.5842 253.862 60.3256 253.862 58.6849C253.862 57.0443 254.266 55.7924 255.075 54.9294C255.889 54.0619 257.053 53.6281 258.568 53.6281C260.083 53.6281 261.24 54.0641 262.04 54.9361C262.845 55.8082 263.247 57.0623 263.247 58.6984ZM256.053 58.6984C256.053 59.7997 256.262 60.629 256.68 61.1864C257.098 61.7438 257.723 62.0224 258.554 62.0224C260.222 62.0224 261.056 60.9144 261.056 58.6984C261.056 56.4779 260.226 55.3677 258.568 55.3677C257.736 55.3677 257.109 55.6486 256.687 56.2105C256.264 56.7678 256.053 57.5972 256.053 58.6984ZM274.035 63.6406H271.378L267.09 56.1835H267.03C267.115 57.5005 267.158 58.44 267.158 59.0018V63.6406H265.29V53.7832H267.926L272.208 61.1662H272.255C272.187 59.8851 272.154 58.9794 272.154 58.449V53.7832H274.035V63.6406ZM280.326 63.6406H278.235V55.5227H275.559V53.7832H283.002V55.5227H280.326V63.6406ZM290.196 63.6406H284.519V53.7832H290.196V55.4958H286.61V57.6601H289.947V59.3727H286.61V61.9146H290.196V63.6406ZM301.005 63.6406H298.348L294.06 56.1835H293.999C294.085 57.5005 294.127 58.44 294.127 59.0018V63.6406H292.26V53.7832H294.896L299.177 61.1662H299.225C299.157 59.8851 299.123 58.9794 299.123 58.449V53.7832H301.005V63.6406ZM307.295 63.6406H305.205V55.5227H302.528V53.7832H309.972V55.5227H307.295V63.6406Z" fill="#61B2AA"/>
<g filter="url(#filter0_i)">
<path d="M332.931 244.381C343.775 244.381 354.375 247.597 363.392 253.621C372.409 259.646 379.436 268.209 383.586 278.228C387.736 288.246 388.822 299.271 386.706 309.907C384.591 320.542 379.369 330.312 371.701 337.98C364.033 345.648 354.263 350.87 343.627 352.986C332.991 355.101 321.967 354.015 311.948 349.865C301.93 345.716 293.367 338.688 287.342 329.671C281.317 320.655 278.102 310.054 278.102 299.21" stroke="#F4F3FA" stroke-width="27.1928" stroke-linecap="round"/>
<path d="M332.931 205.009C351.562 205.009 369.774 210.534 385.265 220.884C400.756 231.235 412.829 245.947 419.959 263.159C427.089 280.372 428.954 299.312 425.32 317.585C421.685 335.858 412.713 352.642 399.539 365.816C386.366 378.99 369.581 387.962 351.308 391.596C333.036 395.231 314.095 393.365 296.883 386.236C279.67 379.106 264.958 367.032 254.608 351.542C244.257 336.051 238.732 317.838 238.732 299.208" stroke="#F4F3FA" stroke-width="27.1928" stroke-linecap="round"/>
<path d="M332.93 165.464C359.383 165.464 385.241 173.308 407.236 188.004C429.23 202.7 446.373 223.589 456.496 248.028C466.619 272.467 469.268 299.359 464.107 325.303C458.946 351.247 446.208 375.079 427.503 393.784C408.799 412.488 384.967 425.226 359.023 430.387C333.079 435.548 306.187 432.899 281.748 422.776C257.309 412.653 236.42 395.511 221.724 373.516C207.028 351.522 199.184 325.663 199.184 299.21" stroke="#F4F3FA" stroke-width="27.1928" stroke-linecap="round"/>
<path d="M332.933 127.181C366.958 127.181 400.218 137.27 428.508 156.173C456.799 175.076 478.848 201.944 491.869 233.378C504.889 264.813 508.296 299.402 501.658 332.773C495.02 366.144 478.636 396.797 454.577 420.856C430.518 444.914 399.865 461.299 366.495 467.937C333.124 474.575 298.534 471.168 267.1 458.147C235.665 445.127 208.798 423.077 189.895 394.787C170.992 366.496 160.902 333.236 160.902 299.211" stroke="#F4F3FA" stroke-width="27.1928" stroke-linecap="round"/>
<path d="M332.93 88.4869C374.607 88.4869 415.348 100.846 450.001 124C484.654 147.154 511.662 180.064 527.611 218.569C543.56 257.073 547.733 299.442 539.603 340.318C531.472 381.194 511.403 418.741 481.933 448.211C452.463 477.681 414.916 497.75 374.04 505.881C333.164 514.011 290.795 509.838 252.291 493.889C213.786 477.94 180.876 450.932 157.722 416.279C134.568 381.626 122.209 340.885 122.209 299.208" stroke="#F4F3FA" stroke-width="27.1928" stroke-linecap="round"/>
<path d="M332.931 49.7985C382.26 49.7985 430.481 64.4262 471.496 91.8319C512.512 119.238 544.479 158.19 563.357 203.764C582.234 249.338 587.173 299.486 577.55 347.867C567.926 396.248 544.172 440.689 509.291 475.57C474.41 510.451 429.969 534.205 381.588 543.829C333.207 553.452 283.059 548.513 237.485 529.636C191.911 510.758 152.959 478.791 125.553 437.775C98.1472 396.76 83.5195 348.539 83.5195 299.21" stroke="#F4F3FA" stroke-width="27.1928" stroke-linecap="round"/>
</g>
<path d="M333 49.6407C382.346 49.6407 430.585 64.2442 471.615 91.6047C512.645 118.965 544.624 157.854 563.508 203.352C582.392 248.851 587.333 298.917 577.706 347.218C568.079 395.519 544.316 439.887 509.423 474.71C474.53 509.533 430.073 533.248 381.675 542.856C333.277 552.464 283.111 547.533 237.52 528.687C191.93 509.84 152.964 477.925 125.548 436.978C98.1329 396.03 83.5 347.888 83.5 298.641" stroke="#61B2AA" stroke-width="27.1928" stroke-linecap="round"/>
<path d="M332.93 205.006C351.56 205.006 369.773 210.531 385.264 220.882C400.754 231.232 412.828 245.944 419.958 263.157C427.088 280.369 428.953 299.309 425.318 317.582" stroke="#978FDC" stroke-width="27.1928" stroke-linecap="round"/>
<path d="M332.93 165.463C359.382 165.463 385.241 173.307 407.235 188.004C429.23 202.7 446.372 223.588 456.495 248.027" stroke="#978FDC" stroke-width="27.1928" stroke-linecap="round"/>
<path d="M332.932 127.177C366.956 127.177 400.216 137.266 428.507 156.169C440.115 163.926 450.672 173.023 459.987 183.227" stroke="#978FDC" stroke-width="27.1928" stroke-linecap="round"/>
<path d="M332.93 88.4871C374.606 88.4871 415.347 100.846 450 124" stroke="#978FDC" stroke-width="27.1928" stroke-linecap="round"/>
<path d="M332.93 244.38C343.774 244.38 354.375 247.596 363.391 253.621C372.408 259.646 379.435 268.209 383.585 278.227C384.642 280.778 385.499 283.393 386.156 286.051" stroke="#978FDC" stroke-width="27.1928" stroke-linecap="round"/>
<defs>
<filter id="filter0_i" x="69.9238" y="36.2031" width="526.015" height="530.015" filterUnits="userSpaceOnUse" color-interpolation-filters="sRGB">
<feFlood flood-opacity="0" result="BackgroundImageFix"/>
<feBlend mode="normal" in="SourceGraphic" in2="BackgroundImageFix" result="shape"/>
<feColorMatrix in="SourceAlpha" type="matrix" values="0 0 0 0 0 0 0 0 0 0 0 0 0 0 0 0 0 0 127 0" result="hardAlpha"/>
<feOffset dy="4"/>
<feGaussianBlur stdDeviation="2"/>
<feComposite in2="hardAlpha" operator="arithmetic" k2="-1" k3="1"/>
<feColorMatrix type="matrix" values="0 0 0 0 0 0 0 0 0 0 0 0 0 0 0 0 0 0 0.25 0"/>
<feBlend mode="normal" in2="shape" result="effect1_innerShadow"/>
</filter>
</defs>
</svg>
