<svg width="17" height="17" viewBox="0 0 17 17" fill="none" xmlns="http://www.w3.org/2000/svg">
<path fill-rule="evenodd" clip-rule="evenodd" d="M9.35156 5.94922L7.65156 5.94922L7.65156 4.24922L9.35156 4.24922L9.35156 5.94922ZM9.35156 12.75L7.65156 12.75L7.65156 7.65L9.35156 7.65L9.35156 12.75ZM8.5085 17C13.2005 17 17 13.192 17 8.5C17 3.808 13.2005 -3.32163e-07 8.5085 -7.4235e-07C3.808 -1.15328e-06 1.15328e-06 3.808 7.43094e-07 8.5C3.32906e-07 13.192 3.808 17 8.5085 17ZM8.5 1.7C12.257 1.7 15.3 4.743 15.3 8.5C15.3 12.257 12.257 15.3 8.5 15.3C4.743 15.3 1.7 12.257 1.7 8.5C1.7 4.743 4.743 1.7 8.5 1.7Z" fill="#7C808A"/>
</svg>
